<svg width="26" height="20" viewBox="0 0 26 20" fill="none" xmlns="http://www.w3.org/2000/svg">
<path d="M24.8646 2.11838H23.6675V0.590346C23.6675 0.511318 23.6422 0.434361 23.5953 0.370746C23.5484 0.307131 23.4824 0.260202 23.4069 0.236832C23.2497 0.187462 19.5204 -0.919404 15.1362 2.11838H10.0977C5.71231 -0.919709 1.98364 0.187462 1.82669 0.236527C1.7512 0.259997 1.68519 0.306994 1.63831 0.370652C1.59144 0.434309 1.56614 0.51129 1.56613 0.590346V2.11838H0.369057C0.27109 2.11878 0.177268 2.15796 0.108109 2.22735C0.0389493 2.29674 7.97376e-05 2.39069 0 2.48866V17.9762C8.07059e-05 18.0745 0.0391498 18.1687 0.10863 18.2382C0.17811 18.3077 0.272321 18.3467 0.370581 18.3468H10.2586C10.4344 18.8312 10.755 19.2498 11.1769 19.5455C11.5989 19.8413 12.1017 20 12.617 20C13.1323 20 13.635 19.8413 14.057 19.5455C14.4789 19.2498 14.7996 18.8312 14.9753 18.3468H24.8646C24.9628 18.3467 25.057 18.3077 25.1265 18.2382C25.196 18.1687 25.2351 18.0745 25.2351 17.9762V2.48866C25.2351 2.39043 25.196 2.29625 25.1265 2.22681C25.057 2.15738 24.9628 2.11838 24.8646 2.11838ZM22.9263 0.88291V15.9003C21.4522 15.6446 16.6944 14.9994 12.9877 16.529V4.99983C13.7307 4.17621 14.561 3.43569 15.4638 2.79128C18.9395 0.338315 22.0291 0.70341 22.9263 0.88291ZM14.1546 2.85924C14.0513 2.94457 13.9486 3.03325 13.8462 3.12255C13.8279 3.13839 13.8093 3.15302 13.791 3.16917C13.6115 3.32704 13.4335 3.49191 13.2571 3.66135C13.2199 3.69701 13.1827 3.73358 13.1453 3.76984C12.9676 3.94325 12.7911 4.12062 12.6171 4.3056C12.4434 4.12092 12.2673 3.94416 12.0899 3.77106C12.0521 3.73388 12.0142 3.69701 11.9762 3.66044C11.7998 3.4916 11.6221 3.32521 11.4426 3.16917C11.4249 3.15363 11.4072 3.1387 11.3896 3.12377C11.2866 3.03417 11.1832 2.94488 11.0793 2.85924H14.1546ZM2.30729 0.88291C3.20418 0.70402 6.29408 0.338315 9.77102 2.79189C10.6736 3.43628 11.5036 4.1767 12.2465 5.00013V16.529C12.1273 16.4798 12.0071 16.4329 11.886 16.3882C11.8772 16.3848 11.8683 16.3821 11.8595 16.379C11.62 16.2909 11.377 16.2111 11.1305 16.1398L11.0836 16.1267C10.8437 16.0578 10.6017 15.996 10.3577 15.9411C10.3376 15.9365 10.3177 15.9329 10.2967 15.9283C10.0562 15.8753 9.81511 15.8285 9.57354 15.7881C9.55099 15.7842 9.52843 15.7811 9.50619 15.7774C9.26645 15.738 9.02681 15.7043 8.78727 15.6763L8.7187 15.6687C8.47978 15.6412 8.24207 15.6188 8.00558 15.6013L7.94128 15.5967C7.70336 15.5801 7.46779 15.5676 7.23455 15.5592L7.18122 15.5574C6.94534 15.5499 6.71312 15.546 6.48455 15.5458H6.46505H6.41507C6.32638 15.5458 6.23862 15.5458 6.15115 15.5477H6.08014C5.98872 15.5477 5.89729 15.551 5.80739 15.5538H5.75223C5.65694 15.5568 5.56267 15.5603 5.46942 15.5641H5.43894C5.33929 15.5684 5.24116 15.5733 5.14394 15.5787H5.13297C4.18573 15.6308 3.24222 15.7366 2.30699 15.8957L2.30729 0.88291ZM24.4934 17.6057H14.6992C14.6155 17.6057 14.5343 17.6341 14.4688 17.6861C14.4033 17.7382 14.3573 17.8109 14.3384 17.8924C14.2481 18.2815 14.0288 18.6285 13.7161 18.8769C13.4035 19.1254 13.0159 19.2606 12.6165 19.2606C12.2171 19.2606 11.8295 19.1254 11.5169 18.8769C11.2042 18.6285 10.9849 18.2815 10.8946 17.8924C10.8757 17.8109 10.8298 17.7382 10.7642 17.6861C10.6987 17.6341 10.6175 17.6057 10.5338 17.6057H0.739333V2.85924H1.56613V16.3473C1.56611 16.4025 1.57842 16.457 1.60216 16.5069C1.6259 16.5567 1.66047 16.6006 1.70335 16.6353C1.74623 16.6701 1.79632 16.6948 1.84998 16.7078C1.90365 16.7207 1.95951 16.7214 2.01351 16.71C2.07446 16.6966 8.29784 15.4145 12.4553 17.4335C12.4589 17.4353 12.4629 17.4356 12.4666 17.4374C12.4731 17.4401 12.4799 17.4425 12.4867 17.4445C12.528 17.4619 12.5723 17.4709 12.6171 17.4709C12.6619 17.4709 12.7063 17.4619 12.7475 17.4445C12.7543 17.442 12.7613 17.4405 12.7677 17.4374C12.7741 17.4344 12.7753 17.4353 12.7789 17.4335C16.9349 15.4145 23.1579 16.6966 23.2201 16.71C23.2741 16.7214 23.33 16.7207 23.3836 16.7078C23.4373 16.6948 23.4874 16.6701 23.5303 16.6353C23.5731 16.6006 23.6077 16.5567 23.6315 16.5069C23.6552 16.457 23.6675 16.4025 23.6675 16.3473V2.85924H24.4943L24.4934 17.6057ZM4.74532 11.0032L6.77925 11.6157C6.81386 11.6261 6.84978 11.6314 6.88591 11.6316C6.98415 11.6314 7.07831 11.5923 7.14778 11.5229C7.21724 11.4534 7.25633 11.3592 7.25649 11.261V4.15688C7.25648 4.07728 7.23083 3.9998 7.18336 3.93592C7.13588 3.87203 7.06909 3.82512 6.99288 3.80215L4.95895 3.1899C4.90365 3.17314 4.84518 3.16957 4.78825 3.17948C4.73131 3.18939 4.67749 3.2125 4.6311 3.24695C4.5847 3.28141 4.54702 3.32625 4.52108 3.3779C4.49514 3.42954 4.48166 3.48654 4.48171 3.54433V10.6484C4.48176 10.7281 4.5075 10.8057 4.55509 10.8696C4.60269 10.9335 4.66961 10.9803 4.74593 11.0032H4.74532ZM5.22257 4.0426L6.51533 4.43207V10.7624L5.22257 10.3732V4.0426ZM21.3114 9.93623L15.1316 11.2263C15.0471 11.2439 14.9714 11.2904 14.9176 11.3579C14.8638 11.4254 14.8353 11.5096 14.8369 11.5959L14.8799 13.7828C14.8817 13.8799 14.9214 13.9725 14.9907 14.0406C15.0599 14.1086 15.1531 14.1469 15.2502 14.147C15.2736 14.1469 15.297 14.1446 15.32 14.14L21.4571 12.9585C21.5416 12.9423 21.6179 12.8971 21.6727 12.8307C21.7276 12.7644 21.7576 12.681 21.7576 12.5949V10.2989C21.7576 10.2438 21.7453 10.1895 21.7216 10.1397C21.6979 10.09 21.6635 10.0462 21.6208 10.0115C21.578 9.97673 21.5281 9.95195 21.4746 9.93894C21.4211 9.92593 21.3653 9.925 21.3114 9.93623ZM21.0164 12.288L15.6116 13.3291L15.5833 11.8882L21.0164 10.7545V12.288ZM11.1064 14.1619C11.0882 14.2442 11.0424 14.3178 10.9767 14.3706C10.911 14.4234 10.8293 14.4522 10.745 14.4524C10.7179 14.4523 10.691 14.4493 10.6646 14.4432L4.77245 13.1328C4.67655 13.1115 4.59303 13.053 4.54028 12.9701C4.48753 12.8872 4.46986 12.7868 4.49116 12.6909C4.51245 12.595 4.57098 12.5115 4.65385 12.4587C4.73672 12.406 4.83715 12.3883 4.93305 12.4096L10.8252 13.7201C10.921 13.7415 11.0044 13.8 11.0572 13.8829C11.1099 13.9657 11.1276 14.0661 11.1064 14.1619ZM8.15491 12.0256L10.6359 12.7954C10.6714 12.8064 10.7084 12.8121 10.7456 12.8122C10.8439 12.8118 10.938 12.7724 11.0073 12.7027C11.0766 12.633 11.1154 12.5387 11.1153 12.4404V5.47372C11.1153 5.3977 11.0919 5.32352 11.0483 5.26125C11.0047 5.19899 10.9429 5.15166 10.8715 5.12569L8.3917 4.22027C8.33569 4.19958 8.27551 4.19274 8.21629 4.20034C8.15707 4.20794 8.10056 4.22974 8.05159 4.2639C8.00261 4.29805 7.96262 4.34355 7.93503 4.3965C7.90744 4.44945 7.89306 4.50829 7.89312 4.56799V11.6718C7.89331 11.751 7.91882 11.828 7.96592 11.8917C8.01302 11.9554 8.07924 12.0023 8.15491 12.0256ZM8.6355 5.09766L10.3744 5.73276V11.9388L8.6355 11.3987V5.09766ZM17.8354 9.42333C18.6311 9.42301 19.3941 9.10711 19.9571 8.54493C20.5202 7.98275 20.8372 7.2202 20.8388 6.42455C20.8388 6.3759 20.8292 6.32773 20.8105 6.28278C20.7919 6.23784 20.7646 6.19701 20.7302 6.16262C20.6958 6.12823 20.6549 6.10097 20.61 6.08238C20.565 6.06379 20.5168 6.05424 20.4682 6.05428H18.206V3.79087C18.2061 3.74215 18.1965 3.6939 18.178 3.64887C18.1594 3.60384 18.1321 3.56291 18.0977 3.52844C18.0633 3.49396 18.0224 3.46661 17.9774 3.44795C17.9324 3.42929 17.8841 3.41968 17.8354 3.41968C17.0395 3.41968 16.2762 3.73585 15.7135 4.29863C15.1507 4.86141 14.8345 5.6247 14.8345 6.42059C14.8345 7.21648 15.1507 7.97978 15.7135 8.54256C16.2762 9.10534 17.0395 9.4215 17.8354 9.4215V9.42333ZM17.4648 4.19193V6.42364C17.4649 6.52187 17.504 6.61605 17.5735 6.68548C17.643 6.75491 17.7372 6.79392 17.8354 6.79392H20.0671C19.9986 7.20335 19.8187 7.586 19.547 7.8999C19.2754 8.2138 18.9225 8.44682 18.5272 8.57339C18.1318 8.69996 17.7092 8.7152 17.3058 8.61743C16.9023 8.51966 16.5336 8.31266 16.2401 8.01915C15.9465 7.72563 15.7395 7.35693 15.6416 6.95349C15.5438 6.55006 15.559 6.12748 15.6855 5.73211C15.8121 5.33673 16.045 4.98385 16.3589 4.71216C16.6728 4.44047 17.0554 4.26048 17.4648 4.19193ZM18.7549 5.84369H21.387C21.4853 5.84369 21.5796 5.80465 21.6491 5.73515C21.7186 5.66565 21.7576 5.5714 21.7576 5.47311C21.7566 4.67701 21.44 3.91378 20.8771 3.35082C20.3142 2.78785 19.551 2.47112 18.7549 2.47007C18.7062 2.47007 18.658 2.47965 18.613 2.49828C18.5681 2.5169 18.5272 2.5442 18.4928 2.57861C18.4584 2.61302 18.4311 2.65387 18.4125 2.69883C18.3939 2.74379 18.3843 2.79198 18.3843 2.84065V5.47311C18.3843 5.52178 18.3939 5.56997 18.4125 5.61493C18.4311 5.65989 18.4584 5.70074 18.4928 5.73515C18.5272 5.76956 18.5681 5.79686 18.613 5.81548C18.658 5.83411 18.7062 5.84369 18.7549 5.84369ZM19.1251 3.2411C19.5905 3.31928 20.0199 3.54063 20.3535 3.87433C20.6872 4.20803 20.9085 4.63746 20.9866 5.10284H19.1251V3.2411Z" fill="black"/>
<path d="M24.8646 2.11838H23.6675V0.590346C23.6675 0.511318 23.6422 0.434361 23.5953 0.370746C23.5484 0.307131 23.4824 0.260202 23.4069 0.236832C23.2497 0.187462 19.5204 -0.919404 15.1362 2.11838H10.0977C5.71231 -0.919709 1.98364 0.187462 1.82669 0.236527C1.7512 0.259997 1.68519 0.306994 1.63831 0.370652C1.59144 0.434309 1.56614 0.51129 1.56613 0.590346V2.11838H0.369057C0.27109 2.11878 0.177268 2.15796 0.108109 2.22735C0.0389493 2.29674 7.97376e-05 2.39069 0 2.48866V17.9762C8.07059e-05 18.0745 0.0391498 18.1687 0.10863 18.2382C0.17811 18.3077 0.272321 18.3467 0.370581 18.3468H10.2586C10.4344 18.8312 10.755 19.2498 11.1769 19.5455C11.5989 19.8413 12.1017 20 12.617 20C13.1323 20 13.635 19.8413 14.057 19.5455C14.4789 19.2498 14.7996 18.8312 14.9753 18.3468H24.8646C24.9628 18.3467 25.057 18.3077 25.1265 18.2382C25.196 18.1687 25.2351 18.0745 25.2351 17.9762V2.48866C25.2351 2.39043 25.196 2.29625 25.1265 2.22681C25.057 2.15738 24.9628 2.11838 24.8646 2.11838ZM22.9263 0.88291V15.9003C21.4522 15.6446 16.6944 14.9994 12.9877 16.529V4.99983C13.7307 4.17621 14.561 3.43569 15.4638 2.79128C18.9395 0.338315 22.0291 0.70341 22.9263 0.88291ZM14.1546 2.85924C14.0513 2.94457 13.9486 3.03325 13.8462 3.12255C13.8279 3.13839 13.8093 3.15302 13.791 3.16917C13.6115 3.32704 13.4335 3.49191 13.2571 3.66135C13.2199 3.69701 13.1827 3.73358 13.1453 3.76984C12.9676 3.94325 12.7911 4.12062 12.6171 4.3056C12.4434 4.12092 12.2673 3.94416 12.0899 3.77106C12.0521 3.73388 12.0142 3.69701 11.9762 3.66044C11.7998 3.4916 11.6221 3.32521 11.4426 3.16917C11.4249 3.15363 11.4072 3.1387 11.3896 3.12377C11.2866 3.03417 11.1832 2.94488 11.0793 2.85924H14.1546ZM2.30729 0.88291C3.20418 0.70402 6.29408 0.338315 9.77102 2.79189C10.6736 3.43628 11.5036 4.1767 12.2465 5.00013V16.529C12.1273 16.4798 12.0071 16.4329 11.886 16.3882C11.8772 16.3848 11.8683 16.3821 11.8595 16.379C11.62 16.2909 11.377 16.2111 11.1305 16.1398L11.0836 16.1267C10.8437 16.0578 10.6017 15.996 10.3577 15.9411C10.3376 15.9365 10.3177 15.9329 10.2967 15.9283C10.0562 15.8753 9.81511 15.8285 9.57354 15.7881C9.55099 15.7842 9.52843 15.7811 9.50619 15.7774C9.26645 15.738 9.02681 15.7043 8.78727 15.6763L8.7187 15.6687C8.47978 15.6412 8.24207 15.6188 8.00558 15.6013L7.94128 15.5967C7.70336 15.5801 7.46779 15.5676 7.23455 15.5592L7.18122 15.5574C6.94534 15.5499 6.71312 15.546 6.48455 15.5458H6.46505H6.41507C6.32638 15.5458 6.23862 15.5458 6.15115 15.5477H6.08014C5.98872 15.5477 5.89729 15.551 5.80739 15.5538H5.75223C5.65694 15.5568 5.56267 15.5603 5.46942 15.5641H5.43894C5.33929 15.5684 5.24116 15.5733 5.14394 15.5787H5.13297C4.18573 15.6308 3.24222 15.7366 2.30699 15.8957L2.30729 0.88291ZM24.4934 17.6057H14.6992C14.6155 17.6057 14.5343 17.6341 14.4688 17.6861C14.4033 17.7382 14.3573 17.8109 14.3384 17.8924C14.2481 18.2815 14.0288 18.6285 13.7161 18.8769C13.4035 19.1254 13.0159 19.2606 12.6165 19.2606C12.2171 19.2606 11.8295 19.1254 11.5169 18.8769C11.2042 18.6285 10.9849 18.2815 10.8946 17.8924C10.8757 17.8109 10.8298 17.7382 10.7642 17.6861C10.6987 17.6341 10.6175 17.6057 10.5338 17.6057H0.739333V2.85924H1.56613V16.3473C1.56611 16.4025 1.57842 16.457 1.60216 16.5069C1.6259 16.5567 1.66047 16.6006 1.70335 16.6353C1.74623 16.6701 1.79632 16.6948 1.84998 16.7078C1.90365 16.7207 1.95951 16.7214 2.01351 16.71C2.07446 16.6966 8.29784 15.4145 12.4553 17.4335C12.4589 17.4353 12.4629 17.4356 12.4666 17.4374C12.4731 17.4401 12.4799 17.4425 12.4867 17.4445C12.528 17.4619 12.5723 17.4709 12.6171 17.4709C12.6619 17.4709 12.7063 17.4619 12.7475 17.4445C12.7543 17.442 12.7613 17.4405 12.7677 17.4374C12.7741 17.4344 12.7753 17.4353 12.7789 17.4335C16.9349 15.4145 23.1579 16.6966 23.2201 16.71C23.2741 16.7214 23.33 16.7207 23.3836 16.7078C23.4373 16.6948 23.4874 16.6701 23.5303 16.6353C23.5731 16.6006 23.6077 16.5567 23.6315 16.5069C23.6552 16.457 23.6675 16.4025 23.6675 16.3473V2.85924H24.4943L24.4934 17.6057ZM4.74532 11.0032L6.77925 11.6157C6.81386 11.6261 6.84978 11.6314 6.88591 11.6316C6.98415 11.6314 7.07831 11.5923 7.14778 11.5229C7.21724 11.4534 7.25633 11.3592 7.25649 11.261V4.15688C7.25648 4.07728 7.23083 3.9998 7.18336 3.93592C7.13588 3.87203 7.06909 3.82512 6.99288 3.80215L4.95895 3.1899C4.90365 3.17314 4.84518 3.16957 4.78825 3.17948C4.73131 3.18939 4.67749 3.2125 4.6311 3.24695C4.5847 3.28141 4.54702 3.32625 4.52108 3.3779C4.49514 3.42954 4.48166 3.48654 4.48171 3.54433V10.6484C4.48176 10.7281 4.5075 10.8057 4.55509 10.8696C4.60269 10.9335 4.66961 10.9803 4.74593 11.0032H4.74532ZM5.22257 4.0426L6.51533 4.43207V10.7624L5.22257 10.3732V4.0426ZM21.3114 9.93623L15.1316 11.2263C15.0471 11.2439 14.9714 11.2904 14.9176 11.3579C14.8638 11.4254 14.8353 11.5096 14.8369 11.5959L14.8799 13.7828C14.8817 13.8799 14.9214 13.9725 14.9907 14.0406C15.0599 14.1086 15.1531 14.1469 15.2502 14.147C15.2736 14.1469 15.297 14.1446 15.32 14.14L21.4571 12.9585C21.5416 12.9423 21.6179 12.8971 21.6727 12.8307C21.7276 12.7644 21.7576 12.681 21.7576 12.5949V10.2989C21.7576 10.2438 21.7453 10.1895 21.7216 10.1397C21.6979 10.09 21.6635 10.0462 21.6208 10.0115C21.578 9.97673 21.5281 9.95195 21.4746 9.93894C21.4211 9.92593 21.3653 9.925 21.3114 9.93623ZM21.0164 12.288L15.6116 13.3291L15.5833 11.8882L21.0164 10.7545V12.288ZM11.1064 14.1619C11.0882 14.2442 11.0424 14.3178 10.9767 14.3706C10.911 14.4234 10.8293 14.4522 10.745 14.4524C10.7179 14.4523 10.691 14.4493 10.6646 14.4432L4.77245 13.1328C4.67655 13.1115 4.59303 13.053 4.54028 12.9701C4.48753 12.8872 4.46986 12.7868 4.49116 12.6909C4.51245 12.595 4.57098 12.5115 4.65385 12.4587C4.73672 12.406 4.83715 12.3883 4.93305 12.4096L10.8252 13.7201C10.921 13.7415 11.0044 13.8 11.0572 13.8829C11.1099 13.9657 11.1276 14.0661 11.1064 14.1619ZM8.15491 12.0256L10.6359 12.7954C10.6714 12.8064 10.7084 12.8121 10.7456 12.8122C10.8439 12.8118 10.938 12.7724 11.0073 12.7027C11.0766 12.633 11.1154 12.5387 11.1153 12.4404V5.47372C11.1153 5.3977 11.0919 5.32352 11.0483 5.26125C11.0047 5.19899 10.9429 5.15166 10.8715 5.12569L8.3917 4.22027C8.33569 4.19958 8.27551 4.19274 8.21629 4.20034C8.15707 4.20794 8.10056 4.22974 8.05159 4.2639C8.00261 4.29805 7.96262 4.34355 7.93503 4.3965C7.90744 4.44945 7.89306 4.50829 7.89312 4.56799V11.6718C7.89331 11.751 7.91882 11.828 7.96592 11.8917C8.01302 11.9554 8.07924 12.0023 8.15491 12.0256ZM8.6355 5.09766L10.3744 5.73276V11.9388L8.6355 11.3987V5.09766ZM17.8354 9.42333C18.6311 9.42301 19.3941 9.10711 19.9571 8.54493C20.5202 7.98275 20.8372 7.2202 20.8388 6.42455C20.8388 6.3759 20.8292 6.32773 20.8105 6.28278C20.7919 6.23784 20.7646 6.19701 20.7302 6.16262C20.6958 6.12823 20.6549 6.10097 20.61 6.08238C20.565 6.06379 20.5168 6.05424 20.4682 6.05428H18.206V3.79087C18.2061 3.74215 18.1965 3.6939 18.178 3.64887C18.1594 3.60384 18.1321 3.56291 18.0977 3.52844C18.0633 3.49396 18.0224 3.46661 17.9774 3.44795C17.9324 3.42929 17.8841 3.41968 17.8354 3.41968C17.0395 3.41968 16.2762 3.73585 15.7135 4.29863C15.1507 4.86141 14.8345 5.6247 14.8345 6.42059C14.8345 7.21648 15.1507 7.97978 15.7135 8.54256C16.2762 9.10534 17.0395 9.4215 17.8354 9.4215V9.42333ZM17.4648 4.19193V6.42364C17.4649 6.52187 17.504 6.61605 17.5735 6.68548C17.643 6.75491 17.7372 6.79392 17.8354 6.79392H20.0671C19.9986 7.20335 19.8187 7.586 19.547 7.8999C19.2754 8.2138 18.9225 8.44682 18.5272 8.57339C18.1318 8.69996 17.7092 8.7152 17.3058 8.61743C16.9023 8.51966 16.5336 8.31266 16.2401 8.01915C15.9465 7.72563 15.7395 7.35693 15.6416 6.95349C15.5438 6.55006 15.559 6.12748 15.6855 5.73211C15.8121 5.33673 16.045 4.98385 16.3589 4.71216C16.6728 4.44047 17.0554 4.26048 17.4648 4.19193ZM18.7549 5.84369H21.387C21.4853 5.84369 21.5796 5.80465 21.6491 5.73515C21.7186 5.66565 21.7576 5.5714 21.7576 5.47311C21.7566 4.67701 21.44 3.91378 20.8771 3.35082C20.3142 2.78785 19.551 2.47112 18.7549 2.47007C18.7062 2.47007 18.658 2.47965 18.613 2.49828C18.5681 2.5169 18.5272 2.5442 18.4928 2.57861C18.4584 2.61302 18.4311 2.65387 18.4125 2.69883C18.3939 2.74379 18.3843 2.79198 18.3843 2.84065V5.47311C18.3843 5.52178 18.3939 5.56997 18.4125 5.61493C18.4311 5.65989 18.4584 5.70074 18.4928 5.73515C18.5272 5.76956 18.5681 5.79686 18.613 5.81548C18.658 5.83411 18.7062 5.84369 18.7549 5.84369ZM19.1251 3.2411C19.5905 3.31928 20.0199 3.54063 20.3535 3.87433C20.6872 4.20803 20.9085 4.63746 20.9866 5.10284H19.1251V3.2411Z" fill="url(#paint0_linear_332_1187)"/>
<defs>
<linearGradient id="paint0_linear_332_1187" x1="1.47287" y1="1.70255e-05" x2="43.879" y2="1.3676" gradientUnits="userSpaceOnUse">
<stop stop-color="#11AE88"/>
<stop offset="1" stop-color="#2A84EE"/>
</linearGradient>
</defs>
</svg>
