<svg width="39" height="38" viewBox="0 0 39 38" fill="none" xmlns="http://www.w3.org/2000/svg">
<path d="M19.4127 6.99882e-05C15.0437 6.99882e-05 11.1172 1.76344 8.27203 4.30946C5.42672 6.85547 3.61758 10.1996 3.61758 13.4873V14.2566C1.8564 14.6246 0.498047 16.1172 0.498047 17.9389V27.1998C0.498047 29.3036 2.3336 30.8803 4.45307 30.8998L6.96309 30.9231C8.8513 33.0456 11.4185 34.7935 14.4007 35.7543C14.8104 37.0395 15.967 38 17.3616 38H21.3808C23.1264 38 24.5021 36.4967 24.5021 34.7332C24.5021 32.9697 23.1264 31.4689 21.3808 31.4689H17.3616C15.9308 31.4689 14.7494 32.4773 14.3693 33.8121C12.0119 32.9409 9.95775 31.5067 8.42174 29.8163V17.9389C8.42174 16.1669 7.13623 14.7084 5.44525 14.2912V13.4872C5.44525 11.4988 6.33046 9.3103 7.87852 7.37604C8.00511 7.59105 8.15516 7.78756 8.32927 7.9502C9.09266 8.66374 10.3072 8.99995 11.3511 8.3972C11.3681 8.38662 11.3848 8.37549 11.401 8.36382C13.882 6.70374 16.4037 5.11589 19.413 5.11589C20.242 5.11589 21.0287 5.23504 21.7902 5.442C23.7927 5.98631 25.6294 7.16108 27.4267 8.36382C27.443 8.37549 27.4597 8.38662 27.4767 8.3972C28.5206 8.99995 29.7327 8.66122 30.4961 7.94769C30.6699 7.78513 30.8208 7.58881 30.9475 7.37415C32.4958 9.30884 33.3801 11.4982 33.3801 13.4872V14.2962C31.6986 14.7197 30.4224 16.1735 30.4224 17.9389V30.0839C30.4225 30.1956 30.4447 30.3062 30.4878 30.4092C30.5309 30.5123 30.594 30.6058 30.6735 30.6844C30.7529 30.7629 30.8471 30.825 30.9507 30.8669C31.0542 30.9089 31.165 30.9299 31.2768 30.9287L34.3912 30.8997C36.5105 30.8802 38.3436 29.3035 38.3436 27.1998V17.9388C38.3436 16.1104 36.9773 14.6131 35.2072 14.2521V13.4872C35.2072 10.1995 33.4005 6.85538 30.5553 4.30937C27.71 1.76336 23.7818 6.99882e-05 19.4127 6.99882e-05ZM19.4127 1.8277C23.288 1.8277 26.8028 3.40521 29.3372 5.6731C29.3688 5.70184 29.3994 5.7317 29.4311 5.76057C29.6334 6.14044 29.5151 6.36425 29.249 6.61301C28.9741 6.87007 28.613 6.94072 28.3928 6.81509C26.5932 5.61128 24.6148 4.31584 22.2703 3.67859C21.3946 3.44058 20.4661 3.29883 19.4908 3.29141C19.4649 3.28948 19.4389 3.28867 19.4129 3.28896C19.3824 3.28865 19.3519 3.28987 19.3215 3.2926C15.7437 3.3239 12.9066 5.16421 10.4376 6.81565C10.2178 6.94265 9.85409 6.87133 9.5784 6.61356C9.31218 6.36481 9.19403 6.141 9.39639 5.76113C9.42792 5.73226 9.45853 5.70228 9.49018 5.67366C12.0246 3.40577 15.5375 1.82827 19.4127 1.82827V1.8277ZM15.5566 15.4868V15.4874C15.1237 15.472 14.6841 15.5387 14.261 15.6926C12.9071 16.1854 12.0002 17.4784 12.0002 18.9191C11.9999 19.0394 12.0233 19.1585 12.069 19.2697C12.1148 19.3808 12.182 19.4819 12.2669 19.567C12.3518 19.6522 12.4527 19.7197 12.5637 19.7658C12.6748 19.8119 12.7938 19.8356 12.9141 19.8356C13.0343 19.8356 13.1533 19.8119 13.2644 19.7658C13.3754 19.7197 13.4763 19.6522 13.5612 19.567C13.6461 19.4819 13.7133 19.3808 13.7591 19.2697C13.8049 19.1585 13.8282 19.0394 13.8279 18.9191C13.8279 18.2403 14.2489 17.6404 14.8868 17.4082C15.5247 17.176 16.2302 17.3662 16.6666 17.886C17.1029 18.406 17.1678 19.1353 16.8284 19.7231C16.5656 20.1783 15.6048 20.7517 14.5777 21.3392C14.0641 21.6329 13.5418 21.9427 13.0925 22.3742C12.6432 22.8057 12.2502 23.4351 12.2502 24.1798C12.2502 24.2998 12.2738 24.4187 12.3197 24.5296C12.3656 24.6406 12.433 24.7414 12.5178 24.8262C12.6027 24.9111 12.7035 24.9785 12.8144 25.0244C12.9254 25.0703 13.0442 25.094 13.1643 25.0939H15.4294H17.6922C17.9345 25.0938 18.1668 24.9975 18.3381 24.8262C18.5094 24.6548 18.6056 24.4224 18.6056 24.1801C18.6056 23.9378 18.5094 23.7054 18.3381 23.5341C18.1668 23.3627 17.9345 23.2664 17.6922 23.2663H15.4294H14.9844C15.161 23.1504 15.2713 23.0475 15.4843 22.9257C16.4221 22.3893 17.6538 21.8695 18.3613 20.7159C18.3789 20.6905 18.3952 20.6643 18.4101 20.6373C18.426 20.6106 18.4379 20.5829 18.4527 20.556C18.4527 20.5558 18.4527 20.5556 18.4527 20.5554C19.1216 19.3211 18.9711 17.7906 18.0649 16.7106C17.6019 16.1588 16.9899 15.7805 16.3235 15.602C16.0737 15.535 15.8159 15.496 15.5561 15.4867L15.5566 15.4868ZM4.45989 15.8595C5.75981 15.8595 6.73018 16.8022 6.73018 17.9389V29.2296L4.46745 29.2081C3.13503 29.196 2.19034 28.3365 2.19034 27.1998V17.9389C2.19034 16.8022 3.1601 15.8595 4.45989 15.8595ZM34.3845 15.8595C35.6844 15.8595 36.654 16.8022 36.654 17.9389V27.1998C36.654 28.3365 35.7074 29.1959 34.375 29.2082L32.1142 29.2296V17.9389C32.1142 16.8022 33.0846 15.8595 34.3845 15.8595ZM20.619 15.8668C20.499 15.8686 20.3805 15.8941 20.2703 15.9417C20.1602 15.9894 20.0605 16.0583 19.977 16.1444C19.8934 16.2306 19.8277 16.3324 19.7835 16.444C19.7393 16.5556 19.7175 16.6747 19.7194 16.7948V22.0863C19.7193 22.3286 19.8155 22.5611 19.9868 22.7325C20.1581 22.9039 20.3905 23.0003 20.6328 23.0004H23.6906V24.1682C23.6903 24.2885 23.7136 24.4076 23.7594 24.5188C23.8052 24.6299 23.8724 24.731 23.9573 24.8161C24.0422 24.9013 24.1431 24.9688 24.2541 25.0149C24.3652 25.061 24.4842 25.0847 24.6045 25.0847C24.7247 25.0847 24.8437 25.061 24.9548 25.0149C25.0658 24.9688 25.1667 24.9013 25.2516 24.8161C25.3365 24.731 25.4037 24.6299 25.4495 24.5188C25.4953 24.4076 25.5186 24.2885 25.5183 24.1682V23.0004H25.9299C26.1723 23.0004 26.4047 22.9041 26.5761 22.7327C26.7475 22.5614 26.8437 22.3289 26.8437 22.0866C26.8437 21.8442 26.7475 21.6118 26.5761 21.4404C26.4047 21.269 26.1723 21.1728 25.9299 21.1728H25.5183V16.7948C25.5202 16.6724 25.4975 16.5508 25.4515 16.4374C25.4056 16.3239 25.3373 16.2209 25.2508 16.1343C25.1642 16.0478 25.0611 15.9795 24.9477 15.9335C24.8342 15.8876 24.7127 15.8649 24.5903 15.8668C24.4703 15.8686 24.3518 15.8941 24.2417 15.9417C24.1315 15.9893 24.0318 16.0582 23.9482 16.1444C23.8647 16.2306 23.7989 16.3323 23.7547 16.4439C23.7105 16.5555 23.6887 16.6747 23.6906 16.7948V21.1728H21.5469V16.7948C21.5488 16.6724 21.5261 16.5508 21.4802 16.4374C21.4342 16.3239 21.3659 16.2209 21.2794 16.1343C21.1928 16.0478 21.0898 15.9795 20.9763 15.9335C20.8629 15.8876 20.7414 15.8649 20.619 15.8668ZM17.3616 33.2963H21.3808C22.0818 33.2963 22.6752 33.8908 22.6752 34.7336C22.6752 35.5764 22.0818 36.1734 21.3808 36.1734H17.3616C16.6607 36.1734 16.0672 35.5764 16.0672 34.7336C16.0672 33.8908 16.6607 33.2963 17.3616 33.2963Z" fill="black"/>
<path d="M19.4127 6.99882e-05C15.0437 6.99882e-05 11.1172 1.76344 8.27203 4.30946C5.42672 6.85547 3.61758 10.1996 3.61758 13.4873V14.2566C1.8564 14.6246 0.498047 16.1172 0.498047 17.9389V27.1998C0.498047 29.3036 2.3336 30.8803 4.45307 30.8998L6.96309 30.9231C8.8513 33.0456 11.4185 34.7935 14.4007 35.7543C14.8104 37.0395 15.967 38 17.3616 38H21.3808C23.1264 38 24.5021 36.4967 24.5021 34.7332C24.5021 32.9697 23.1264 31.4689 21.3808 31.4689H17.3616C15.9308 31.4689 14.7494 32.4773 14.3693 33.8121C12.0119 32.9409 9.95775 31.5067 8.42174 29.8163V17.9389C8.42174 16.1669 7.13623 14.7084 5.44525 14.2912V13.4872C5.44525 11.4988 6.33046 9.3103 7.87852 7.37604C8.00511 7.59105 8.15516 7.78756 8.32927 7.9502C9.09266 8.66374 10.3072 8.99995 11.3511 8.3972C11.3681 8.38662 11.3848 8.37549 11.401 8.36382C13.882 6.70374 16.4037 5.11589 19.413 5.11589C20.242 5.11589 21.0287 5.23504 21.7902 5.442C23.7927 5.98631 25.6294 7.16108 27.4267 8.36382C27.443 8.37549 27.4597 8.38662 27.4767 8.3972C28.5206 8.99995 29.7327 8.66122 30.4961 7.94769C30.6699 7.78513 30.8208 7.58881 30.9475 7.37415C32.4958 9.30884 33.3801 11.4982 33.3801 13.4872V14.2962C31.6986 14.7197 30.4224 16.1735 30.4224 17.9389V30.0839C30.4225 30.1956 30.4447 30.3062 30.4878 30.4092C30.5309 30.5123 30.594 30.6058 30.6735 30.6844C30.7529 30.7629 30.8471 30.825 30.9507 30.8669C31.0542 30.9089 31.165 30.9299 31.2768 30.9287L34.3912 30.8997C36.5105 30.8802 38.3436 29.3035 38.3436 27.1998V17.9388C38.3436 16.1104 36.9773 14.6131 35.2072 14.2521V13.4872C35.2072 10.1995 33.4005 6.85538 30.5553 4.30937C27.71 1.76336 23.7818 6.99882e-05 19.4127 6.99882e-05ZM19.4127 1.8277C23.288 1.8277 26.8028 3.40521 29.3372 5.6731C29.3688 5.70184 29.3994 5.7317 29.4311 5.76057C29.6334 6.14044 29.5151 6.36425 29.249 6.61301C28.9741 6.87007 28.613 6.94072 28.3928 6.81509C26.5932 5.61128 24.6148 4.31584 22.2703 3.67859C21.3946 3.44058 20.4661 3.29883 19.4908 3.29141C19.4649 3.28948 19.4389 3.28867 19.4129 3.28896C19.3824 3.28865 19.3519 3.28987 19.3215 3.2926C15.7437 3.3239 12.9066 5.16421 10.4376 6.81565C10.2178 6.94265 9.85409 6.87133 9.5784 6.61356C9.31218 6.36481 9.19403 6.141 9.39639 5.76113C9.42792 5.73226 9.45853 5.70228 9.49018 5.67366C12.0246 3.40577 15.5375 1.82827 19.4127 1.82827V1.8277ZM15.5566 15.4868V15.4874C15.1237 15.472 14.6841 15.5387 14.261 15.6926C12.9071 16.1854 12.0002 17.4784 12.0002 18.9191C11.9999 19.0394 12.0233 19.1585 12.069 19.2697C12.1148 19.3808 12.182 19.4819 12.2669 19.567C12.3518 19.6522 12.4527 19.7197 12.5637 19.7658C12.6748 19.8119 12.7938 19.8356 12.9141 19.8356C13.0343 19.8356 13.1533 19.8119 13.2644 19.7658C13.3754 19.7197 13.4763 19.6522 13.5612 19.567C13.6461 19.4819 13.7133 19.3808 13.7591 19.2697C13.8049 19.1585 13.8282 19.0394 13.8279 18.9191C13.8279 18.2403 14.2489 17.6404 14.8868 17.4082C15.5247 17.176 16.2302 17.3662 16.6666 17.886C17.1029 18.406 17.1678 19.1353 16.8284 19.7231C16.5656 20.1783 15.6048 20.7517 14.5777 21.3392C14.0641 21.6329 13.5418 21.9427 13.0925 22.3742C12.6432 22.8057 12.2502 23.4351 12.2502 24.1798C12.2502 24.2998 12.2738 24.4187 12.3197 24.5296C12.3656 24.6406 12.433 24.7414 12.5178 24.8262C12.6027 24.9111 12.7035 24.9785 12.8144 25.0244C12.9254 25.0703 13.0442 25.094 13.1643 25.0939H15.4294H17.6922C17.9345 25.0938 18.1668 24.9975 18.3381 24.8262C18.5094 24.6548 18.6056 24.4224 18.6056 24.1801C18.6056 23.9378 18.5094 23.7054 18.3381 23.5341C18.1668 23.3627 17.9345 23.2664 17.6922 23.2663H15.4294H14.9844C15.161 23.1504 15.2713 23.0475 15.4843 22.9257C16.4221 22.3893 17.6538 21.8695 18.3613 20.7159C18.3789 20.6905 18.3952 20.6643 18.4101 20.6373C18.426 20.6106 18.4379 20.5829 18.4527 20.556C18.4527 20.5558 18.4527 20.5556 18.4527 20.5554C19.1216 19.3211 18.9711 17.7906 18.0649 16.7106C17.6019 16.1588 16.9899 15.7805 16.3235 15.602C16.0737 15.535 15.8159 15.496 15.5561 15.4867L15.5566 15.4868ZM4.45989 15.8595C5.75981 15.8595 6.73018 16.8022 6.73018 17.9389V29.2296L4.46745 29.2081C3.13503 29.196 2.19034 28.3365 2.19034 27.1998V17.9389C2.19034 16.8022 3.1601 15.8595 4.45989 15.8595ZM34.3845 15.8595C35.6844 15.8595 36.654 16.8022 36.654 17.9389V27.1998C36.654 28.3365 35.7074 29.1959 34.375 29.2082L32.1142 29.2296V17.9389C32.1142 16.8022 33.0846 15.8595 34.3845 15.8595ZM20.619 15.8668C20.499 15.8686 20.3805 15.8941 20.2703 15.9417C20.1602 15.9894 20.0605 16.0583 19.977 16.1444C19.8934 16.2306 19.8277 16.3324 19.7835 16.444C19.7393 16.5556 19.7175 16.6747 19.7194 16.7948V22.0863C19.7193 22.3286 19.8155 22.5611 19.9868 22.7325C20.1581 22.9039 20.3905 23.0003 20.6328 23.0004H23.6906V24.1682C23.6903 24.2885 23.7136 24.4076 23.7594 24.5188C23.8052 24.6299 23.8724 24.731 23.9573 24.8161C24.0422 24.9013 24.1431 24.9688 24.2541 25.0149C24.3652 25.061 24.4842 25.0847 24.6045 25.0847C24.7247 25.0847 24.8437 25.061 24.9548 25.0149C25.0658 24.9688 25.1667 24.9013 25.2516 24.8161C25.3365 24.731 25.4037 24.6299 25.4495 24.5188C25.4953 24.4076 25.5186 24.2885 25.5183 24.1682V23.0004H25.9299C26.1723 23.0004 26.4047 22.9041 26.5761 22.7327C26.7475 22.5614 26.8437 22.3289 26.8437 22.0866C26.8437 21.8442 26.7475 21.6118 26.5761 21.4404C26.4047 21.269 26.1723 21.1728 25.9299 21.1728H25.5183V16.7948C25.5202 16.6724 25.4975 16.5508 25.4515 16.4374C25.4056 16.3239 25.3373 16.2209 25.2508 16.1343C25.1642 16.0478 25.0611 15.9795 24.9477 15.9335C24.8342 15.8876 24.7127 15.8649 24.5903 15.8668C24.4703 15.8686 24.3518 15.8941 24.2417 15.9417C24.1315 15.9893 24.0318 16.0582 23.9482 16.1444C23.8647 16.2306 23.7989 16.3323 23.7547 16.4439C23.7105 16.5555 23.6887 16.6747 23.6906 16.7948V21.1728H21.5469V16.7948C21.5488 16.6724 21.5261 16.5508 21.4802 16.4374C21.4342 16.3239 21.3659 16.2209 21.2794 16.1343C21.1928 16.0478 21.0898 15.9795 20.9763 15.9335C20.8629 15.8876 20.7414 15.8649 20.619 15.8668ZM17.3616 33.2963H21.3808C22.0818 33.2963 22.6752 33.8908 22.6752 34.7336C22.6752 35.5764 22.0818 36.1734 21.3808 36.1734H17.3616C16.6607 36.1734 16.0672 35.5764 16.0672 34.7336C16.0672 33.8908 16.6607 33.2963 17.3616 33.2963Z" fill="url(#paint0_linear_332_880)"/>
<defs>
<linearGradient id="paint0_linear_332_880" x1="2.70693" y1="3.23485e-05" x2="66.3291" y2="1.61956" gradientUnits="userSpaceOnUse">
<stop stop-color="#11AE88"/>
<stop offset="1" stop-color="#2A84EE"/>
</linearGradient>
</defs>
</svg>
