<svg width="20" height="22" viewBox="0 0 20 22" fill="none" xmlns="http://www.w3.org/2000/svg">
<path d="M19.1613 6.74194C19.1613 6.16461 18.8799 5.65577 18.4516 5.33181V3.75632L14.6953 0H0.709677V5.33181C0.281387 5.65577 0 6.16461 0 6.74194C0 7.31926 0.281387 7.8281 0.709677 8.15206V22H18.4516V8.15206C18.8799 7.8281 19.1613 7.31926 19.1613 6.74194ZM14.9032 1.21142L17.2402 3.54839H14.9032V1.21142ZM1.41935 0.709677H14.1935V4.25806H17.7419V5.00358C17.6273 4.98016 17.5085 4.96774 17.3871 4.96774H16.6774C15.8208 4.96774 15.1041 5.57842 14.9391 6.3871H14.1577C13.9927 5.57842 13.2763 4.96774 12.4194 4.96774H11.7097C10.8531 4.96774 10.1363 5.57842 9.97132 6.3871H9.18997C9.02497 5.57842 8.30855 4.96774 7.45161 4.96774H6.74194C5.88535 4.96774 5.16858 5.57842 5.00358 6.3871H4.22223C4.05723 5.57842 3.34081 4.96774 2.48387 4.96774H1.77419C1.65284 4.96774 1.53397 4.98016 1.41935 5.00358V0.709677ZM13.4186 7.09677C13.2717 7.50874 12.8814 7.80645 12.4194 7.80645H11.7097C11.2477 7.80645 10.8574 7.50874 10.7105 7.09677H11.3548V6.3871H10.7105C10.8574 5.97513 11.2477 5.67742 11.7097 5.67742H12.4194C12.8814 5.67742 13.2717 5.97513 13.4186 6.3871H12.7742V7.09677H13.4186ZM8.45084 7.09677C8.30394 7.50874 7.91361 7.80645 7.45161 7.80645H6.74194C6.27994 7.80645 5.88961 7.50874 5.74271 7.09677H6.3871V6.3871H5.74271C5.88961 5.97513 6.27994 5.67742 6.74194 5.67742H7.45161C7.91361 5.67742 8.30394 5.97513 8.45084 6.3871H7.80645V7.09677H8.45084ZM1.77419 5.67742H2.48387C2.94587 5.67742 3.33619 5.97513 3.4831 6.3871H2.83871V7.09677H3.4831C3.33619 7.50874 2.94587 7.80645 2.48387 7.80645H1.77419C1.18729 7.80645 0.709677 7.32884 0.709677 6.74194C0.709677 6.15503 1.18729 5.67742 1.77419 5.67742ZM17.7419 21.2903H1.41935V8.48029C1.53397 8.50371 1.65284 8.51613 1.77419 8.51613H2.48387C3.34045 8.51613 4.05723 7.90545 4.22223 7.09677H5.00358C5.16858 7.90545 5.885 8.51613 6.74194 8.51613H7.45161C8.30819 8.51613 9.02497 7.90545 9.18997 7.09677H9.97132C10.1363 7.90545 10.8527 8.51613 11.7097 8.51613H12.4194C13.2759 8.51613 13.9927 7.90545 14.1577 7.09677H14.9391C15.1041 7.90545 15.8205 8.51613 16.6774 8.51613H17.3871C17.5085 8.51613 17.6273 8.50371 17.7419 8.48029V21.2903ZM17.3871 7.80645H16.6774C16.2154 7.80645 15.8251 7.50874 15.6782 7.09677H16.3226V6.3871H15.6782C15.8251 5.97513 16.2154 5.67742 16.6774 5.67742H17.3871C17.974 5.67742 18.4516 6.15503 18.4516 6.74194C18.4516 7.32884 17.974 7.80645 17.3871 7.80645Z" fill="black"/>
<path d="M19.1613 6.74194C19.1613 6.16461 18.8799 5.65577 18.4516 5.33181V3.75632L14.6953 0H0.709677V5.33181C0.281387 5.65577 0 6.16461 0 6.74194C0 7.31926 0.281387 7.8281 0.709677 8.15206V22H18.4516V8.15206C18.8799 7.8281 19.1613 7.31926 19.1613 6.74194ZM14.9032 1.21142L17.2402 3.54839H14.9032V1.21142ZM1.41935 0.709677H14.1935V4.25806H17.7419V5.00358C17.6273 4.98016 17.5085 4.96774 17.3871 4.96774H16.6774C15.8208 4.96774 15.1041 5.57842 14.9391 6.3871H14.1577C13.9927 5.57842 13.2763 4.96774 12.4194 4.96774H11.7097C10.8531 4.96774 10.1363 5.57842 9.97132 6.3871H9.18997C9.02497 5.57842 8.30855 4.96774 7.45161 4.96774H6.74194C5.88535 4.96774 5.16858 5.57842 5.00358 6.3871H4.22223C4.05723 5.57842 3.34081 4.96774 2.48387 4.96774H1.77419C1.65284 4.96774 1.53397 4.98016 1.41935 5.00358V0.709677ZM13.4186 7.09677C13.2717 7.50874 12.8814 7.80645 12.4194 7.80645H11.7097C11.2477 7.80645 10.8574 7.50874 10.7105 7.09677H11.3548V6.3871H10.7105C10.8574 5.97513 11.2477 5.67742 11.7097 5.67742H12.4194C12.8814 5.67742 13.2717 5.97513 13.4186 6.3871H12.7742V7.09677H13.4186ZM8.45084 7.09677C8.30394 7.50874 7.91361 7.80645 7.45161 7.80645H6.74194C6.27994 7.80645 5.88961 7.50874 5.74271 7.09677H6.3871V6.3871H5.74271C5.88961 5.97513 6.27994 5.67742 6.74194 5.67742H7.45161C7.91361 5.67742 8.30394 5.97513 8.45084 6.3871H7.80645V7.09677H8.45084ZM1.77419 5.67742H2.48387C2.94587 5.67742 3.33619 5.97513 3.4831 6.3871H2.83871V7.09677H3.4831C3.33619 7.50874 2.94587 7.80645 2.48387 7.80645H1.77419C1.18729 7.80645 0.709677 7.32884 0.709677 6.74194C0.709677 6.15503 1.18729 5.67742 1.77419 5.67742ZM17.7419 21.2903H1.41935V8.48029C1.53397 8.50371 1.65284 8.51613 1.77419 8.51613H2.48387C3.34045 8.51613 4.05723 7.90545 4.22223 7.09677H5.00358C5.16858 7.90545 5.885 8.51613 6.74194 8.51613H7.45161C8.30819 8.51613 9.02497 7.90545 9.18997 7.09677H9.97132C10.1363 7.90545 10.8527 8.51613 11.7097 8.51613H12.4194C13.2759 8.51613 13.9927 7.90545 14.1577 7.09677H14.9391C15.1041 7.90545 15.8205 8.51613 16.6774 8.51613H17.3871C17.5085 8.51613 17.6273 8.50371 17.7419 8.48029V21.2903ZM17.3871 7.80645H16.6774C16.2154 7.80645 15.8251 7.50874 15.6782 7.09677H16.3226V6.3871H15.6782C15.8251 5.97513 16.2154 5.67742 16.6774 5.67742H17.3871C17.974 5.67742 18.4516 6.15503 18.4516 6.74194C18.4516 7.32884 17.974 7.80645 17.3871 7.80645Z" fill="url(#paint0_linear_332_1196)"/>
<path d="M12.7738 13.5491V12.4193C12.7738 10.6585 11.3409 9.22571 9.58023 9.22571C7.81952 9.22571 6.38668 10.6585 6.38668 12.4193V13.5491C5.97471 13.696 5.677 14.0863 5.677 14.5483V19.516C5.677 20.1029 6.15461 20.5805 6.74152 20.5805H12.4189C13.0058 20.5805 13.4835 20.1029 13.4835 19.516V14.5483C13.4835 14.0863 13.1857 13.696 12.7738 13.5491ZM9.58023 9.93539C10.9499 9.93539 12.0641 11.0496 12.0641 12.4193V13.4838H7.09636V12.4193C7.09636 11.0496 8.21055 9.93539 9.58023 9.93539ZM12.7738 19.516C12.7738 19.7115 12.6145 19.8709 12.4189 19.8709H6.74152C6.546 19.8709 6.38668 19.7115 6.38668 19.516V14.5483C6.38668 14.3528 6.546 14.1934 6.74152 14.1934H12.4189C12.6145 14.1934 12.7738 14.3528 12.7738 14.5483V19.516Z" fill="black"/>
<path d="M12.7738 13.5491V12.4193C12.7738 10.6585 11.3409 9.22571 9.58023 9.22571C7.81952 9.22571 6.38668 10.6585 6.38668 12.4193V13.5491C5.97471 13.696 5.677 14.0863 5.677 14.5483V19.516C5.677 20.1029 6.15461 20.5805 6.74152 20.5805H12.4189C13.0058 20.5805 13.4835 20.1029 13.4835 19.516V14.5483C13.4835 14.0863 13.1857 13.696 12.7738 13.5491ZM9.58023 9.93539C10.9499 9.93539 12.0641 11.0496 12.0641 12.4193V13.4838H7.09636V12.4193C7.09636 11.0496 8.21055 9.93539 9.58023 9.93539ZM12.7738 19.516C12.7738 19.7115 12.6145 19.8709 12.4189 19.8709H6.74152C6.546 19.8709 6.38668 19.7115 6.38668 19.516V14.5483C6.38668 14.3528 6.546 14.1934 6.74152 14.1934H12.4189C12.6145 14.1934 12.7738 14.3528 12.7738 14.5483V19.516Z" fill="url(#paint1_linear_332_1196)"/>
<path d="M9.58063 14.9033C8.99373 14.9033 8.51611 15.3809 8.51611 15.9678C8.51611 16.4298 8.81382 16.8202 9.22579 16.9671V19.1614H9.93547V16.9671C10.3474 16.8202 10.6451 16.4298 10.6451 15.9678C10.6451 15.3809 10.1675 14.9033 9.58063 14.9033ZM9.58063 16.3227C9.38511 16.3227 9.22579 16.1634 9.22579 15.9678C9.22579 15.7723 9.38511 15.613 9.58063 15.613C9.77615 15.613 9.93547 15.7723 9.93547 15.9678C9.93547 16.1634 9.77615 16.3227 9.58063 16.3227Z" fill="black"/>
<path d="M9.58063 14.9033C8.99373 14.9033 8.51611 15.3809 8.51611 15.9678C8.51611 16.4298 8.81382 16.8202 9.22579 16.9671V19.1614H9.93547V16.9671C10.3474 16.8202 10.6451 16.4298 10.6451 15.9678C10.6451 15.3809 10.1675 14.9033 9.58063 14.9033ZM9.58063 16.3227C9.38511 16.3227 9.22579 16.1634 9.22579 15.9678C9.22579 15.7723 9.38511 15.613 9.58063 15.613C9.77615 15.613 9.93547 15.7723 9.93547 15.9678C9.93547 16.1634 9.77615 16.3227 9.58063 16.3227Z" fill="url(#paint2_linear_332_1196)"/>
<path d="M13.484 1.41943H2.12915V2.12911H13.484V1.41943Z" fill="black"/>
<path d="M13.484 1.41943H2.12915V2.12911H13.484V1.41943Z" fill="url(#paint3_linear_332_1196)"/>
<path d="M12.0646 2.83862H2.12915V3.5483H12.0646V2.83862Z" fill="black"/>
<path d="M12.0646 2.83862H2.12915V3.5483H12.0646V2.83862Z" fill="url(#paint4_linear_332_1196)"/>
<path d="M13.4841 2.83862H12.7744V3.5483H13.4841V2.83862Z" fill="black"/>
<path d="M13.4841 2.83862H12.7744V3.5483H13.4841V2.83862Z" fill="url(#paint5_linear_332_1196)"/>
<defs>
<linearGradient id="paint0_linear_332_1196" x1="1.11836" y1="1.87281e-05" x2="33.3353" y2="0.717208" gradientUnits="userSpaceOnUse">
<stop stop-color="#11AE88"/>
<stop offset="1" stop-color="#2A84EE"/>
</linearGradient>
<linearGradient id="paint1_linear_332_1196" x1="6.13263" y1="9.22572" x2="19.2605" y2="9.4564" gradientUnits="userSpaceOnUse">
<stop stop-color="#11AE88"/>
<stop offset="1" stop-color="#2A84EE"/>
</linearGradient>
<linearGradient id="paint2_linear_332_1196" x1="8.64038" y1="14.9033" x2="12.2212" y2="14.9491" gradientUnits="userSpaceOnUse">
<stop stop-color="#11AE88"/>
<stop offset="1" stop-color="#2A84EE"/>
</linearGradient>
<linearGradient id="paint3_linear_332_1196" x1="2.79188" y1="1.41943" x2="19.1561" y2="8.11155" gradientUnits="userSpaceOnUse">
<stop stop-color="#11AE88"/>
<stop offset="1" stop-color="#2A84EE"/>
</linearGradient>
<linearGradient id="paint4_linear_332_1196" x1="2.70904" y1="2.83862" x2="17.5253" y2="8.14031" gradientUnits="userSpaceOnUse">
<stop stop-color="#11AE88"/>
<stop offset="1" stop-color="#2A84EE"/>
</linearGradient>
<linearGradient id="paint5_linear_332_1196" x1="12.8158" y1="2.83862" x2="14.0089" y2="2.86912" gradientUnits="userSpaceOnUse">
<stop stop-color="#11AE88"/>
<stop offset="1" stop-color="#2A84EE"/>
</linearGradient>
</defs>
</svg>
