<svg width="35" height="35" viewBox="0 0 35 35" fill="none" xmlns="http://www.w3.org/2000/svg">
<path d="M0.156738 7.54646C0.156738 7.84899 0.401843 8.09417 0.704404 8.09417C1.00685 8.09417 1.25207 7.84899 1.25207 7.54646V1.09531H7.70311C8.00569 1.09531 8.25077 0.8502 8.25077 0.54767C8.25077 0.245139 8.00569 0 7.70311 0H0.704404C0.401843 0 0.156738 0.245139 0.156738 0.54767V7.54646Z" fill="black"/>
<path d="M0.156738 7.54646C0.156738 7.84899 0.401843 8.09417 0.704404 8.09417C1.00685 8.09417 1.25207 7.84899 1.25207 7.54646V1.09531H7.70311C8.00569 1.09531 8.25077 0.8502 8.25077 0.54767C8.25077 0.245139 8.00569 0 7.70311 0H0.704404C0.401843 0 0.156738 0.245139 0.156738 0.54767V7.54646Z" fill="url(#paint0_linear_332_820)"/>
<path d="M33.7494 7.54646C33.7494 7.84899 33.9945 8.09417 34.2971 8.09417C34.5996 8.09417 34.8446 7.84899 34.8446 7.54646V0.54767C34.8446 0.245139 34.5996 0 34.2971 0H27.2983C26.9957 0 26.7506 0.245139 26.7506 0.54767C26.7506 0.8502 26.9957 1.09531 27.2983 1.09531H33.7494V7.54646Z" fill="black"/>
<path d="M33.7494 7.54646C33.7494 7.84899 33.9945 8.09417 34.2971 8.09417C34.5996 8.09417 34.8446 7.84899 34.8446 7.54646V0.54767C34.8446 0.245139 34.5996 0 34.2971 0H27.2983C26.9957 0 26.7506 0.245139 26.7506 0.54767C26.7506 0.8502 26.9957 1.09531 27.2983 1.09531H33.7494V7.54646Z" fill="url(#paint1_linear_332_820)"/>
<path d="M7.70311 34.6891H0.704404C0.401843 34.6891 0.156738 34.4439 0.156738 34.1414V27.1426C0.156738 26.8401 0.401843 26.595 0.704404 26.595C1.00685 26.595 1.25207 26.8401 1.25207 27.1426V33.5938H7.70311C8.00569 33.5938 8.25077 33.8389 8.25077 34.1414C8.25077 34.4439 8.00451 34.6891 7.70311 34.6891Z" fill="black"/>
<path d="M7.70311 34.6891H0.704404C0.401843 34.6891 0.156738 34.4439 0.156738 34.1414V27.1426C0.156738 26.8401 0.401843 26.595 0.704404 26.595C1.00685 26.595 1.25207 26.8401 1.25207 27.1426V33.5938H7.70311C8.00569 33.5938 8.25077 33.8389 8.25077 34.1414C8.25077 34.4439 8.00451 34.6891 7.70311 34.6891Z" fill="url(#paint2_linear_332_820)"/>
<path d="M27.2983 34.6891H34.2971C34.5996 34.6891 34.8446 34.4439 34.8446 34.1414V27.1426C34.8446 26.8401 34.5996 26.595 34.2971 26.595C33.9945 26.595 33.7494 26.8401 33.7494 27.1426V33.5938H27.2983C26.9957 33.5938 26.7506 33.8389 26.7506 34.1414C26.7506 34.4439 26.9957 34.6891 27.2983 34.6891Z" fill="black"/>
<path d="M27.2983 34.6891H34.2971C34.5996 34.6891 34.8446 34.4439 34.8446 34.1414V27.1426C34.8446 26.8401 34.5996 26.595 34.2971 26.595C33.9945 26.595 33.7494 26.8401 33.7494 27.1426V33.5938H27.2983C26.9957 33.5938 26.7506 33.8389 26.7506 34.1414C26.7506 34.4439 26.9957 34.6891 27.2983 34.6891Z" fill="url(#paint3_linear_332_820)"/>
<path d="M6.04335 15.9994C6.01101 15.9994 5.97877 15.997 5.94644 15.991C5.64877 15.9384 5.45027 15.6538 5.50282 15.3561C5.95252 12.8246 7.17209 10.5371 9.03033 8.73987C10.8933 6.93908 13.2275 5.79594 15.7804 5.43601C16.0794 5.39533 16.3568 5.60222 16.3986 5.90116C16.4406 6.2001 16.2324 6.47752 15.9335 6.51935C11.1792 7.19139 7.42081 10.8193 6.58029 15.5462C6.53483 15.8128 6.30401 15.9994 6.04335 15.9994Z" fill="black"/>
<path d="M6.04335 15.9994C6.01101 15.9994 5.97877 15.997 5.94644 15.991C5.64877 15.9384 5.45027 15.6538 5.50282 15.3561C5.95252 12.8246 7.17209 10.5371 9.03033 8.73987C10.8933 6.93908 13.2275 5.79594 15.7804 5.43601C16.0794 5.39533 16.3568 5.60222 16.3986 5.90116C16.4406 6.2001 16.2324 6.47752 15.9335 6.51935C11.1792 7.19139 7.42081 10.8193 6.58029 15.5462C6.53483 15.8128 6.30401 15.9994 6.04335 15.9994Z" fill="url(#paint4_linear_332_820)"/>
<path d="M15.9347 29.5857C15.9586 29.5893 15.9825 29.5905 16.0052 29.5905C16.2767 29.5905 16.5123 29.3895 16.5481 29.1122C16.5864 28.812 16.3747 28.537 16.0746 28.4987C11.3214 27.8889 7.41849 24.1677 6.58143 19.4504C6.52879 19.1526 6.2442 18.9541 5.94644 19.0067C5.64877 19.0594 5.45027 19.344 5.50282 19.6417C5.95602 22.1994 7.19484 24.5061 9.08296 26.3105C10.977 28.1208 13.3471 29.2533 15.9347 29.5857Z" fill="black"/>
<path d="M15.9347 29.5857C15.9586 29.5893 15.9825 29.5905 16.0052 29.5905C16.2767 29.5905 16.5123 29.3895 16.5481 29.1122C16.5864 28.812 16.3747 28.537 16.0746 28.4987C11.3214 27.8889 7.41849 24.1677 6.58143 19.4504C6.52879 19.1526 6.2442 18.9541 5.94644 19.0067C5.64877 19.0594 5.45027 19.344 5.50282 19.6417C5.95602 22.1994 7.19484 24.5061 9.08296 26.3105C10.977 28.1208 13.3471 29.2533 15.9347 29.5857Z" fill="url(#paint5_linear_332_820)"/>
<path d="M19.3067 29.546C19.0413 29.546 18.8081 29.3523 18.7663 29.0821C18.7196 28.7831 18.9241 28.5033 19.223 28.4566C23.9546 27.7189 27.6592 24.0491 28.4412 19.3246C28.4903 19.0257 28.7736 18.8248 29.0713 18.8738C29.3703 18.9229 29.5711 19.2051 29.5222 19.504C28.6624 24.696 24.592 28.7281 19.3916 29.5388C19.3629 29.5436 19.3343 29.546 19.3067 29.546Z" fill="black"/>
<path d="M19.3067 29.546C19.0413 29.546 18.8081 29.3523 18.7663 29.0821C18.7196 28.7831 18.9241 28.5033 19.223 28.4566C23.9546 27.7189 27.6592 24.0491 28.4412 19.3246C28.4903 19.0257 28.7736 18.8248 29.0713 18.8738C29.3703 18.9229 29.5711 19.2051 29.5222 19.504C28.6624 24.696 24.592 28.7281 19.3916 29.5388C19.3629 29.5436 19.3343 29.546 19.3067 29.546Z" fill="url(#paint6_linear_332_820)"/>
<path d="M28.4065 15.4755C28.4555 15.7398 28.6851 15.924 28.9446 15.924C28.9769 15.924 29.0103 15.9215 29.045 15.9131C29.3416 15.8593 29.5389 15.5736 29.4839 15.2758C28.55 10.213 24.5059 6.27054 19.4216 5.46458C19.1214 5.41676 18.8416 5.62121 18.795 5.92015C18.7484 6.21909 18.9517 6.49892 19.2506 6.54673C23.877 7.27976 27.5564 10.8683 28.4065 15.4755Z" fill="black"/>
<path d="M28.4065 15.4755C28.4555 15.7398 28.6851 15.924 28.9446 15.924C28.9769 15.924 29.0103 15.9215 29.045 15.9131C29.3416 15.8593 29.5389 15.5736 29.4839 15.2758C28.55 10.213 24.5059 6.27054 19.4216 5.46458C19.1214 5.41676 18.8416 5.62121 18.795 5.92015C18.7484 6.21909 18.9517 6.49892 19.2506 6.54673C23.877 7.27976 27.5564 10.8683 28.4065 15.4755Z" fill="url(#paint7_linear_332_820)"/>
<path d="M16.3385 20.3298C16.3868 20.3436 16.4373 20.3506 16.4883 20.3506C16.5015 20.3506 16.5147 20.3506 16.5278 20.3494C16.6772 20.3387 16.816 20.2657 16.9116 20.1497L20.6759 15.5436C20.8672 15.3105 20.8325 14.9649 20.5981 14.7736C20.3638 14.5822 20.0194 14.6169 19.8281 14.8513L16.4298 19.009L14.9972 17.6996C14.7736 17.4951 14.428 17.5107 14.2236 17.7343C14.0191 17.9579 14.0346 18.3035 14.2583 18.508L16.1188 20.2071C16.1825 20.2654 16.2577 20.307 16.3385 20.3298Z" fill="black"/>
<path d="M16.3385 20.3298C16.3868 20.3436 16.4373 20.3506 16.4883 20.3506C16.5015 20.3506 16.5147 20.3506 16.5278 20.3494C16.6772 20.3387 16.816 20.2657 16.9116 20.1497L20.6759 15.5436C20.8672 15.3105 20.8325 14.9649 20.5981 14.7736C20.3638 14.5822 20.0194 14.6169 19.8281 14.8513L16.4298 19.009L14.9972 17.6996C14.7736 17.4951 14.428 17.5107 14.2236 17.7343C14.0191 17.9579 14.0346 18.3035 14.2583 18.508L16.1188 20.2071C16.1825 20.2654 16.2577 20.307 16.3385 20.3298Z" fill="url(#paint8_linear_332_820)"/>
<path fill-rule="evenodd" clip-rule="evenodd" d="M24.7726 18.0477C24.5057 21.6339 21.6338 24.5063 18.0476 24.7738V34.4523C18.0476 34.7549 17.8025 35 17.5 35C17.1974 35 16.9523 34.7549 16.9523 34.4523V24.7738C13.3662 24.5063 10.4942 21.6339 10.2273 18.0477H0.54767C0.245109 18.0477 0 17.8025 0 17.5C0 17.1975 0.245109 16.9523 0.54767 16.9523H10.2274C10.4954 13.3672 13.367 10.496 16.9523 10.2285V0.54767C16.9523 0.245139 17.1974 0 17.5 0C17.8025 0 18.0476 0.245139 18.0476 0.54767V10.2285C21.6329 10.496 24.5045 13.3672 24.7725 16.9523H34.4523C34.7548 16.9523 34.9999 17.1975 34.9999 17.5C34.9999 17.8025 34.7548 18.0477 34.4523 18.0477H24.7726ZM17.5 23.6977C14.0824 23.6977 11.3023 20.9175 11.3023 17.5C11.3023 14.0843 14.0794 11.3053 17.4945 11.3023H17.5054C20.9205 11.3053 23.6976 14.0843 23.6976 17.5C23.6976 20.9175 20.9175 23.6977 17.5 23.6977Z" fill="black"/>
<path fill-rule="evenodd" clip-rule="evenodd" d="M24.7726 18.0477C24.5057 21.6339 21.6338 24.5063 18.0476 24.7738V34.4523C18.0476 34.7549 17.8025 35 17.5 35C17.1974 35 16.9523 34.7549 16.9523 34.4523V24.7738C13.3662 24.5063 10.4942 21.6339 10.2273 18.0477H0.54767C0.245109 18.0477 0 17.8025 0 17.5C0 17.1975 0.245109 16.9523 0.54767 16.9523H10.2274C10.4954 13.3672 13.367 10.496 16.9523 10.2285V0.54767C16.9523 0.245139 17.1974 0 17.5 0C17.8025 0 18.0476 0.245139 18.0476 0.54767V10.2285C21.6329 10.496 24.5045 13.3672 24.7725 16.9523H34.4523C34.7548 16.9523 34.9999 17.1975 34.9999 17.5C34.9999 17.8025 34.7548 18.0477 34.4523 18.0477H24.7726ZM17.5 23.6977C14.0824 23.6977 11.3023 20.9175 11.3023 17.5C11.3023 14.0843 14.0794 11.3053 17.4945 11.3023H17.5054C20.9205 11.3053 23.6976 14.0843 23.6976 17.5C23.6976 20.9175 20.9175 23.6977 17.5 23.6977Z" fill="url(#paint9_linear_332_820)"/>
<defs>
<linearGradient id="paint0_linear_332_820" x1="0.629153" y1="6.89036e-06" x2="14.236" y2="0.347781" gradientUnits="userSpaceOnUse">
<stop stop-color="#11AE88"/>
<stop offset="1" stop-color="#2A84EE"/>
</linearGradient>
<linearGradient id="paint1_linear_332_820" x1="27.223" y1="6.89036e-06" x2="40.8298" y2="0.34778" gradientUnits="userSpaceOnUse">
<stop stop-color="#11AE88"/>
<stop offset="1" stop-color="#2A84EE"/>
</linearGradient>
<linearGradient id="paint2_linear_332_820" x1="0.629153" y1="26.595" x2="14.236" y2="26.9428" gradientUnits="userSpaceOnUse">
<stop stop-color="#11AE88"/>
<stop offset="1" stop-color="#2A84EE"/>
</linearGradient>
<linearGradient id="paint3_linear_332_820" x1="27.223" y1="26.595" x2="40.8298" y2="26.9428" gradientUnits="userSpaceOnUse">
<stop stop-color="#11AE88"/>
<stop offset="1" stop-color="#2A84EE"/>
</linearGradient>
<linearGradient id="paint4_linear_332_820" x1="6.13113" y1="5.43092" x2="24.4703" y2="5.91478" gradientUnits="userSpaceOnUse">
<stop stop-color="#11AE88"/>
<stop offset="1" stop-color="#2A84EE"/>
</linearGradient>
<linearGradient id="paint5_linear_332_820" x1="6.1398" y1="18.9983" x2="24.7285" y2="19.4943" gradientUnits="userSpaceOnUse">
<stop stop-color="#11AE88"/>
<stop offset="1" stop-color="#2A84EE"/>
</linearGradient>
<linearGradient id="paint6_linear_332_820" x1="19.3882" y1="18.8665" x2="37.4932" y2="19.3331" gradientUnits="userSpaceOnUse">
<stop stop-color="#11AE88"/>
<stop offset="1" stop-color="#2A84EE"/>
</linearGradient>
<linearGradient id="paint7_linear_332_820" x1="19.4131" y1="5.45765" x2="37.4083" y2="5.92808" gradientUnits="userSpaceOnUse">
<stop stop-color="#11AE88"/>
<stop offset="1" stop-color="#2A84EE"/>
</linearGradient>
<linearGradient id="paint8_linear_332_820" x1="14.472" y1="14.65" x2="25.7654" y2="14.9903" gradientUnits="userSpaceOnUse">
<stop stop-color="#11AE88"/>
<stop offset="1" stop-color="#2A84EE"/>
</linearGradient>
<linearGradient id="paint9_linear_332_820" x1="2.0428" y1="2.97946e-05" x2="60.8808" y2="1.50388" gradientUnits="userSpaceOnUse">
<stop stop-color="#11AE88"/>
<stop offset="1" stop-color="#2A84EE"/>
</linearGradient>
</defs>
</svg>
