<svg width="34" height="45" viewBox="0 0 34 45" fill="none" xmlns="http://www.w3.org/2000/svg">
<path d="M33.9356 27.6139C33.7681 27.0991 33.2892 26.756 32.7481 26.756H32.7338L31.0291 26.7798C30.9908 26.7798 30.9572 26.7608 30.9381 26.7131L30.4018 25.0879C30.2342 24.5732 29.7601 24.23 29.219 24.23H29.2047C29.0754 24.23 28.9509 24.2539 28.836 24.292C27.2271 20.9082 23.8225 18.6825 20.1402 18.6825H19.5512C22.7116 17.0192 24.8711 13.7164 24.8711 9.91792C24.8664 4.44662 20.3987 0 14.9016 0C9.40449 0 4.94167 4.44662 4.94167 9.91792C4.94167 13.7164 7.10125 17.0192 10.2616 18.6825H9.66785C4.33832 18.6825 0 23.1434 0 28.6242V34.3863C0 35.368 0.756573 36.164 1.69032 36.164H4.59211V36.9313C4.59211 37.608 5.14278 38.1561 5.82274 38.1561H5.99512V39.6383C5.99512 39.8433 6.10526 40.0339 6.28243 40.134L14.6191 44.9237C14.6191 44.9237 14.6478 44.9333 14.6622 44.9428C14.6766 44.9523 14.6957 44.9571 14.7101 44.9619C14.7723 44.9857 14.8394 45 14.9064 45C14.9734 45 15.0405 44.9857 15.1027 44.9619C15.1171 44.9571 15.1362 44.9476 15.1506 44.9428C15.165 44.938 15.1793 44.9333 15.1937 44.9237L23.5352 40.134C23.7123 40.0291 23.8225 39.8433 23.8225 39.6383V38.1561H23.923C24.603 38.1561 25.1537 37.608 25.1537 36.9313V36.164H28.1273C29.0562 36.164 29.8128 35.368 29.8128 34.3863V32.5514L30.6987 33.19C31.144 33.5093 31.7378 33.5046 32.1783 33.1757C32.614 32.8516 32.7912 32.2892 32.6188 31.7745L32.0777 30.1541C32.0682 30.1255 32.0586 30.0731 32.1113 30.0302L33.4855 29.0103C33.9261 28.691 34.108 28.1238 33.9356 27.6091V27.6139ZM6.09568 9.91315C6.09568 5.08049 10.0461 1.14859 14.9016 1.14859C19.7571 1.14859 23.7123 5.08049 23.7123 9.91315C23.7123 14.7458 19.7667 18.673 14.9112 18.6777H14.892C10.0414 18.673 6.09568 14.7411 6.09568 9.91315ZM5.74134 36.936V34.248C5.74134 34.2099 5.77964 34.1718 5.81795 34.1718H7.27364C7.31673 34.1718 7.35025 34.2051 7.35025 34.248V36.936C7.35025 36.9789 7.31673 37.0123 7.27364 37.0123H5.81795C5.77964 37.0123 5.74134 36.9742 5.74134 36.936ZM19.0723 31.7936L11.8897 27.6663L14.9016 25.9362L22.0843 30.0635L19.0676 31.7936H19.0723ZM10.7357 28.3287L17.9183 32.456L14.9064 34.1861L7.72854 30.0588L10.7405 28.3287H10.7357ZM7.14914 38.1609H7.27842C7.95838 38.1609 8.50905 37.6128 8.50905 36.936V34.248C8.50905 33.5713 7.95838 33.0232 7.27842 33.0232H7.14914V31.0596L14.327 35.1869V43.4415L7.14914 39.3142V38.1656V38.1609ZM22.6685 39.3095L15.4858 43.4368V35.1822L18.4977 33.4521V35.3776C18.4977 35.6969 18.7563 35.9542 19.0771 35.9542C19.398 35.9542 19.6565 35.6969 19.6565 35.3776V32.7897L22.6732 31.0596V33.0232H22.4721C21.7922 33.0232 21.2415 33.5713 21.2415 34.248V36.936C21.2415 37.6128 21.7922 38.1609 22.4721 38.1609H22.6732V39.3095H22.6685ZM23.9996 36.936C23.9996 36.9742 23.9613 37.0123 23.923 37.0123H22.4673C22.4242 37.0123 22.3907 36.9789 22.3907 36.936V34.248C22.3907 34.2051 22.4242 34.1718 22.4673 34.1718H23.923C23.9613 34.1718 23.9996 34.2099 23.9996 34.248V36.936ZM28.1273 35.0154H25.1537V34.248C25.1537 33.5713 24.603 33.0232 23.923 33.0232H23.8225V30.0635C23.8225 30.0635 23.8177 30.035 23.8177 30.0207C23.8177 30.0016 23.8177 29.9873 23.8129 29.9682C23.8033 29.9015 23.7842 29.8395 23.7506 29.7776C23.7171 29.7204 23.6692 29.6727 23.6166 29.6298C23.6022 29.6203 23.5878 29.606 23.5735 29.5965C23.5591 29.587 23.5495 29.5774 23.5352 29.5679L15.1937 24.7781C15.0165 24.6733 14.7963 24.6733 14.6143 24.7781L6.27764 29.5679C6.27764 29.5679 6.2537 29.587 6.24412 29.5965C6.22976 29.606 6.21539 29.6155 6.20103 29.6298C6.14835 29.6727 6.10526 29.7204 6.07174 29.7776C6.03822 29.8348 6.01906 29.9015 6.00949 29.9635C6.00949 29.9825 6.0047 29.9968 6.0047 30.0159C6.0047 30.0302 5.99991 30.0445 5.99991 30.0588V33.0184H5.82753C5.14757 33.0184 4.5969 33.5665 4.5969 34.2433V35.0106H1.69511C1.4078 35.0106 1.16359 34.7199 1.16359 34.3815V28.6195C1.16359 23.7725 4.98476 19.8263 9.67743 19.8263H14.9064C14.9064 19.8263 14.9112 19.8263 14.916 19.8263C14.9208 19.8263 14.9208 19.8263 14.9256 19.8263H20.1545C23.5495 19.8263 26.6764 21.99 27.998 25.2261L27.5191 26.7417C27.5096 26.775 27.4856 26.8132 27.4282 26.8132L25.7187 26.8275C25.1728 26.8322 24.6988 27.1849 24.5359 27.7092C24.3779 28.2239 24.5599 28.7863 25.0004 29.1008L26.3939 30.0921C26.4322 30.1207 26.4465 30.1589 26.4322 30.2065L25.9102 31.8412C25.7378 32.3607 25.9246 32.9279 26.3699 33.2377C26.5902 33.3949 26.844 33.476 27.0978 33.476C27.3515 33.476 27.6245 33.3902 27.8495 33.2234L28.6732 32.6086V34.3863C28.6732 34.7294 28.4289 35.0154 28.1416 35.0154H28.1273ZM32.8008 28.0857L31.4217 29.1056C30.986 29.4297 30.8088 29.9921 30.9812 30.5068L31.5223 32.1272C31.5319 32.1606 31.5366 32.213 31.484 32.2463C31.4457 32.2749 31.4121 32.2749 31.3738 32.2463L29.9852 31.2503C29.7601 31.0882 29.4968 31.012 29.2334 31.0167C29.2334 31.0167 29.2334 31.0167 29.2286 31.0167C29.2238 31.0167 29.219 31.0167 29.2143 31.0167C28.9653 31.0263 28.7163 31.1073 28.5056 31.2646L27.1313 32.2892C27.0978 32.3178 27.0595 32.3178 27.0211 32.2892C26.9828 32.2606 26.9733 32.2273 26.9876 32.1749L27.5096 30.5354C27.6724 30.0159 27.4856 29.4535 27.0403 29.1437L25.6517 28.1572C25.599 28.119 25.6086 28.0666 25.6181 28.038C25.6277 28.0047 25.6517 27.9665 25.7091 27.9665L27.4186 27.9522C27.9645 27.9475 28.4385 27.5948 28.6013 27.0753L29.1185 25.4358C29.1281 25.4025 29.152 25.3643 29.2095 25.3643C29.2382 25.3643 29.2765 25.3739 29.2909 25.4311L29.8272 27.0562C29.9948 27.5757 30.4832 27.8998 31.0291 27.9141L32.7338 27.8903C32.7768 27.8903 32.8104 27.9093 32.8247 27.9522C32.8391 27.9999 32.8247 28.0428 32.7864 28.0714L32.8008 28.0857Z" fill="black"/>
<path d="M33.9356 27.6139C33.7681 27.0991 33.2892 26.756 32.7481 26.756H32.7338L31.0291 26.7798C30.9908 26.7798 30.9572 26.7608 30.9381 26.7131L30.4018 25.0879C30.2342 24.5732 29.7601 24.23 29.219 24.23H29.2047C29.0754 24.23 28.9509 24.2539 28.836 24.292C27.2271 20.9082 23.8225 18.6825 20.1402 18.6825H19.5512C22.7116 17.0192 24.8711 13.7164 24.8711 9.91792C24.8664 4.44662 20.3987 0 14.9016 0C9.40449 0 4.94167 4.44662 4.94167 9.91792C4.94167 13.7164 7.10125 17.0192 10.2616 18.6825H9.66785C4.33832 18.6825 0 23.1434 0 28.6242V34.3863C0 35.368 0.756573 36.164 1.69032 36.164H4.59211V36.9313C4.59211 37.608 5.14278 38.1561 5.82274 38.1561H5.99512V39.6383C5.99512 39.8433 6.10526 40.0339 6.28243 40.134L14.6191 44.9237C14.6191 44.9237 14.6478 44.9333 14.6622 44.9428C14.6766 44.9523 14.6957 44.9571 14.7101 44.9619C14.7723 44.9857 14.8394 45 14.9064 45C14.9734 45 15.0405 44.9857 15.1027 44.9619C15.1171 44.9571 15.1362 44.9476 15.1506 44.9428C15.165 44.938 15.1793 44.9333 15.1937 44.9237L23.5352 40.134C23.7123 40.0291 23.8225 39.8433 23.8225 39.6383V38.1561H23.923C24.603 38.1561 25.1537 37.608 25.1537 36.9313V36.164H28.1273C29.0562 36.164 29.8128 35.368 29.8128 34.3863V32.5514L30.6987 33.19C31.144 33.5093 31.7378 33.5046 32.1783 33.1757C32.614 32.8516 32.7912 32.2892 32.6188 31.7745L32.0777 30.1541C32.0682 30.1255 32.0586 30.0731 32.1113 30.0302L33.4855 29.0103C33.9261 28.691 34.108 28.1238 33.9356 27.6091V27.6139ZM6.09568 9.91315C6.09568 5.08049 10.0461 1.14859 14.9016 1.14859C19.7571 1.14859 23.7123 5.08049 23.7123 9.91315C23.7123 14.7458 19.7667 18.673 14.9112 18.6777H14.892C10.0414 18.673 6.09568 14.7411 6.09568 9.91315ZM5.74134 36.936V34.248C5.74134 34.2099 5.77964 34.1718 5.81795 34.1718H7.27364C7.31673 34.1718 7.35025 34.2051 7.35025 34.248V36.936C7.35025 36.9789 7.31673 37.0123 7.27364 37.0123H5.81795C5.77964 37.0123 5.74134 36.9742 5.74134 36.936ZM19.0723 31.7936L11.8897 27.6663L14.9016 25.9362L22.0843 30.0635L19.0676 31.7936H19.0723ZM10.7357 28.3287L17.9183 32.456L14.9064 34.1861L7.72854 30.0588L10.7405 28.3287H10.7357ZM7.14914 38.1609H7.27842C7.95838 38.1609 8.50905 37.6128 8.50905 36.936V34.248C8.50905 33.5713 7.95838 33.0232 7.27842 33.0232H7.14914V31.0596L14.327 35.1869V43.4415L7.14914 39.3142V38.1656V38.1609ZM22.6685 39.3095L15.4858 43.4368V35.1822L18.4977 33.4521V35.3776C18.4977 35.6969 18.7563 35.9542 19.0771 35.9542C19.398 35.9542 19.6565 35.6969 19.6565 35.3776V32.7897L22.6732 31.0596V33.0232H22.4721C21.7922 33.0232 21.2415 33.5713 21.2415 34.248V36.936C21.2415 37.6128 21.7922 38.1609 22.4721 38.1609H22.6732V39.3095H22.6685ZM23.9996 36.936C23.9996 36.9742 23.9613 37.0123 23.923 37.0123H22.4673C22.4242 37.0123 22.3907 36.9789 22.3907 36.936V34.248C22.3907 34.2051 22.4242 34.1718 22.4673 34.1718H23.923C23.9613 34.1718 23.9996 34.2099 23.9996 34.248V36.936ZM28.1273 35.0154H25.1537V34.248C25.1537 33.5713 24.603 33.0232 23.923 33.0232H23.8225V30.0635C23.8225 30.0635 23.8177 30.035 23.8177 30.0207C23.8177 30.0016 23.8177 29.9873 23.8129 29.9682C23.8033 29.9015 23.7842 29.8395 23.7506 29.7776C23.7171 29.7204 23.6692 29.6727 23.6166 29.6298C23.6022 29.6203 23.5878 29.606 23.5735 29.5965C23.5591 29.587 23.5495 29.5774 23.5352 29.5679L15.1937 24.7781C15.0165 24.6733 14.7963 24.6733 14.6143 24.7781L6.27764 29.5679C6.27764 29.5679 6.2537 29.587 6.24412 29.5965C6.22976 29.606 6.21539 29.6155 6.20103 29.6298C6.14835 29.6727 6.10526 29.7204 6.07174 29.7776C6.03822 29.8348 6.01906 29.9015 6.00949 29.9635C6.00949 29.9825 6.0047 29.9968 6.0047 30.0159C6.0047 30.0302 5.99991 30.0445 5.99991 30.0588V33.0184H5.82753C5.14757 33.0184 4.5969 33.5665 4.5969 34.2433V35.0106H1.69511C1.4078 35.0106 1.16359 34.7199 1.16359 34.3815V28.6195C1.16359 23.7725 4.98476 19.8263 9.67743 19.8263H14.9064C14.9064 19.8263 14.9112 19.8263 14.916 19.8263C14.9208 19.8263 14.9208 19.8263 14.9256 19.8263H20.1545C23.5495 19.8263 26.6764 21.99 27.998 25.2261L27.5191 26.7417C27.5096 26.775 27.4856 26.8132 27.4282 26.8132L25.7187 26.8275C25.1728 26.8322 24.6988 27.1849 24.5359 27.7092C24.3779 28.2239 24.5599 28.7863 25.0004 29.1008L26.3939 30.0921C26.4322 30.1207 26.4465 30.1589 26.4322 30.2065L25.9102 31.8412C25.7378 32.3607 25.9246 32.9279 26.3699 33.2377C26.5902 33.3949 26.844 33.476 27.0978 33.476C27.3515 33.476 27.6245 33.3902 27.8495 33.2234L28.6732 32.6086V34.3863C28.6732 34.7294 28.4289 35.0154 28.1416 35.0154H28.1273ZM32.8008 28.0857L31.4217 29.1056C30.986 29.4297 30.8088 29.9921 30.9812 30.5068L31.5223 32.1272C31.5319 32.1606 31.5366 32.213 31.484 32.2463C31.4457 32.2749 31.4121 32.2749 31.3738 32.2463L29.9852 31.2503C29.7601 31.0882 29.4968 31.012 29.2334 31.0167C29.2334 31.0167 29.2334 31.0167 29.2286 31.0167C29.2238 31.0167 29.219 31.0167 29.2143 31.0167C28.9653 31.0263 28.7163 31.1073 28.5056 31.2646L27.1313 32.2892C27.0978 32.3178 27.0595 32.3178 27.0211 32.2892C26.9828 32.2606 26.9733 32.2273 26.9876 32.1749L27.5096 30.5354C27.6724 30.0159 27.4856 29.4535 27.0403 29.1437L25.6517 28.1572C25.599 28.119 25.6086 28.0666 25.6181 28.038C25.6277 28.0047 25.6517 27.9665 25.7091 27.9665L27.4186 27.9522C27.9645 27.9475 28.4385 27.5948 28.6013 27.0753L29.1185 25.4358C29.1281 25.4025 29.152 25.3643 29.2095 25.3643C29.2382 25.3643 29.2765 25.3739 29.2909 25.4311L29.8272 27.0562C29.9948 27.5757 30.4832 27.8998 31.0291 27.9141L32.7338 27.8903C32.7768 27.8903 32.8104 27.9093 32.8247 27.9522C32.8391 27.9999 32.8247 28.0428 32.7864 28.0714L32.8008 28.0857Z" fill="url(#paint0_linear_332_872)"/>
<defs>
<linearGradient id="paint0_linear_332_872" x1="1.98444" y1="3.83074e-05" x2="59.1575" y2="1.10413" gradientUnits="userSpaceOnUse">
<stop stop-color="#11AE88"/>
<stop offset="1" stop-color="#2A84EE"/>
</linearGradient>
</defs>
</svg>
