<svg width="40" height="32" viewBox="0 0 40 32" fill="none" xmlns="http://www.w3.org/2000/svg">
<path d="M39.4126 3.35783H37.5151V0.935753C37.5152 0.810486 37.4751 0.688502 37.4008 0.587667C37.3264 0.486831 37.2218 0.412444 37.1021 0.375401C36.8528 0.297144 30.9416 -1.45734 23.9923 3.35783H16.0058C9.05453 -1.45782 3.14425 0.297144 2.89548 0.374917C2.77582 0.412119 2.67119 0.486614 2.59688 0.587517C2.52257 0.688419 2.48248 0.810441 2.48246 0.935753V3.35783H0.584989C0.429702 3.35847 0.280986 3.42057 0.171362 3.53056C0.0617381 3.64054 0.000126391 3.78946 0 3.94475V28.494C0.000127926 28.6497 0.062056 28.7991 0.172188 28.9092C0.28232 29.0193 0.431654 29.0813 0.587404 29.0814H16.2609C16.5394 29.8492 17.0476 30.5126 17.7165 30.9815C18.3853 31.4503 19.1823 31.7018 19.999 31.7018C20.8158 31.7018 21.6128 31.4503 22.2816 30.9815C22.9504 30.5126 23.4587 29.8492 23.7372 29.0814H39.4126C39.5683 29.0813 39.7177 29.0193 39.8278 28.9092C39.9379 28.7991 39.9999 28.6497 40 28.494V3.94475C39.9999 3.78904 39.9379 3.63976 39.8278 3.5297C39.7176 3.41965 39.5683 3.35783 39.4126 3.35783ZM36.3403 1.39949V25.2034C34.0037 24.7981 26.4622 23.7754 20.5867 26.1999V7.92519C21.7644 6.61968 23.0804 5.44588 24.5116 4.42443C30.0209 0.53626 34.9182 1.11497 36.3403 1.39949ZM22.4363 4.53216C22.2726 4.66741 22.1098 4.80798 21.9475 4.94952C21.9185 4.97464 21.889 4.99783 21.86 5.02343C21.5755 5.27365 21.2934 5.53499 21.0137 5.80358C20.9548 5.86009 20.8958 5.91806 20.8364 5.97555C20.5548 6.25041 20.2751 6.53155 19.9993 6.82477C19.7239 6.53203 19.4447 6.25186 19.1636 5.97748C19.1037 5.91854 19.0436 5.86009 18.9834 5.80213C18.7037 5.53451 18.4221 5.27076 18.1376 5.02343C18.1095 4.99879 18.0815 4.97512 18.0535 4.95145C17.8902 4.80943 17.7265 4.6679 17.5617 4.53216H22.4363ZM3.65727 1.39949C5.07892 1.11594 9.97669 0.536261 15.488 4.4254C16.9187 5.44682 18.2343 6.62045 19.4119 7.92567V26.1999C19.2228 26.122 19.0323 26.0476 18.8404 25.9768C18.8264 25.9714 18.8124 25.9671 18.7984 25.9623C18.4187 25.8225 18.0335 25.6961 17.6429 25.5831L17.5685 25.5623C17.1882 25.4531 16.8046 25.3551 16.4179 25.2681C16.386 25.2609 16.3546 25.2551 16.3212 25.2478C15.9399 25.1638 15.5578 25.0897 15.1749 25.0256C15.1392 25.0193 15.1034 25.0145 15.0682 25.0087C14.6882 24.9462 14.3083 24.8928 13.9286 24.8483L13.8199 24.8362C13.4412 24.7928 13.0644 24.7572 12.6896 24.7295L12.5876 24.7222C12.2105 24.6958 11.8371 24.676 11.4674 24.6628L11.3829 24.6599C11.009 24.648 10.6409 24.6419 10.2786 24.6416H10.2477H10.1685C10.0279 24.6416 9.88877 24.6416 9.75014 24.6445H9.63758C9.49266 24.6445 9.34774 24.6498 9.20524 24.6541H9.11781C8.96677 24.659 8.81734 24.6644 8.66953 24.6706H8.62122C8.46326 24.6773 8.30771 24.685 8.15361 24.6937H8.13622C6.63477 24.7762 5.13921 24.9439 3.65678 25.1961L3.65727 1.39949ZM38.8242 27.9066H23.2996C23.1669 27.9066 23.0382 27.9516 22.9343 28.0341C22.8305 28.1167 22.7576 28.2319 22.7276 28.3612C22.5846 28.9778 22.2369 29.5278 21.7413 29.9217C21.2457 30.3155 20.6313 30.5298 19.9983 30.5298C19.3653 30.5298 18.7509 30.3155 18.2553 29.9217C17.7597 29.5278 17.412 28.9778 17.269 28.3612C17.239 28.2319 17.1662 28.1167 17.0623 28.0341C16.9584 27.9516 16.8297 27.9066 16.6971 27.9066H1.17191V4.53216H2.48246V25.912C2.48243 25.9995 2.50194 26.0859 2.53958 26.1649C2.57721 26.2439 2.632 26.3134 2.69997 26.3685C2.76793 26.4236 2.84734 26.4628 2.93239 26.4833C3.01745 26.5038 3.10601 26.505 3.19159 26.4869C3.28821 26.4656 13.1528 24.4334 19.7428 27.6337C19.7486 27.6366 19.7548 27.637 19.7606 27.6399C19.7711 27.6442 19.7817 27.6479 19.7925 27.651C19.858 27.6787 19.9283 27.6929 19.9993 27.6929C20.0703 27.6929 20.1406 27.6787 20.206 27.651C20.2167 27.6472 20.2278 27.6448 20.2379 27.6399C20.2481 27.6351 20.25 27.6366 20.2558 27.6337C26.8433 24.4334 36.7074 26.4656 36.806 26.4869C36.8916 26.505 36.9801 26.5038 37.0652 26.4833C37.1502 26.4628 37.2297 26.4236 37.2976 26.3685C37.3656 26.3134 37.4204 26.2439 37.458 26.1649C37.4956 26.0859 37.5152 25.9995 37.5151 25.912V4.53216H38.8257L38.8242 27.9066ZM7.52177 17.441L10.7457 18.412C10.8006 18.4284 10.8575 18.4369 10.9148 18.4371C11.0705 18.4369 11.2198 18.3749 11.3299 18.2648C11.44 18.1547 11.5019 18.0054 11.5022 17.8497V6.58904C11.5022 6.46286 11.4615 6.34006 11.3863 6.23879C11.311 6.13752 11.2052 6.06317 11.0844 6.02675L7.86039 5.05628C7.77273 5.02972 7.68006 5.02406 7.58981 5.03977C7.49956 5.05547 7.41425 5.0921 7.34071 5.14672C7.26717 5.20133 7.20745 5.27242 7.16633 5.35427C7.12521 5.43613 7.10383 5.52648 7.10392 5.61808V16.8788C7.10401 17.005 7.1448 17.1279 7.22024 17.2292C7.29568 17.3305 7.40175 17.4048 7.52273 17.441H7.52177ZM8.27824 6.40789L10.3274 7.02524V17.0594L8.27824 16.4425V6.40789ZM33.7806 15.7498L23.985 17.7946C23.8511 17.8225 23.7311 17.8964 23.6458 18.0034C23.5605 18.1104 23.5153 18.2438 23.5179 18.3806L23.586 21.847C23.5888 22.001 23.6518 22.1476 23.7616 22.2556C23.8713 22.3635 24.019 22.4241 24.1729 22.4243C24.2101 22.4242 24.2471 22.4205 24.2836 22.4132L34.0115 20.5404C34.1455 20.5146 34.2663 20.443 34.3533 20.3379C34.4402 20.2327 34.4878 20.1005 34.4878 19.9641V16.3247C34.4877 16.2374 34.4683 16.1512 34.4307 16.0724C34.3932 15.9936 34.3386 15.9241 34.2709 15.8691C34.2031 15.814 34.124 15.7748 34.0392 15.7541C33.9544 15.7335 33.866 15.732 33.7806 15.7498ZM33.313 19.4776L24.7458 21.1278L24.7009 18.8439L33.313 17.0469V19.4776ZM17.6047 22.448C17.5758 22.5784 17.5032 22.695 17.3991 22.7787C17.2949 22.8624 17.1654 22.9081 17.0318 22.9083C16.9889 22.9082 16.9461 22.9034 16.9043 22.8938L7.56476 20.8167C7.41275 20.7829 7.28038 20.6902 7.19676 20.5588C7.11314 20.4274 7.08513 20.2682 7.11889 20.1162C7.15265 19.9642 7.24541 19.8319 7.37677 19.7482C7.50813 19.6646 7.66733 19.6366 7.81933 19.6704L17.1589 21.7475C17.3108 21.7815 17.443 21.8743 17.5266 22.0056C17.6102 22.1369 17.6383 22.296 17.6047 22.448ZM12.9263 19.0617L16.8589 20.2819C16.9152 20.2993 16.9738 20.3083 17.0328 20.3085C17.1886 20.3079 17.3378 20.2455 17.4476 20.135C17.5575 20.0245 17.619 19.875 17.6187 19.7192V8.67635C17.6188 8.55585 17.5817 8.43826 17.5125 8.33957C17.4434 8.24087 17.3455 8.16585 17.2323 8.12469L13.3016 6.68951C13.2128 6.65672 13.1174 6.64588 13.0236 6.65792C12.9297 6.66996 12.8401 6.70453 12.7625 6.75867C12.6849 6.81281 12.6215 6.88492 12.5777 6.96885C12.534 7.05278 12.5112 7.14604 12.5113 7.24069V18.5009C12.5116 18.6264 12.5521 18.7485 12.6267 18.8494C12.7014 18.9503 12.8063 19.0247 12.9263 19.0617ZM13.6881 8.08025L16.4444 9.08695V18.924L13.6881 18.0681V8.08025ZM28.2708 14.9368C29.5319 14.9363 30.7414 14.4356 31.6339 13.5445C32.5263 12.6534 33.0289 11.4447 33.0313 10.1835C33.0313 10.1064 33.0161 10.03 32.9866 9.95879C32.9571 9.88755 32.9138 9.82282 32.8593 9.76832C32.8047 9.71381 32.74 9.67059 32.6687 9.64112C32.5974 9.61165 32.5211 9.59652 32.4439 9.59658H28.8582V6.00888C28.8583 5.93166 28.8432 5.85517 28.8137 5.78379C28.7843 5.71241 28.741 5.64754 28.6865 5.59289C28.6319 5.53825 28.5671 5.49489 28.4958 5.46531C28.4244 5.43573 28.348 5.42051 28.2708 5.42051C27.0092 5.42051 25.7993 5.92166 24.9073 6.81372C24.0152 7.70577 23.514 8.91566 23.514 10.1772C23.514 11.4388 24.0152 12.6487 24.9073 13.5407C25.7993 14.4328 27.0092 14.9339 28.2708 14.9339V14.9368ZM27.6834 6.64459V10.1821C27.6835 10.3378 27.7454 10.487 27.8556 10.5971C27.9657 10.7072 28.1151 10.769 28.2708 10.769H31.8082C31.6996 11.418 31.4144 12.0245 30.9838 12.5221C30.5532 13.0196 29.9939 13.389 29.3672 13.5896C28.7406 13.7902 28.0707 13.8144 27.4312 13.6594C26.7917 13.5044 26.2073 13.1763 25.742 12.7111C25.2767 12.2458 24.9485 11.6614 24.7934 11.0219C24.6384 10.3824 24.6625 9.71261 24.863 9.08591C25.0636 8.45921 25.4329 7.89986 25.9304 7.46921C26.4279 7.03856 27.0344 6.75325 27.6834 6.64459ZM29.7282 9.26279H33.9004C34.0562 9.26279 34.2056 9.2009 34.3157 9.09074C34.4259 8.98058 34.4878 8.83117 34.4878 8.67538C34.4862 7.41348 33.9843 6.20369 33.092 5.31135C32.1998 4.419 30.9901 3.91695 29.7282 3.91528C29.651 3.91528 29.5746 3.93048 29.5034 3.96C29.4321 3.98952 29.3673 4.03278 29.3128 4.08733C29.2583 4.14188 29.215 4.20663 29.1855 4.2779C29.1559 4.34916 29.1408 4.42555 29.1408 4.50269V8.67538C29.1408 8.75252 29.1559 8.82891 29.1855 8.90017C29.215 8.97144 29.2583 9.03619 29.3128 9.09074C29.3673 9.14528 29.4321 9.18855 29.5034 9.21807C29.5746 9.24759 29.651 9.26279 29.7282 9.26279ZM30.3151 5.13743C31.0527 5.26136 31.7334 5.61222 32.2622 6.14116C32.7911 6.67011 33.1418 7.3508 33.2656 8.08846H30.3151V5.13743Z" fill="black"/>
<path d="M39.4126 3.35783H37.5151V0.935753C37.5152 0.810486 37.4751 0.688502 37.4008 0.587667C37.3264 0.486831 37.2218 0.412444 37.1021 0.375401C36.8528 0.297144 30.9416 -1.45734 23.9923 3.35783H16.0058C9.05453 -1.45782 3.14425 0.297144 2.89548 0.374917C2.77582 0.412119 2.67119 0.486614 2.59688 0.587517C2.52257 0.688419 2.48248 0.810441 2.48246 0.935753V3.35783H0.584989C0.429702 3.35847 0.280986 3.42057 0.171362 3.53056C0.0617381 3.64054 0.000126391 3.78946 0 3.94475V28.494C0.000127926 28.6497 0.062056 28.7991 0.172188 28.9092C0.28232 29.0193 0.431654 29.0813 0.587404 29.0814H16.2609C16.5394 29.8492 17.0476 30.5126 17.7165 30.9815C18.3853 31.4503 19.1823 31.7018 19.999 31.7018C20.8158 31.7018 21.6128 31.4503 22.2816 30.9815C22.9504 30.5126 23.4587 29.8492 23.7372 29.0814H39.4126C39.5683 29.0813 39.7177 29.0193 39.8278 28.9092C39.9379 28.7991 39.9999 28.6497 40 28.494V3.94475C39.9999 3.78904 39.9379 3.63976 39.8278 3.5297C39.7176 3.41965 39.5683 3.35783 39.4126 3.35783ZM36.3403 1.39949V25.2034C34.0037 24.7981 26.4622 23.7754 20.5867 26.1999V7.92519C21.7644 6.61968 23.0804 5.44588 24.5116 4.42443C30.0209 0.53626 34.9182 1.11497 36.3403 1.39949ZM22.4363 4.53216C22.2726 4.66741 22.1098 4.80798 21.9475 4.94952C21.9185 4.97464 21.889 4.99783 21.86 5.02343C21.5755 5.27365 21.2934 5.53499 21.0137 5.80358C20.9548 5.86009 20.8958 5.91806 20.8364 5.97555C20.5548 6.25041 20.2751 6.53155 19.9993 6.82477C19.7239 6.53203 19.4447 6.25186 19.1636 5.97748C19.1037 5.91854 19.0436 5.86009 18.9834 5.80213C18.7037 5.53451 18.4221 5.27076 18.1376 5.02343C18.1095 4.99879 18.0815 4.97512 18.0535 4.95145C17.8902 4.80943 17.7265 4.6679 17.5617 4.53216H22.4363ZM3.65727 1.39949C5.07892 1.11594 9.97669 0.536261 15.488 4.4254C16.9187 5.44682 18.2343 6.62045 19.4119 7.92567V26.1999C19.2228 26.122 19.0323 26.0476 18.8404 25.9768C18.8264 25.9714 18.8124 25.9671 18.7984 25.9623C18.4187 25.8225 18.0335 25.6961 17.6429 25.5831L17.5685 25.5623C17.1882 25.4531 16.8046 25.3551 16.4179 25.2681C16.386 25.2609 16.3546 25.2551 16.3212 25.2478C15.9399 25.1638 15.5578 25.0897 15.1749 25.0256C15.1392 25.0193 15.1034 25.0145 15.0682 25.0087C14.6882 24.9462 14.3083 24.8928 13.9286 24.8483L13.8199 24.8362C13.4412 24.7928 13.0644 24.7572 12.6896 24.7295L12.5876 24.7222C12.2105 24.6958 11.8371 24.676 11.4674 24.6628L11.3829 24.6599C11.009 24.648 10.6409 24.6419 10.2786 24.6416H10.2477H10.1685C10.0279 24.6416 9.88877 24.6416 9.75014 24.6445H9.63758C9.49266 24.6445 9.34774 24.6498 9.20524 24.6541H9.11781C8.96677 24.659 8.81734 24.6644 8.66953 24.6706H8.62122C8.46326 24.6773 8.30771 24.685 8.15361 24.6937H8.13622C6.63477 24.7762 5.13921 24.9439 3.65678 25.1961L3.65727 1.39949ZM38.8242 27.9066H23.2996C23.1669 27.9066 23.0382 27.9516 22.9343 28.0341C22.8305 28.1167 22.7576 28.2319 22.7276 28.3612C22.5846 28.9778 22.2369 29.5278 21.7413 29.9217C21.2457 30.3155 20.6313 30.5298 19.9983 30.5298C19.3653 30.5298 18.7509 30.3155 18.2553 29.9217C17.7597 29.5278 17.412 28.9778 17.269 28.3612C17.239 28.2319 17.1662 28.1167 17.0623 28.0341C16.9584 27.9516 16.8297 27.9066 16.6971 27.9066H1.17191V4.53216H2.48246V25.912C2.48243 25.9995 2.50194 26.0859 2.53958 26.1649C2.57721 26.2439 2.632 26.3134 2.69997 26.3685C2.76793 26.4236 2.84734 26.4628 2.93239 26.4833C3.01745 26.5038 3.10601 26.505 3.19159 26.4869C3.28821 26.4656 13.1528 24.4334 19.7428 27.6337C19.7486 27.6366 19.7548 27.637 19.7606 27.6399C19.7711 27.6442 19.7817 27.6479 19.7925 27.651C19.858 27.6787 19.9283 27.6929 19.9993 27.6929C20.0703 27.6929 20.1406 27.6787 20.206 27.651C20.2167 27.6472 20.2278 27.6448 20.2379 27.6399C20.2481 27.6351 20.25 27.6366 20.2558 27.6337C26.8433 24.4334 36.7074 26.4656 36.806 26.4869C36.8916 26.505 36.9801 26.5038 37.0652 26.4833C37.1502 26.4628 37.2297 26.4236 37.2976 26.3685C37.3656 26.3134 37.4204 26.2439 37.458 26.1649C37.4956 26.0859 37.5152 25.9995 37.5151 25.912V4.53216H38.8257L38.8242 27.9066ZM7.52177 17.441L10.7457 18.412C10.8006 18.4284 10.8575 18.4369 10.9148 18.4371C11.0705 18.4369 11.2198 18.3749 11.3299 18.2648C11.44 18.1547 11.5019 18.0054 11.5022 17.8497V6.58904C11.5022 6.46286 11.4615 6.34006 11.3863 6.23879C11.311 6.13752 11.2052 6.06317 11.0844 6.02675L7.86039 5.05628C7.77273 5.02972 7.68006 5.02406 7.58981 5.03977C7.49956 5.05547 7.41425 5.0921 7.34071 5.14672C7.26717 5.20133 7.20745 5.27242 7.16633 5.35427C7.12521 5.43613 7.10383 5.52648 7.10392 5.61808V16.8788C7.10401 17.005 7.1448 17.1279 7.22024 17.2292C7.29568 17.3305 7.40175 17.4048 7.52273 17.441H7.52177ZM8.27824 6.40789L10.3274 7.02524V17.0594L8.27824 16.4425V6.40789ZM33.7806 15.7498L23.985 17.7946C23.8511 17.8225 23.7311 17.8964 23.6458 18.0034C23.5605 18.1104 23.5153 18.2438 23.5179 18.3806L23.586 21.847C23.5888 22.001 23.6518 22.1476 23.7616 22.2556C23.8713 22.3635 24.019 22.4241 24.1729 22.4243C24.2101 22.4242 24.2471 22.4205 24.2836 22.4132L34.0115 20.5404C34.1455 20.5146 34.2663 20.443 34.3533 20.3379C34.4402 20.2327 34.4878 20.1005 34.4878 19.9641V16.3247C34.4877 16.2374 34.4683 16.1512 34.4307 16.0724C34.3932 15.9936 34.3386 15.9241 34.2709 15.8691C34.2031 15.814 34.124 15.7748 34.0392 15.7541C33.9544 15.7335 33.866 15.732 33.7806 15.7498ZM33.313 19.4776L24.7458 21.1278L24.7009 18.8439L33.313 17.0469V19.4776ZM17.6047 22.448C17.5758 22.5784 17.5032 22.695 17.3991 22.7787C17.2949 22.8624 17.1654 22.9081 17.0318 22.9083C16.9889 22.9082 16.9461 22.9034 16.9043 22.8938L7.56476 20.8167C7.41275 20.7829 7.28038 20.6902 7.19676 20.5588C7.11314 20.4274 7.08513 20.2682 7.11889 20.1162C7.15265 19.9642 7.24541 19.8319 7.37677 19.7482C7.50813 19.6646 7.66733 19.6366 7.81933 19.6704L17.1589 21.7475C17.3108 21.7815 17.443 21.8743 17.5266 22.0056C17.6102 22.1369 17.6383 22.296 17.6047 22.448ZM12.9263 19.0617L16.8589 20.2819C16.9152 20.2993 16.9738 20.3083 17.0328 20.3085C17.1886 20.3079 17.3378 20.2455 17.4476 20.135C17.5575 20.0245 17.619 19.875 17.6187 19.7192V8.67635C17.6188 8.55585 17.5817 8.43826 17.5125 8.33957C17.4434 8.24087 17.3455 8.16585 17.2323 8.12469L13.3016 6.68951C13.2128 6.65672 13.1174 6.64588 13.0236 6.65792C12.9297 6.66996 12.8401 6.70453 12.7625 6.75867C12.6849 6.81281 12.6215 6.88492 12.5777 6.96885C12.534 7.05278 12.5112 7.14604 12.5113 7.24069V18.5009C12.5116 18.6264 12.5521 18.7485 12.6267 18.8494C12.7014 18.9503 12.8063 19.0247 12.9263 19.0617ZM13.6881 8.08025L16.4444 9.08695V18.924L13.6881 18.0681V8.08025ZM28.2708 14.9368C29.5319 14.9363 30.7414 14.4356 31.6339 13.5445C32.5263 12.6534 33.0289 11.4447 33.0313 10.1835C33.0313 10.1064 33.0161 10.03 32.9866 9.95879C32.9571 9.88755 32.9138 9.82282 32.8593 9.76832C32.8047 9.71381 32.74 9.67059 32.6687 9.64112C32.5974 9.61165 32.5211 9.59652 32.4439 9.59658H28.8582V6.00888C28.8583 5.93166 28.8432 5.85517 28.8137 5.78379C28.7843 5.71241 28.741 5.64754 28.6865 5.59289C28.6319 5.53825 28.5671 5.49489 28.4958 5.46531C28.4244 5.43573 28.348 5.42051 28.2708 5.42051C27.0092 5.42051 25.7993 5.92166 24.9073 6.81372C24.0152 7.70577 23.514 8.91566 23.514 10.1772C23.514 11.4388 24.0152 12.6487 24.9073 13.5407C25.7993 14.4328 27.0092 14.9339 28.2708 14.9339V14.9368ZM27.6834 6.64459V10.1821C27.6835 10.3378 27.7454 10.487 27.8556 10.5971C27.9657 10.7072 28.1151 10.769 28.2708 10.769H31.8082C31.6996 11.418 31.4144 12.0245 30.9838 12.5221C30.5532 13.0196 29.9939 13.389 29.3672 13.5896C28.7406 13.7902 28.0707 13.8144 27.4312 13.6594C26.7917 13.5044 26.2073 13.1763 25.742 12.7111C25.2767 12.2458 24.9485 11.6614 24.7934 11.0219C24.6384 10.3824 24.6625 9.71261 24.863 9.08591C25.0636 8.45921 25.4329 7.89986 25.9304 7.46921C26.4279 7.03856 27.0344 6.75325 27.6834 6.64459ZM29.7282 9.26279H33.9004C34.0562 9.26279 34.2056 9.2009 34.3157 9.09074C34.4259 8.98058 34.4878 8.83117 34.4878 8.67538C34.4862 7.41348 33.9843 6.20369 33.092 5.31135C32.1998 4.419 30.9901 3.91695 29.7282 3.91528C29.651 3.91528 29.5746 3.93048 29.5034 3.96C29.4321 3.98952 29.3673 4.03278 29.3128 4.08733C29.2583 4.14188 29.215 4.20663 29.1855 4.2779C29.1559 4.34916 29.1408 4.42555 29.1408 4.50269V8.67538C29.1408 8.75252 29.1559 8.82891 29.1855 8.90017C29.215 8.97144 29.2583 9.03619 29.3128 9.09074C29.3673 9.14528 29.4321 9.18855 29.5034 9.21807C29.5746 9.24759 29.651 9.26279 29.7282 9.26279ZM30.3151 5.13743C31.0527 5.26136 31.7334 5.61222 32.2622 6.14116C32.7911 6.67011 33.1418 7.3508 33.2656 8.08846H30.3151V5.13743Z" fill="url(#paint0_linear_332_870)"/>
<defs>
<linearGradient id="paint0_linear_332_870" x1="2.33463" y1="2.6987e-05" x2="69.5522" y2="2.16776" gradientUnits="userSpaceOnUse">
<stop stop-color="#11AE88"/>
<stop offset="1" stop-color="#2A84EE"/>
</linearGradient>
</defs>
</svg>
