<svg width="36" height="42" viewBox="0 0 36 42" fill="none" xmlns="http://www.w3.org/2000/svg">
<path d="M35.9997 12.6666C35.9997 11.5819 35.471 10.6259 34.6664 10.0172V7.05727L27.6091 0H1.33332V10.0172C0.528662 10.6259 0 11.5819 0 12.6666C0 13.7512 0.528662 14.7072 1.33332 15.3159V41.333H34.6664V15.3159C35.471 14.7072 35.9997 13.7512 35.9997 12.6666ZM27.9998 2.27598L32.3904 6.66661H27.9998V2.27598ZM2.66664 1.33332H26.6664V7.99993H33.333V9.40058C33.1177 9.35658 32.8944 9.33325 32.6664 9.33325H31.3331C29.7237 9.33325 28.3771 10.4806 28.0671 11.9999H26.5991C26.2891 10.4806 24.9431 9.33325 23.3331 9.33325H21.9998C20.3905 9.33325 19.0438 10.4806 18.7338 11.9999H17.2658C16.9559 10.4806 15.6099 9.33325 13.9999 9.33325H12.6666C11.0572 9.33325 9.71058 10.4806 9.40058 11.9999H7.9326C7.6226 10.4806 6.27661 9.33325 4.66663 9.33325H3.3333C3.10531 9.33325 2.88197 9.35658 2.66664 9.40058V1.33332ZM25.2104 13.3332C24.9344 14.1072 24.2011 14.6665 23.3331 14.6665H21.9998C21.1318 14.6665 20.3985 14.1072 20.1225 13.3332H21.3331V11.9999H20.1225C20.3985 11.2259 21.1318 10.6666 21.9998 10.6666H23.3331C24.2011 10.6666 24.9344 11.2259 25.2104 11.9999H23.9998V13.3332H25.2104ZM15.8772 13.3332C15.6012 14.1072 14.8679 14.6665 13.9999 14.6665H12.6666C11.7986 14.6665 11.0652 14.1072 10.7892 13.3332H11.9999V11.9999H10.7892C11.0652 11.2259 11.7986 10.6666 12.6666 10.6666H13.9999C14.8679 10.6666 15.6012 11.2259 15.8772 11.9999H14.6665V13.3332H15.8772ZM3.3333 10.6666H4.66663C5.53462 10.6666 6.26794 11.2259 6.54394 11.9999H5.33329V13.3332H6.54394C6.26794 14.1072 5.53462 14.6665 4.66663 14.6665H3.3333C2.23065 14.6665 1.33332 13.7692 1.33332 12.6666C1.33332 11.5639 2.23065 10.6666 3.3333 10.6666ZM33.333 39.9996H2.66664V15.9325C2.88197 15.9765 3.10531 15.9999 3.3333 15.9999H4.66663C6.27594 15.9999 7.6226 14.8525 7.9326 13.3332H9.40058C9.71058 14.8525 11.0566 15.9999 12.6666 15.9999H13.9999C15.6092 15.9999 16.9559 14.8525 17.2658 13.3332H18.7338C19.0438 14.8525 20.3898 15.9999 21.9998 15.9999H23.3331C24.9424 15.9999 26.2891 14.8525 26.5991 13.3332H28.0671C28.3771 14.8525 29.7231 15.9999 31.3331 15.9999H32.6664C32.8944 15.9999 33.1177 15.9765 33.333 15.9325V39.9996ZM32.6664 14.6665H31.3331C30.4651 14.6665 29.7317 14.1072 29.4557 13.3332H30.6664V11.9999H29.4557C29.7317 11.2259 30.4651 10.6666 31.3331 10.6666H32.6664C33.769 10.6666 34.6664 11.5639 34.6664 12.6666C34.6664 13.7692 33.769 14.6665 32.6664 14.6665Z" fill="black"/>
<path d="M35.9997 12.6666C35.9997 11.5819 35.471 10.6259 34.6664 10.0172V7.05727L27.6091 0H1.33332V10.0172C0.528662 10.6259 0 11.5819 0 12.6666C0 13.7512 0.528662 14.7072 1.33332 15.3159V41.333H34.6664V15.3159C35.471 14.7072 35.9997 13.7512 35.9997 12.6666ZM27.9998 2.27598L32.3904 6.66661H27.9998V2.27598ZM2.66664 1.33332H26.6664V7.99993H33.333V9.40058C33.1177 9.35658 32.8944 9.33325 32.6664 9.33325H31.3331C29.7237 9.33325 28.3771 10.4806 28.0671 11.9999H26.5991C26.2891 10.4806 24.9431 9.33325 23.3331 9.33325H21.9998C20.3905 9.33325 19.0438 10.4806 18.7338 11.9999H17.2658C16.9559 10.4806 15.6099 9.33325 13.9999 9.33325H12.6666C11.0572 9.33325 9.71058 10.4806 9.40058 11.9999H7.9326C7.6226 10.4806 6.27661 9.33325 4.66663 9.33325H3.3333C3.10531 9.33325 2.88197 9.35658 2.66664 9.40058V1.33332ZM25.2104 13.3332C24.9344 14.1072 24.2011 14.6665 23.3331 14.6665H21.9998C21.1318 14.6665 20.3985 14.1072 20.1225 13.3332H21.3331V11.9999H20.1225C20.3985 11.2259 21.1318 10.6666 21.9998 10.6666H23.3331C24.2011 10.6666 24.9344 11.2259 25.2104 11.9999H23.9998V13.3332H25.2104ZM15.8772 13.3332C15.6012 14.1072 14.8679 14.6665 13.9999 14.6665H12.6666C11.7986 14.6665 11.0652 14.1072 10.7892 13.3332H11.9999V11.9999H10.7892C11.0652 11.2259 11.7986 10.6666 12.6666 10.6666H13.9999C14.8679 10.6666 15.6012 11.2259 15.8772 11.9999H14.6665V13.3332H15.8772ZM3.3333 10.6666H4.66663C5.53462 10.6666 6.26794 11.2259 6.54394 11.9999H5.33329V13.3332H6.54394C6.26794 14.1072 5.53462 14.6665 4.66663 14.6665H3.3333C2.23065 14.6665 1.33332 13.7692 1.33332 12.6666C1.33332 11.5639 2.23065 10.6666 3.3333 10.6666ZM33.333 39.9996H2.66664V15.9325C2.88197 15.9765 3.10531 15.9999 3.3333 15.9999H4.66663C6.27594 15.9999 7.6226 14.8525 7.9326 13.3332H9.40058C9.71058 14.8525 11.0566 15.9999 12.6666 15.9999H13.9999C15.6092 15.9999 16.9559 14.8525 17.2658 13.3332H18.7338C19.0438 14.8525 20.3898 15.9999 21.9998 15.9999H23.3331C24.9424 15.9999 26.2891 14.8525 26.5991 13.3332H28.0671C28.3771 14.8525 29.7231 15.9999 31.3331 15.9999H32.6664C32.8944 15.9999 33.1177 15.9765 33.333 15.9325V39.9996ZM32.6664 14.6665H31.3331C30.4651 14.6665 29.7317 14.1072 29.4557 13.3332H30.6664V11.9999H29.4557C29.7317 11.2259 30.4651 10.6666 31.3331 10.6666H32.6664C33.769 10.6666 34.6664 11.5639 34.6664 12.6666C34.6664 13.7692 33.769 14.6665 32.6664 14.6665Z" fill="url(#paint0_linear_332_873)"/>
<path d="M23.9995 25.4558V23.3332C23.9995 20.0252 21.3075 17.3333 17.9995 17.3333C14.6916 17.3333 11.9996 20.0252 11.9996 23.3332V25.4558C11.2256 25.7318 10.6663 26.4652 10.6663 27.3332V36.6664C10.6663 37.7691 11.5636 38.6664 12.6662 38.6664H23.3328C24.4355 38.6664 25.3328 37.7691 25.3328 36.6664V27.3332C25.3328 26.4652 24.7735 25.7318 23.9995 25.4558ZM17.9995 18.6666C20.5728 18.6666 22.6662 20.7599 22.6662 23.3332V25.3332H13.3329V23.3332C13.3329 20.7599 15.4262 18.6666 17.9995 18.6666ZM23.9995 36.6664C23.9995 37.0337 23.7001 37.3331 23.3328 37.3331H12.6662C12.2989 37.3331 11.9996 37.0337 11.9996 36.6664V27.3332C11.9996 26.9658 12.2989 26.6665 12.6662 26.6665H23.3328C23.7001 26.6665 23.9995 26.9658 23.9995 27.3332V36.6664Z" fill="black"/>
<path d="M23.9995 25.4558V23.3332C23.9995 20.0252 21.3075 17.3333 17.9995 17.3333C14.6916 17.3333 11.9996 20.0252 11.9996 23.3332V25.4558C11.2256 25.7318 10.6663 26.4652 10.6663 27.3332V36.6664C10.6663 37.7691 11.5636 38.6664 12.6662 38.6664H23.3328C24.4355 38.6664 25.3328 37.7691 25.3328 36.6664V27.3332C25.3328 26.4652 24.7735 25.7318 23.9995 25.4558ZM17.9995 18.6666C20.5728 18.6666 22.6662 20.7599 22.6662 23.3332V25.3332H13.3329V23.3332C13.3329 20.7599 15.4262 18.6666 17.9995 18.6666ZM23.9995 36.6664C23.9995 37.0337 23.7001 37.3331 23.3328 37.3331H12.6662C12.2989 37.3331 11.9996 37.0337 11.9996 36.6664V27.3332C11.9996 26.9658 12.2989 26.6665 12.6662 26.6665H23.3328C23.7001 26.6665 23.9995 26.9658 23.9995 27.3332V36.6664Z" fill="url(#paint1_linear_332_873)"/>
<path d="M17.9999 28C16.8972 28 15.9999 28.8973 15.9999 30C15.9999 30.868 16.5592 31.6013 17.3332 31.8773V35.9999H18.6665V31.8773C19.4405 31.6013 19.9998 30.868 19.9998 30C19.9998 28.8973 19.1025 28 17.9999 28ZM17.9999 30.6666C17.6325 30.6666 17.3332 30.3673 17.3332 30C17.3332 29.6327 17.6325 29.3333 17.9999 29.3333C18.3672 29.3333 18.6665 29.6327 18.6665 30C18.6665 30.3673 18.3672 30.6666 17.9999 30.6666Z" fill="black"/>
<path d="M17.9999 28C16.8972 28 15.9999 28.8973 15.9999 30C15.9999 30.868 16.5592 31.6013 17.3332 31.8773V35.9999H18.6665V31.8773C19.4405 31.6013 19.9998 30.868 19.9998 30C19.9998 28.8973 19.1025 28 17.9999 28ZM17.9999 30.6666C17.6325 30.6666 17.3332 30.3673 17.3332 30C17.3332 29.6327 17.6325 29.3333 17.9999 29.3333C18.3672 29.3333 18.6665 29.6327 18.6665 30C18.6665 30.3673 18.3672 30.6666 17.9999 30.6666Z" fill="url(#paint2_linear_332_873)"/>
<path d="M25.3329 2.66675H3.99976V4.00007H25.3329V2.66675Z" fill="black"/>
<path d="M25.3329 2.66675H3.99976V4.00007H25.3329V2.66675Z" fill="url(#paint3_linear_332_873)"/>
<path d="M22.6663 5.33313H3.99976V6.66645H22.6663V5.33313Z" fill="black"/>
<path d="M22.6663 5.33313H3.99976V6.66645H22.6663V5.33313Z" fill="url(#paint4_linear_332_873)"/>
<path d="M25.3336 5.33313H24.0002V6.66645H25.3336V5.33313Z" fill="black"/>
<path d="M25.3336 5.33313H24.0002V6.66645H25.3336V5.33313Z" fill="url(#paint5_linear_332_873)"/>
<defs>
<linearGradient id="paint0_linear_332_873" x1="2.10115" y1="3.51857e-05" x2="62.6294" y2="1.34747" gradientUnits="userSpaceOnUse">
<stop stop-color="#11AE88"/>
<stop offset="1" stop-color="#2A84EE"/>
</linearGradient>
<linearGradient id="paint1_linear_332_873" x1="11.5223" y1="17.3333" x2="36.1865" y2="17.7667" gradientUnits="userSpaceOnUse">
<stop stop-color="#11AE88"/>
<stop offset="1" stop-color="#2A84EE"/>
</linearGradient>
<linearGradient id="paint2_linear_332_873" x1="16.2333" y1="28" x2="22.9609" y2="28.086" gradientUnits="userSpaceOnUse">
<stop stop-color="#11AE88"/>
<stop offset="1" stop-color="#2A84EE"/>
</linearGradient>
<linearGradient id="paint3_linear_332_873" x1="5.24488" y1="2.66675" x2="35.9896" y2="15.2397" gradientUnits="userSpaceOnUse">
<stop stop-color="#11AE88"/>
<stop offset="1" stop-color="#2A84EE"/>
</linearGradient>
<linearGradient id="paint4_linear_332_873" x1="5.08924" y1="5.33313" x2="32.9256" y2="15.2938" gradientUnits="userSpaceOnUse">
<stop stop-color="#11AE88"/>
<stop offset="1" stop-color="#2A84EE"/>
</linearGradient>
<linearGradient id="paint5_linear_332_873" x1="24.0781" y1="5.33313" x2="26.3195" y2="5.39042" gradientUnits="userSpaceOnUse">
<stop stop-color="#11AE88"/>
<stop offset="1" stop-color="#2A84EE"/>
</linearGradient>
</defs>
</svg>
