<svg width="55" height="34" viewBox="0 0 55 34" fill="none" xmlns="http://www.w3.org/2000/svg">
<path d="M46.5237 27.9227H8.70813V2.93738H46.5237V27.9227ZM10.0587 26.5721H45.1732V4.28793H10.0587V26.5721Z" fill="black"/>
<path d="M46.5237 27.9227H8.70813V2.93738H46.5237V27.9227ZM10.0587 26.5721H45.1732V4.28793H10.0587V26.5721Z" fill="url(#paint0_linear_332_859)"/>
<path d="M13.4354 16.4427H12.0848V21.845H13.4354V16.4427Z" fill="black"/>
<path d="M13.4354 16.4427H12.0848V21.845H13.4354V16.4427Z" fill="url(#paint1_linear_332_859)"/>
<path d="M13.4354 16.4427H12.0848V21.845H13.4354V16.4427Z" fill="black"/>
<path d="M13.4354 16.4427H12.0848V21.845H13.4354V16.4427Z" fill="url(#paint2_linear_332_859)"/>
<path d="M16.8121 10.3655H15.4615V21.8452H16.8121V10.3655Z" fill="black"/>
<path d="M16.8121 10.3655H15.4615V21.8452H16.8121V10.3655Z" fill="url(#paint3_linear_332_859)"/>
<path d="M20.1878 13.0665H18.8373V21.8451H20.1878V13.0665Z" fill="black"/>
<path d="M20.1878 13.0665H18.8373V21.8451H20.1878V13.0665Z" fill="url(#paint4_linear_332_859)"/>
<path d="M23.5645 14.4167H22.214V21.8448H23.5645V14.4167Z" fill="black"/>
<path d="M23.5645 14.4167H22.214V21.8448H23.5645V14.4167Z" fill="url(#paint5_linear_332_859)"/>
<path d="M26.9413 11.0406H25.5907V21.8451H26.9413V11.0406Z" fill="black"/>
<path d="M26.9413 11.0406H25.5907V21.8451H26.9413V11.0406Z" fill="url(#paint6_linear_332_859)"/>
<path d="M42.472 15.7674C42.472 12.0466 39.44 9.01465 35.7192 9.01465H35.0439V9.04841C31.6338 9.38605 28.9664 12.2695 28.9664 15.7674C28.9664 19.4882 31.9984 22.5202 35.7192 22.5202C39.2172 22.5202 42.1006 19.8529 42.4382 16.4427H42.472V15.7674ZM36.3945 10.4125C36.4215 10.4192 36.4485 10.4192 36.4755 10.426C36.7321 10.4597 36.9887 10.5138 37.2318 10.588C37.2521 10.5948 37.2724 10.5948 37.2926 10.6016C37.5492 10.6826 37.7923 10.7771 38.0287 10.8919C38.0759 10.9122 38.1165 10.9324 38.1637 10.9595C38.3933 11.0742 38.6094 11.2093 38.8187 11.3511C38.8593 11.3781 38.893 11.4051 38.9268 11.4321C39.1361 11.5875 39.3455 11.7563 39.5278 11.9454C39.7169 12.1344 39.8857 12.337 40.041 12.5464C40.068 12.5801 40.095 12.6206 40.122 12.6544C40.2706 12.8637 40.3989 13.0798 40.5137 13.3094C40.5339 13.3499 40.5542 13.3972 40.5745 13.4445C40.6893 13.6808 40.7906 13.9239 40.8648 14.1805C40.8716 14.2008 40.8716 14.2143 40.8783 14.2345C40.9526 14.4844 41.0066 14.741 41.0404 15.0044C41.0472 15.0314 41.0472 15.0584 41.0539 15.0854H36.3945V10.4125ZM35.7192 21.1697C32.7412 21.1697 30.317 18.7454 30.317 15.7674C30.317 13.019 32.3833 10.7434 35.0439 10.4125V16.4427H41.0742C40.7433 19.1033 38.4676 21.1697 35.7192 21.1697Z" fill="black"/>
<path d="M42.472 15.7674C42.472 12.0466 39.44 9.01465 35.7192 9.01465H35.0439V9.04841C31.6338 9.38605 28.9664 12.2695 28.9664 15.7674C28.9664 19.4882 31.9984 22.5202 35.7192 22.5202C39.2172 22.5202 42.1006 19.8529 42.4382 16.4427H42.472V15.7674ZM36.3945 10.4125C36.4215 10.4192 36.4485 10.4192 36.4755 10.426C36.7321 10.4597 36.9887 10.5138 37.2318 10.588C37.2521 10.5948 37.2724 10.5948 37.2926 10.6016C37.5492 10.6826 37.7923 10.7771 38.0287 10.8919C38.0759 10.9122 38.1165 10.9324 38.1637 10.9595C38.3933 11.0742 38.6094 11.2093 38.8187 11.3511C38.8593 11.3781 38.893 11.4051 38.9268 11.4321C39.1361 11.5875 39.3455 11.7563 39.5278 11.9454C39.7169 12.1344 39.8857 12.337 40.041 12.5464C40.068 12.5801 40.095 12.6206 40.122 12.6544C40.2706 12.8637 40.3989 13.0798 40.5137 13.3094C40.5339 13.3499 40.5542 13.3972 40.5745 13.4445C40.6893 13.6808 40.7906 13.9239 40.8648 14.1805C40.8716 14.2008 40.8716 14.2143 40.8783 14.2345C40.9526 14.4844 41.0066 14.741 41.0404 15.0044C41.0472 15.0314 41.0472 15.0584 41.0539 15.0854H36.3945V10.4125ZM35.7192 21.1697C32.7412 21.1697 30.317 18.7454 30.317 15.7674C30.317 13.019 32.3833 10.7434 35.0439 10.4125V16.4427H41.0742C40.7433 19.1033 38.4676 21.1697 35.7192 21.1697Z" fill="url(#paint7_linear_332_859)"/>
<path d="M54.9243 32.6492H0.166016V33.9997H54.9243V32.6492Z" fill="black"/>
<path d="M54.9243 32.6492H0.166016V33.9997H54.9243V32.6492Z" fill="url(#paint8_linear_332_859)"/>
<path d="M1.51657 31.6435V30.3875H6.24352H21.7749V31.6435H33.2547V30.3875H49.4613H53.513V31.6435H54.8636V29.037H49.4613V2.02584C49.4613 0.911626 48.5497 0 47.4355 0H8.26935C7.15514 0 6.24352 0.911626 6.24352 2.02584V29.037H0.166016V31.6435H1.51657ZM7.59408 2.02584C7.59408 1.65443 7.89795 1.35056 8.26935 1.35056H47.4355C47.8069 1.35056 48.1108 1.65443 48.1108 2.02584V29.037H32.5794H31.9041V30.3875H23.1255V29.037H22.4502H7.59408V2.02584Z" fill="black"/>
<path d="M1.51657 31.6435V30.3875H6.24352H21.7749V31.6435H33.2547V30.3875H49.4613H53.513V31.6435H54.8636V29.037H49.4613V2.02584C49.4613 0.911626 48.5497 0 47.4355 0H8.26935C7.15514 0 6.24352 0.911626 6.24352 2.02584V29.037H0.166016V31.6435H1.51657ZM7.59408 2.02584C7.59408 1.65443 7.89795 1.35056 8.26935 1.35056H47.4355C47.8069 1.35056 48.1108 1.65443 48.1108 2.02584V29.037H32.5794H31.9041V30.3875H23.1255V29.037H22.4502H7.59408V2.02584Z" fill="url(#paint9_linear_332_859)"/>
<defs>
<linearGradient id="paint0_linear_332_859" x1="10.9153" y1="2.9374" x2="74.4331" y2="5.39454" gradientUnits="userSpaceOnUse">
<stop stop-color="#11AE88"/>
<stop offset="1" stop-color="#2A84EE"/>
</linearGradient>
<linearGradient id="paint1_linear_332_859" x1="12.1637" y1="16.4428" x2="14.4355" y2="16.4573" gradientUnits="userSpaceOnUse">
<stop stop-color="#11AE88"/>
<stop offset="1" stop-color="#2A84EE"/>
</linearGradient>
<linearGradient id="paint2_linear_332_859" x1="12.1637" y1="16.4428" x2="14.4355" y2="16.4573" gradientUnits="userSpaceOnUse">
<stop stop-color="#11AE88"/>
<stop offset="1" stop-color="#2A84EE"/>
</linearGradient>
<linearGradient id="paint3_linear_332_859" x1="15.5404" y1="10.3655" x2="17.8122" y2="10.3723" gradientUnits="userSpaceOnUse">
<stop stop-color="#11AE88"/>
<stop offset="1" stop-color="#2A84EE"/>
</linearGradient>
<linearGradient id="paint4_linear_332_859" x1="18.9161" y1="13.0665" x2="21.188" y2="13.0755" gradientUnits="userSpaceOnUse">
<stop stop-color="#11AE88"/>
<stop offset="1" stop-color="#2A84EE"/>
</linearGradient>
<linearGradient id="paint5_linear_332_859" x1="22.2928" y1="14.4168" x2="24.5647" y2="14.4273" gradientUnits="userSpaceOnUse">
<stop stop-color="#11AE88"/>
<stop offset="1" stop-color="#2A84EE"/>
</linearGradient>
<linearGradient id="paint6_linear_332_859" x1="25.6695" y1="11.0407" x2="27.9414" y2="11.0479" gradientUnits="userSpaceOnUse">
<stop stop-color="#11AE88"/>
<stop offset="1" stop-color="#2A84EE"/>
</linearGradient>
<linearGradient id="paint7_linear_332_859" x1="29.7547" y1="9.01466" x2="52.4588" y2="9.59496" gradientUnits="userSpaceOnUse">
<stop stop-color="#11AE88"/>
<stop offset="1" stop-color="#2A84EE"/>
</linearGradient>
<linearGradient id="paint8_linear_332_859" x1="3.36203" y1="32.6492" x2="47.7774" y2="78.6768" gradientUnits="userSpaceOnUse">
<stop stop-color="#11AE88"/>
<stop offset="1" stop-color="#2A84EE"/>
</linearGradient>
<linearGradient id="paint9_linear_332_859" x1="3.35848" y1="2.69374e-05" x2="95.1908" y2="4.05722" gradientUnits="userSpaceOnUse">
<stop stop-color="#11AE88"/>
<stop offset="1" stop-color="#2A84EE"/>
</linearGradient>
</defs>
</svg>
