<svg width="19" height="25" viewBox="0 0 19 25" fill="none" xmlns="http://www.w3.org/2000/svg">
<path d="M18.964 15.341C18.8704 15.0551 18.6028 14.8644 18.3004 14.8644H18.2924L17.3398 14.8777C17.3184 14.8777 17.2996 14.8671 17.2889 14.8406L16.9892 13.9377C16.8956 13.6518 16.6307 13.4611 16.3283 13.4611H16.3203C16.248 13.4611 16.1784 13.4744 16.1142 13.4956C15.2151 11.6157 13.3126 10.3792 11.2548 10.3792H10.9257C12.6918 9.45509 13.8986 7.62021 13.8986 5.50996C13.8959 2.47035 11.3993 0 8.32737 0C5.25545 0 2.76152 2.47035 2.76152 5.50996C2.76152 7.62021 3.96835 9.45509 5.73443 10.3792H5.40262C2.42436 10.3792 0 12.8574 0 15.9024V19.1035C0 19.6489 0.422791 20.0911 0.944589 20.0911H2.56618V20.5174C2.56618 20.8933 2.87391 21.1978 3.25388 21.1978H3.35022V22.0213C3.35022 22.1351 3.41176 22.2411 3.51077 22.2967L8.16949 24.9576C8.16949 24.9576 8.18555 24.9629 8.19358 24.9682C8.20161 24.9735 8.21231 24.9762 8.22034 24.9788C8.25512 24.9921 8.29259 25 8.33005 25C8.36751 25 8.40497 24.9921 8.43976 24.9788C8.44779 24.9762 8.45849 24.9709 8.46652 24.9682C8.47455 24.9656 8.48257 24.9629 8.4906 24.9576L13.152 22.2967C13.251 22.2384 13.3126 22.1351 13.3126 22.0213V21.1978H13.3688C13.7487 21.1978 14.0565 20.8933 14.0565 20.5174V20.0911H15.7182C16.2373 20.0911 16.6601 19.6489 16.6601 19.1035V18.0841L17.1551 18.4389C17.404 18.6163 17.7358 18.6136 17.982 18.4309C18.2255 18.2509 18.3245 17.9385 18.2282 17.6525L17.9258 16.7523C17.9204 16.7364 17.9151 16.7073 17.9445 16.6834L18.7125 16.1168C18.9587 15.9394 19.0604 15.6243 18.964 15.3384V15.341ZM3.40641 5.50731C3.40641 2.82249 5.61402 0.638106 8.32737 0.638106C11.0407 0.638106 13.251 2.82249 13.251 5.50731C13.251 8.19212 11.0461 10.3739 8.33272 10.3765H8.32202C5.61134 10.3739 3.40641 8.18947 3.40641 5.50731ZM3.20839 20.52V19.0267C3.20839 19.0055 3.2298 18.9843 3.25121 18.9843H4.06468C4.08876 18.9843 4.10749 19.0029 4.10749 19.0267V20.52C4.10749 20.5438 4.08876 20.5624 4.06468 20.5624H3.25121C3.2298 20.5624 3.20839 20.5412 3.20839 20.52ZM10.6581 17.6631L6.64424 15.3702L8.32737 14.409L12.3412 16.702L10.6554 17.6631H10.6581ZM5.99935 15.7382L10.0132 18.0311L8.33005 18.9923L4.31889 16.6993L6.00202 15.7382H5.99935ZM3.99511 21.2005H4.06735C4.44733 21.2005 4.75506 20.896 4.75506 20.52V19.0267C4.75506 18.6507 4.44733 18.3462 4.06735 18.3462H3.99511V17.2553L8.00626 19.5483V24.1342L3.99511 21.8412V21.2031V21.2005ZM12.6677 21.8386L8.65383 24.1315V19.5456L10.337 18.5845V19.6542C10.337 19.8316 10.4815 19.9746 10.6607 19.9746C10.84 19.9746 10.9845 19.8316 10.9845 19.6542V18.2165L12.6703 17.2553V18.3462H12.558C12.178 18.3462 11.8703 18.6507 11.8703 19.0267V20.52C11.8703 20.896 12.178 21.2005 12.558 21.2005H12.6703V21.8386H12.6677ZM13.4116 20.52C13.4116 20.5412 13.3902 20.5624 13.3688 20.5624H12.5553C12.5312 20.5624 12.5125 20.5438 12.5125 20.52V19.0267C12.5125 19.0029 12.5312 18.9843 12.5553 18.9843H13.3688C13.3902 18.9843 13.4116 19.0055 13.4116 19.0267V20.52ZM15.7182 19.453H14.0565V19.0267C14.0565 18.6507 13.7487 18.3462 13.3688 18.3462H13.3126V16.702C13.3126 16.702 13.3099 16.6861 13.3099 16.6781C13.3099 16.6675 13.3099 16.6596 13.3072 16.649C13.3019 16.6119 13.2912 16.5775 13.2724 16.5431C13.2537 16.5113 13.2269 16.4849 13.1975 16.461C13.1895 16.4557 13.1814 16.4478 13.1734 16.4425C13.1654 16.4372 13.16 16.4319 13.152 16.4266L8.4906 13.7656C8.39159 13.7074 8.2685 13.7074 8.16682 13.7656L3.50809 16.4266C3.50809 16.4266 3.49471 16.4372 3.48936 16.4425C3.48133 16.4478 3.47331 16.4531 3.46528 16.461C3.43584 16.4849 3.41176 16.5113 3.39303 16.5431C3.3743 16.5749 3.36359 16.6119 3.35824 16.6464C3.35824 16.657 3.35557 16.6649 3.35557 16.6755C3.35557 16.6834 3.35289 16.6914 3.35289 16.6993V18.3436H3.25656C2.87658 18.3436 2.56886 18.6481 2.56886 19.024V19.4503H0.947265C0.786712 19.4503 0.650242 19.2888 0.650242 19.1008V15.8997C0.650242 13.2069 2.7856 11.0146 5.40798 11.0146H8.33005C8.33005 11.0146 8.33272 11.0146 8.3354 11.0146C8.33808 11.0146 8.33808 11.0146 8.34075 11.0146H11.2628C13.16 11.0146 14.9074 12.2167 15.6459 14.0145L15.3783 14.8565C15.373 14.875 15.3596 14.8962 15.3275 14.8962L14.3722 14.9042C14.0672 14.9068 13.8022 15.1027 13.7113 15.394C13.623 15.6799 13.7246 15.9924 13.9708 16.1671L14.7495 16.7179C14.7709 16.7337 14.7789 16.7549 14.7709 16.7814L14.4792 17.6896C14.3829 17.9782 14.4873 18.2933 14.7361 18.4654C14.8592 18.5527 15.001 18.5978 15.1429 18.5978C15.2847 18.5978 15.4372 18.5501 15.563 18.4574L16.0232 18.1159V19.1035C16.0232 19.2941 15.8868 19.453 15.7262 19.453H15.7182ZM18.3299 15.6032L17.5592 16.1698C17.3157 16.3498 17.2167 16.6623 17.313 16.9482L17.6154 17.8484C17.6207 17.867 17.6234 17.8961 17.594 17.9146C17.5726 17.9305 17.5538 17.9305 17.5324 17.9146L16.7564 17.3613C16.6307 17.2712 16.4835 17.2289 16.3363 17.2315C16.3363 17.2315 16.3363 17.2315 16.3336 17.2315C16.331 17.2315 16.3283 17.2315 16.3256 17.2315C16.1865 17.2368 16.0473 17.2818 15.9296 17.3692L15.1616 17.9385C15.1429 17.9544 15.1215 17.9544 15.1001 17.9385C15.0786 17.9226 15.0733 17.904 15.0813 17.8749L15.373 16.9641C15.464 16.6755 15.3596 16.3631 15.1108 16.191L14.3347 15.6429C14.3053 15.6217 14.3107 15.5926 14.316 15.5767C14.3214 15.5581 14.3347 15.537 14.3669 15.537L15.3222 15.529C15.6272 15.5264 15.8921 15.3304 15.9831 15.0418L16.2721 14.131C16.2774 14.1125 16.2908 14.0913 16.3229 14.0913C16.339 14.0913 16.3604 14.0966 16.3684 14.1284L16.6681 15.0312C16.7618 15.3198 17.0347 15.4999 17.3398 15.5078L18.2924 15.4946C18.3165 15.4946 18.3352 15.5052 18.3432 15.529C18.3513 15.5555 18.3432 15.5793 18.3218 15.5952L18.3299 15.6032Z" fill="black"/>
<path d="M18.964 15.341C18.8704 15.0551 18.6028 14.8644 18.3004 14.8644H18.2924L17.3398 14.8777C17.3184 14.8777 17.2996 14.8671 17.2889 14.8406L16.9892 13.9377C16.8956 13.6518 16.6307 13.4611 16.3283 13.4611H16.3203C16.248 13.4611 16.1784 13.4744 16.1142 13.4956C15.2151 11.6157 13.3126 10.3792 11.2548 10.3792H10.9257C12.6918 9.45509 13.8986 7.62021 13.8986 5.50996C13.8959 2.47035 11.3993 0 8.32737 0C5.25545 0 2.76152 2.47035 2.76152 5.50996C2.76152 7.62021 3.96835 9.45509 5.73443 10.3792H5.40262C2.42436 10.3792 0 12.8574 0 15.9024V19.1035C0 19.6489 0.422791 20.0911 0.944589 20.0911H2.56618V20.5174C2.56618 20.8933 2.87391 21.1978 3.25388 21.1978H3.35022V22.0213C3.35022 22.1351 3.41176 22.2411 3.51077 22.2967L8.16949 24.9576C8.16949 24.9576 8.18555 24.9629 8.19358 24.9682C8.20161 24.9735 8.21231 24.9762 8.22034 24.9788C8.25512 24.9921 8.29259 25 8.33005 25C8.36751 25 8.40497 24.9921 8.43976 24.9788C8.44779 24.9762 8.45849 24.9709 8.46652 24.9682C8.47455 24.9656 8.48257 24.9629 8.4906 24.9576L13.152 22.2967C13.251 22.2384 13.3126 22.1351 13.3126 22.0213V21.1978H13.3688C13.7487 21.1978 14.0565 20.8933 14.0565 20.5174V20.0911H15.7182C16.2373 20.0911 16.6601 19.6489 16.6601 19.1035V18.0841L17.1551 18.4389C17.404 18.6163 17.7358 18.6136 17.982 18.4309C18.2255 18.2509 18.3245 17.9385 18.2282 17.6525L17.9258 16.7523C17.9204 16.7364 17.9151 16.7073 17.9445 16.6834L18.7125 16.1168C18.9587 15.9394 19.0604 15.6243 18.964 15.3384V15.341ZM3.40641 5.50731C3.40641 2.82249 5.61402 0.638106 8.32737 0.638106C11.0407 0.638106 13.251 2.82249 13.251 5.50731C13.251 8.19212 11.0461 10.3739 8.33272 10.3765H8.32202C5.61134 10.3739 3.40641 8.18947 3.40641 5.50731ZM3.20839 20.52V19.0267C3.20839 19.0055 3.2298 18.9843 3.25121 18.9843H4.06468C4.08876 18.9843 4.10749 19.0029 4.10749 19.0267V20.52C4.10749 20.5438 4.08876 20.5624 4.06468 20.5624H3.25121C3.2298 20.5624 3.20839 20.5412 3.20839 20.52ZM10.6581 17.6631L6.64424 15.3702L8.32737 14.409L12.3412 16.702L10.6554 17.6631H10.6581ZM5.99935 15.7382L10.0132 18.0311L8.33005 18.9923L4.31889 16.6993L6.00202 15.7382H5.99935ZM3.99511 21.2005H4.06735C4.44733 21.2005 4.75506 20.896 4.75506 20.52V19.0267C4.75506 18.6507 4.44733 18.3462 4.06735 18.3462H3.99511V17.2553L8.00626 19.5483V24.1342L3.99511 21.8412V21.2031V21.2005ZM12.6677 21.8386L8.65383 24.1315V19.5456L10.337 18.5845V19.6542C10.337 19.8316 10.4815 19.9746 10.6607 19.9746C10.84 19.9746 10.9845 19.8316 10.9845 19.6542V18.2165L12.6703 17.2553V18.3462H12.558C12.178 18.3462 11.8703 18.6507 11.8703 19.0267V20.52C11.8703 20.896 12.178 21.2005 12.558 21.2005H12.6703V21.8386H12.6677ZM13.4116 20.52C13.4116 20.5412 13.3902 20.5624 13.3688 20.5624H12.5553C12.5312 20.5624 12.5125 20.5438 12.5125 20.52V19.0267C12.5125 19.0029 12.5312 18.9843 12.5553 18.9843H13.3688C13.3902 18.9843 13.4116 19.0055 13.4116 19.0267V20.52ZM15.7182 19.453H14.0565V19.0267C14.0565 18.6507 13.7487 18.3462 13.3688 18.3462H13.3126V16.702C13.3126 16.702 13.3099 16.6861 13.3099 16.6781C13.3099 16.6675 13.3099 16.6596 13.3072 16.649C13.3019 16.6119 13.2912 16.5775 13.2724 16.5431C13.2537 16.5113 13.2269 16.4849 13.1975 16.461C13.1895 16.4557 13.1814 16.4478 13.1734 16.4425C13.1654 16.4372 13.16 16.4319 13.152 16.4266L8.4906 13.7656C8.39159 13.7074 8.2685 13.7074 8.16682 13.7656L3.50809 16.4266C3.50809 16.4266 3.49471 16.4372 3.48936 16.4425C3.48133 16.4478 3.47331 16.4531 3.46528 16.461C3.43584 16.4849 3.41176 16.5113 3.39303 16.5431C3.3743 16.5749 3.36359 16.6119 3.35824 16.6464C3.35824 16.657 3.35557 16.6649 3.35557 16.6755C3.35557 16.6834 3.35289 16.6914 3.35289 16.6993V18.3436H3.25656C2.87658 18.3436 2.56886 18.6481 2.56886 19.024V19.4503H0.947265C0.786712 19.4503 0.650242 19.2888 0.650242 19.1008V15.8997C0.650242 13.2069 2.7856 11.0146 5.40798 11.0146H8.33005C8.33005 11.0146 8.33272 11.0146 8.3354 11.0146C8.33808 11.0146 8.33808 11.0146 8.34075 11.0146H11.2628C13.16 11.0146 14.9074 12.2167 15.6459 14.0145L15.3783 14.8565C15.373 14.875 15.3596 14.8962 15.3275 14.8962L14.3722 14.9042C14.0672 14.9068 13.8022 15.1027 13.7113 15.394C13.623 15.6799 13.7246 15.9924 13.9708 16.1671L14.7495 16.7179C14.7709 16.7337 14.7789 16.7549 14.7709 16.7814L14.4792 17.6896C14.3829 17.9782 14.4873 18.2933 14.7361 18.4654C14.8592 18.5527 15.001 18.5978 15.1429 18.5978C15.2847 18.5978 15.4372 18.5501 15.563 18.4574L16.0232 18.1159V19.1035C16.0232 19.2941 15.8868 19.453 15.7262 19.453H15.7182ZM18.3299 15.6032L17.5592 16.1698C17.3157 16.3498 17.2167 16.6623 17.313 16.9482L17.6154 17.8484C17.6207 17.867 17.6234 17.8961 17.594 17.9146C17.5726 17.9305 17.5538 17.9305 17.5324 17.9146L16.7564 17.3613C16.6307 17.2712 16.4835 17.2289 16.3363 17.2315C16.3363 17.2315 16.3363 17.2315 16.3336 17.2315C16.331 17.2315 16.3283 17.2315 16.3256 17.2315C16.1865 17.2368 16.0473 17.2818 15.9296 17.3692L15.1616 17.9385C15.1429 17.9544 15.1215 17.9544 15.1001 17.9385C15.0786 17.9226 15.0733 17.904 15.0813 17.8749L15.373 16.9641C15.464 16.6755 15.3596 16.3631 15.1108 16.191L14.3347 15.6429C14.3053 15.6217 14.3107 15.5926 14.316 15.5767C14.3214 15.5581 14.3347 15.537 14.3669 15.537L15.3222 15.529C15.6272 15.5264 15.8921 15.3304 15.9831 15.0418L16.2721 14.131C16.2774 14.1125 16.2908 14.0913 16.3229 14.0913C16.339 14.0913 16.3604 14.0966 16.3684 14.1284L16.6681 15.0312C16.7618 15.3198 17.0347 15.4999 17.3398 15.5078L18.2924 15.4946C18.3165 15.4946 18.3352 15.5052 18.3432 15.529C18.3513 15.5555 18.3432 15.5793 18.3218 15.5952L18.3299 15.6032Z" fill="url(#paint0_linear_332_1192)"/>
<defs>
<linearGradient id="paint0_linear_332_1192" x1="1.10895" y1="2.12819e-05" x2="33.0585" y2="0.620641" gradientUnits="userSpaceOnUse">
<stop stop-color="#11AE88"/>
<stop offset="1" stop-color="#2A84EE"/>
</linearGradient>
</defs>
</svg>
