<svg width="22" height="22" viewBox="0 0 22 22" fill="none" xmlns="http://www.w3.org/2000/svg">
<path d="M11.2444 0.205118C8.76216 0.205118 6.5313 1.20697 4.91483 2.6535C3.29827 4.10001 2.27041 5.99998 2.27041 7.86786V8.30495C1.26979 8.51406 0.498047 9.36207 0.498047 10.3971V15.6586C0.498047 16.8539 1.54092 17.7497 2.74509 17.7608L4.17116 17.774C5.24394 18.9799 6.70248 19.973 8.39684 20.5189C8.62962 21.2491 9.2867 21.7948 10.0791 21.7948H12.3625C13.3544 21.7948 14.1359 20.9407 14.1359 19.9387C14.1359 18.9368 13.3544 18.0841 12.3625 18.0841H10.0791C9.26613 18.0841 8.59493 18.6571 8.37898 19.4154C7.03964 18.9205 5.87257 18.1056 4.99989 17.1452V10.3971C4.99989 9.39029 4.26953 8.56167 3.3088 8.32461V7.86784C3.3088 6.73814 3.81173 5.49472 4.69126 4.39577C4.76318 4.51793 4.84843 4.62957 4.94735 4.72198C5.38107 5.12737 6.07109 5.31839 6.66421 4.97594C6.67387 4.96993 6.68333 4.96361 6.69258 4.95698C8.10212 4.0138 9.53484 3.11167 11.2446 3.11167C11.7156 3.11167 12.1625 3.17936 12.5952 3.29694C13.7329 3.6062 14.7764 4.27364 15.7976 4.95698C15.8068 4.96361 15.8163 4.96993 15.8259 4.97594C16.4191 5.31839 17.1077 5.12595 17.5414 4.72055C17.6402 4.6282 17.7259 4.51665 17.7979 4.39469C18.6775 5.49389 19.18 6.73779 19.18 7.86784V8.32747C18.2246 8.56806 17.4995 9.39406 17.4995 10.3971V17.2972C17.4996 17.3607 17.5122 17.4235 17.5367 17.4821C17.5612 17.5406 17.597 17.5938 17.6422 17.6384C17.6873 17.683 17.7408 17.7183 17.7997 17.7421C17.8585 17.7659 17.9215 17.7779 17.985 17.7772L19.7544 17.7607C20.9585 17.7497 22 16.8539 22 15.6586V10.397C22 9.35818 21.2237 8.50751 20.218 8.3024V7.86781C20.218 5.99993 19.1915 4.09996 17.5751 2.65345C15.9585 1.20693 13.7267 0.205118 11.2444 0.205118ZM11.2444 1.24349C13.4461 1.24349 15.4431 2.13975 16.883 3.42824C16.9009 3.44458 16.9183 3.46154 16.9363 3.47794C17.0513 3.69377 16.9841 3.82092 16.8329 3.96225C16.6767 4.10831 16.4715 4.14844 16.3464 4.07707C15.324 3.39312 14.2 2.65712 12.868 2.29507C12.3704 2.15984 11.8429 2.07931 11.2888 2.07509C11.274 2.074 11.2593 2.07353 11.2445 2.0737C11.2272 2.07352 11.2098 2.07421 11.1926 2.07577C9.15988 2.09355 7.54796 3.13912 6.14522 4.07739C6.02029 4.14954 5.81368 4.10902 5.65704 3.96257C5.50579 3.82124 5.43866 3.69408 5.55364 3.47826C5.57155 3.46186 5.58894 3.44483 5.60692 3.42856C7.04683 2.14006 9.04272 1.24381 11.2444 1.24381V1.24349ZM9.05358 9.00387V9.00422C8.80759 8.99548 8.55783 9.03336 8.31746 9.12082C7.54825 9.4008 7.033 10.1354 7.033 10.954C7.0328 11.0223 7.04609 11.09 7.07209 11.1531C7.09809 11.2163 7.1363 11.2737 7.18454 11.3221C7.23277 11.3704 7.29007 11.4088 7.35316 11.435C7.41625 11.4612 7.48389 11.4747 7.5522 11.4747C7.62051 11.4747 7.68814 11.4612 7.75123 11.435C7.81432 11.4088 7.87163 11.3704 7.91986 11.3221C7.96809 11.2737 8.0063 11.2163 8.0323 11.1531C8.05831 11.09 8.07159 11.0223 8.07139 10.954C8.07139 10.5683 8.3106 10.2274 8.67302 10.0955C9.03544 9.96363 9.43627 10.0716 9.68422 10.367C9.93208 10.6624 9.96898 11.0768 9.77612 11.4107C9.62682 11.6693 9.08092 11.9952 8.49741 12.3289C8.2056 12.4958 7.90885 12.6718 7.65359 12.917C7.39832 13.1621 7.17505 13.5197 7.17505 13.9428C7.17502 14.011 7.18844 14.0786 7.21452 14.1416C7.24061 14.2046 7.27886 14.2619 7.32709 14.3101C7.37532 14.3583 7.43258 14.3966 7.49559 14.4227C7.55861 14.4488 7.62615 14.4622 7.69436 14.4622H8.9813H10.2669C10.4045 14.4621 10.5365 14.4074 10.6339 14.31C10.7312 14.2127 10.7859 14.0807 10.7859 13.943C10.7859 13.8053 10.7312 13.6733 10.6339 13.5759C10.5365 13.4786 10.4045 13.4239 10.2669 13.4238H8.9813H8.72847C8.82877 13.358 8.89147 13.2995 9.01245 13.2303C9.54528 12.9255 10.2451 12.6302 10.6471 11.9748C10.6571 11.9604 10.6663 11.9455 10.6748 11.9301C10.6838 11.915 10.6906 11.8993 10.699 11.884C10.699 11.8838 10.699 11.8837 10.699 11.8836C11.079 11.1823 10.9935 10.3128 10.4787 9.69921C10.2156 9.38568 9.8679 9.17078 9.48929 9.06932C9.34732 9.03125 9.20088 9.00911 9.0533 9.00385L9.05358 9.00387ZM2.74897 9.21562C3.48751 9.21562 4.03883 9.75123 4.03883 10.3971V16.8118L2.75326 16.7997C1.99625 16.7927 1.45952 16.3045 1.45952 15.6586V10.3971C1.45952 9.75122 2.01049 9.21562 2.74897 9.21562ZM19.7506 9.21562C20.4892 9.21562 21.04 9.75123 21.04 10.3971V15.6586C21.04 16.3045 20.5022 16.7927 19.7452 16.7997L18.4607 16.8118V10.3971C18.4607 9.75125 19.0121 9.21562 19.7506 9.21562ZM11.9297 9.21977C11.8616 9.22083 11.7943 9.2353 11.7317 9.26237C11.6691 9.28944 11.6124 9.32857 11.565 9.37753C11.5175 9.42648 11.4802 9.48431 11.4551 9.54771C11.4299 9.6111 11.4176 9.67883 11.4186 9.747V12.7534C11.4186 12.8911 11.4732 13.0231 11.5706 13.1205C11.6679 13.2179 11.7999 13.2727 11.9376 13.2727H13.6749V13.9362C13.6747 14.0046 13.688 14.0722 13.714 14.1354C13.74 14.1986 13.7782 14.256 13.8264 14.3043C13.8747 14.3527 13.932 14.3911 13.995 14.4173C14.0581 14.4435 14.1258 14.457 14.1941 14.457C14.2624 14.457 14.33 14.4435 14.3931 14.4173C14.4562 14.3911 14.5135 14.3527 14.5617 14.3043C14.61 14.256 14.6482 14.1986 14.6742 14.1354C14.7002 14.0722 14.7135 14.0046 14.7133 13.9362V13.2727H14.9472C15.0849 13.2727 15.2169 13.218 15.3143 13.1207C15.4116 13.0233 15.4663 12.8912 15.4663 12.7535C15.4663 12.6159 15.4116 12.4838 15.3143 12.3864C15.2169 12.2891 15.0849 12.2344 14.9472 12.2344H14.7133V9.747C14.7144 9.67747 14.7015 9.60842 14.6754 9.54397C14.6493 9.47951 14.6105 9.42095 14.5613 9.37178C14.5121 9.3226 14.4536 9.28381 14.3891 9.2577C14.3246 9.23158 14.2556 9.21869 14.1861 9.21977C14.1179 9.22082 14.0506 9.23529 13.988 9.26235C13.9254 9.28941 13.8687 9.32854 13.8213 9.3775C13.7738 9.42646 13.7364 9.48429 13.7113 9.54769C13.6862 9.61109 13.6738 9.67882 13.6749 9.747V12.2344H12.457V9.747C12.458 9.67747 12.4451 9.60842 12.419 9.54397C12.3929 9.47951 12.3541 9.42096 12.305 9.37178C12.2558 9.32261 12.1972 9.28381 12.1328 9.2577C12.0683 9.23158 11.9993 9.21869 11.9297 9.21977ZM10.0791 19.1224H12.3625C12.7608 19.1224 13.098 19.4601 13.098 19.939C13.098 20.4178 12.7608 20.757 12.3625 20.757H10.0791C9.68083 20.757 9.34367 20.4178 9.34367 19.939C9.34367 19.4601 9.68083 19.1224 10.0791 19.1224Z" fill="black"/>
<path d="M11.2444 0.205118C8.76216 0.205118 6.5313 1.20697 4.91483 2.6535C3.29827 4.10001 2.27041 5.99998 2.27041 7.86786V8.30495C1.26979 8.51406 0.498047 9.36207 0.498047 10.3971V15.6586C0.498047 16.8539 1.54092 17.7497 2.74509 17.7608L4.17116 17.774C5.24394 18.9799 6.70248 19.973 8.39684 20.5189C8.62962 21.2491 9.2867 21.7948 10.0791 21.7948H12.3625C13.3544 21.7948 14.1359 20.9407 14.1359 19.9387C14.1359 18.9368 13.3544 18.0841 12.3625 18.0841H10.0791C9.26613 18.0841 8.59493 18.6571 8.37898 19.4154C7.03964 18.9205 5.87257 18.1056 4.99989 17.1452V10.3971C4.99989 9.39029 4.26953 8.56167 3.3088 8.32461V7.86784C3.3088 6.73814 3.81173 5.49472 4.69126 4.39577C4.76318 4.51793 4.84843 4.62957 4.94735 4.72198C5.38107 5.12737 6.07109 5.31839 6.66421 4.97594C6.67387 4.96993 6.68333 4.96361 6.69258 4.95698C8.10212 4.0138 9.53484 3.11167 11.2446 3.11167C11.7156 3.11167 12.1625 3.17936 12.5952 3.29694C13.7329 3.6062 14.7764 4.27364 15.7976 4.95698C15.8068 4.96361 15.8163 4.96993 15.8259 4.97594C16.4191 5.31839 17.1077 5.12595 17.5414 4.72055C17.6402 4.6282 17.7259 4.51665 17.7979 4.39469C18.6775 5.49389 19.18 6.73779 19.18 7.86784V8.32747C18.2246 8.56806 17.4995 9.39406 17.4995 10.3971V17.2972C17.4996 17.3607 17.5122 17.4235 17.5367 17.4821C17.5612 17.5406 17.597 17.5938 17.6422 17.6384C17.6873 17.683 17.7408 17.7183 17.7997 17.7421C17.8585 17.7659 17.9215 17.7779 17.985 17.7772L19.7544 17.7607C20.9585 17.7497 22 16.8539 22 15.6586V10.397C22 9.35818 21.2237 8.50751 20.218 8.3024V7.86781C20.218 5.99993 19.1915 4.09996 17.5751 2.65345C15.9585 1.20693 13.7267 0.205118 11.2444 0.205118ZM11.2444 1.24349C13.4461 1.24349 15.4431 2.13975 16.883 3.42824C16.9009 3.44458 16.9183 3.46154 16.9363 3.47794C17.0513 3.69377 16.9841 3.82092 16.8329 3.96225C16.6767 4.10831 16.4715 4.14844 16.3464 4.07707C15.324 3.39312 14.2 2.65712 12.868 2.29507C12.3704 2.15984 11.8429 2.07931 11.2888 2.07509C11.274 2.074 11.2593 2.07353 11.2445 2.0737C11.2272 2.07352 11.2098 2.07421 11.1926 2.07577C9.15988 2.09355 7.54796 3.13912 6.14522 4.07739C6.02029 4.14954 5.81368 4.10902 5.65704 3.96257C5.50579 3.82124 5.43866 3.69408 5.55364 3.47826C5.57155 3.46186 5.58894 3.44483 5.60692 3.42856C7.04683 2.14006 9.04272 1.24381 11.2444 1.24381V1.24349ZM9.05358 9.00387V9.00422C8.80759 8.99548 8.55783 9.03336 8.31746 9.12082C7.54825 9.4008 7.033 10.1354 7.033 10.954C7.0328 11.0223 7.04609 11.09 7.07209 11.1531C7.09809 11.2163 7.1363 11.2737 7.18454 11.3221C7.23277 11.3704 7.29007 11.4088 7.35316 11.435C7.41625 11.4612 7.48389 11.4747 7.5522 11.4747C7.62051 11.4747 7.68814 11.4612 7.75123 11.435C7.81432 11.4088 7.87163 11.3704 7.91986 11.3221C7.96809 11.2737 8.0063 11.2163 8.0323 11.1531C8.05831 11.09 8.07159 11.0223 8.07139 10.954C8.07139 10.5683 8.3106 10.2274 8.67302 10.0955C9.03544 9.96363 9.43627 10.0716 9.68422 10.367C9.93208 10.6624 9.96898 11.0768 9.77612 11.4107C9.62682 11.6693 9.08092 11.9952 8.49741 12.3289C8.2056 12.4958 7.90885 12.6718 7.65359 12.917C7.39832 13.1621 7.17505 13.5197 7.17505 13.9428C7.17502 14.011 7.18844 14.0786 7.21452 14.1416C7.24061 14.2046 7.27886 14.2619 7.32709 14.3101C7.37532 14.3583 7.43258 14.3966 7.49559 14.4227C7.55861 14.4488 7.62615 14.4622 7.69436 14.4622H8.9813H10.2669C10.4045 14.4621 10.5365 14.4074 10.6339 14.31C10.7312 14.2127 10.7859 14.0807 10.7859 13.943C10.7859 13.8053 10.7312 13.6733 10.6339 13.5759C10.5365 13.4786 10.4045 13.4239 10.2669 13.4238H8.9813H8.72847C8.82877 13.358 8.89147 13.2995 9.01245 13.2303C9.54528 12.9255 10.2451 12.6302 10.6471 11.9748C10.6571 11.9604 10.6663 11.9455 10.6748 11.9301C10.6838 11.915 10.6906 11.8993 10.699 11.884C10.699 11.8838 10.699 11.8837 10.699 11.8836C11.079 11.1823 10.9935 10.3128 10.4787 9.69921C10.2156 9.38568 9.8679 9.17078 9.48929 9.06932C9.34732 9.03125 9.20088 9.00911 9.0533 9.00385L9.05358 9.00387ZM2.74897 9.21562C3.48751 9.21562 4.03883 9.75123 4.03883 10.3971V16.8118L2.75326 16.7997C1.99625 16.7927 1.45952 16.3045 1.45952 15.6586V10.3971C1.45952 9.75122 2.01049 9.21562 2.74897 9.21562ZM19.7506 9.21562C20.4892 9.21562 21.04 9.75123 21.04 10.3971V15.6586C21.04 16.3045 20.5022 16.7927 19.7452 16.7997L18.4607 16.8118V10.3971C18.4607 9.75125 19.0121 9.21562 19.7506 9.21562ZM11.9297 9.21977C11.8616 9.22083 11.7943 9.2353 11.7317 9.26237C11.6691 9.28944 11.6124 9.32857 11.565 9.37753C11.5175 9.42648 11.4802 9.48431 11.4551 9.54771C11.4299 9.6111 11.4176 9.67883 11.4186 9.747V12.7534C11.4186 12.8911 11.4732 13.0231 11.5706 13.1205C11.6679 13.2179 11.7999 13.2727 11.9376 13.2727H13.6749V13.9362C13.6747 14.0046 13.688 14.0722 13.714 14.1354C13.74 14.1986 13.7782 14.256 13.8264 14.3043C13.8747 14.3527 13.932 14.3911 13.995 14.4173C14.0581 14.4435 14.1258 14.457 14.1941 14.457C14.2624 14.457 14.33 14.4435 14.3931 14.4173C14.4562 14.3911 14.5135 14.3527 14.5617 14.3043C14.61 14.256 14.6482 14.1986 14.6742 14.1354C14.7002 14.0722 14.7135 14.0046 14.7133 13.9362V13.2727H14.9472C15.0849 13.2727 15.2169 13.218 15.3143 13.1207C15.4116 13.0233 15.4663 12.8912 15.4663 12.7535C15.4663 12.6159 15.4116 12.4838 15.3143 12.3864C15.2169 12.2891 15.0849 12.2344 14.9472 12.2344H14.7133V9.747C14.7144 9.67747 14.7015 9.60842 14.6754 9.54397C14.6493 9.47951 14.6105 9.42095 14.5613 9.37178C14.5121 9.3226 14.4536 9.28381 14.3891 9.2577C14.3246 9.23158 14.2556 9.21869 14.1861 9.21977C14.1179 9.22082 14.0506 9.23529 13.988 9.26235C13.9254 9.28941 13.8687 9.32854 13.8213 9.3775C13.7738 9.42646 13.7364 9.48429 13.7113 9.54769C13.6862 9.61109 13.6738 9.67882 13.6749 9.747V12.2344H12.457V9.747C12.458 9.67747 12.4451 9.60842 12.419 9.54397C12.3929 9.47951 12.3541 9.42096 12.305 9.37178C12.2558 9.32261 12.1972 9.28381 12.1328 9.2577C12.0683 9.23158 11.9993 9.21869 11.9297 9.21977ZM10.0791 19.1224H12.3625C12.7608 19.1224 13.098 19.4601 13.098 19.939C13.098 20.4178 12.7608 20.757 12.3625 20.757H10.0791C9.68083 20.757 9.34367 20.4178 9.34367 19.939C9.34367 19.4601 9.68083 19.1224 10.0791 19.1224Z" fill="url(#paint0_linear_332_1206)"/>
<defs>
<linearGradient id="paint0_linear_332_1206" x1="1.75302" y1="0.205097" x2="37.8999" y2="1.12523" gradientUnits="userSpaceOnUse">
<stop stop-color="#11AE88"/>
<stop offset="1" stop-color="#2A84EE"/>
</linearGradient>
</defs>
</svg>
