<svg width="22" height="22" viewBox="0 0 22 22" fill="none" xmlns="http://www.w3.org/2000/svg">
<path d="M0.0981445 4.74349C0.0981445 4.93365 0.25221 5.08776 0.442391 5.08776C0.632501 5.08776 0.786641 4.93365 0.786641 4.74349V0.68848H4.84158C5.03177 0.68848 5.18582 0.534412 5.18582 0.34425C5.18582 0.154088 5.03177 0 4.84158 0H0.442391C0.25221 0 0.0981445 0.154088 0.0981445 0.34425V4.74349Z" fill="black"/>
<path d="M0.0981445 4.74349C0.0981445 4.93365 0.25221 5.08776 0.442391 5.08776C0.632501 5.08776 0.786641 4.93365 0.786641 4.74349V0.68848H4.84158C5.03177 0.68848 5.18582 0.534412 5.18582 0.34425C5.18582 0.154088 5.03177 0 4.84158 0H0.442391C0.25221 0 0.0981445 0.154088 0.0981445 0.34425V4.74349Z" fill="url(#paint0_linear_332_1159)"/>
<path d="M21.2135 4.74349C21.2135 4.93365 21.3675 5.08776 21.5577 5.08776C21.7478 5.08776 21.9019 4.93365 21.9019 4.74349V0.34425C21.9019 0.154088 21.7478 0 21.5577 0H17.1585C16.9683 0 16.8142 0.154088 16.8142 0.34425C16.8142 0.534412 16.9683 0.68848 17.1585 0.68848H21.2135V4.74349Z" fill="black"/>
<path d="M21.2135 4.74349C21.2135 4.93365 21.3675 5.08776 21.5577 5.08776C21.7478 5.08776 21.9019 4.93365 21.9019 4.74349V0.34425C21.9019 0.154088 21.7478 0 21.5577 0H17.1585C16.9683 0 16.8142 0.154088 16.8142 0.34425C16.8142 0.534412 16.9683 0.68848 17.1585 0.68848H21.2135V4.74349Z" fill="url(#paint1_linear_332_1159)"/>
<path d="M4.84158 21.8044H0.442391C0.25221 21.8044 0.0981445 21.6503 0.0981445 21.4601V17.0609C0.0981445 16.8708 0.25221 16.7167 0.442391 16.7167C0.632501 16.7167 0.786641 16.8708 0.786641 17.0609V21.1159H4.84158C5.03177 21.1159 5.18582 21.27 5.18582 21.4601C5.18582 21.6503 5.03103 21.8044 4.84158 21.8044Z" fill="black"/>
<path d="M4.84158 21.8044H0.442391C0.25221 21.8044 0.0981445 21.6503 0.0981445 21.4601V17.0609C0.0981445 16.8708 0.25221 16.7167 0.442391 16.7167C0.632501 16.7167 0.786641 16.8708 0.786641 17.0609V21.1159H4.84158C5.03177 21.1159 5.18582 21.27 5.18582 21.4601C5.18582 21.6503 5.03103 21.8044 4.84158 21.8044Z" fill="url(#paint2_linear_332_1159)"/>
<path d="M17.1585 21.8044H21.5577C21.7478 21.8044 21.9019 21.6503 21.9019 21.4601V17.0609C21.9019 16.8708 21.7478 16.7167 21.5577 16.7167C21.3675 16.7167 21.2135 16.8708 21.2135 17.0609V21.1159H17.1585C16.9683 21.1159 16.8142 21.27 16.8142 21.4601C16.8142 21.6503 16.9683 21.8044 17.1585 21.8044Z" fill="black"/>
<path d="M17.1585 21.8044H21.5577C21.7478 21.8044 21.9019 21.6503 21.9019 21.4601V17.0609C21.9019 16.8708 21.7478 16.7167 21.5577 16.7167C21.3675 16.7167 21.2135 16.8708 21.2135 17.0609V21.1159H17.1585C16.9683 21.1159 16.8142 21.27 16.8142 21.4601C16.8142 21.6503 16.9683 21.8044 17.1585 21.8044Z" fill="url(#paint3_linear_332_1159)"/>
<path d="M3.79843 10.0569C3.77811 10.0569 3.75784 10.0553 3.73752 10.0516C3.55041 10.0185 3.42564 9.83964 3.45867 9.6525C3.74134 8.0613 4.50793 6.62344 5.67596 5.49374C6.84699 4.36181 8.31419 3.64327 9.91887 3.41703C10.1068 3.39145 10.2812 3.5215 10.3074 3.70941C10.3338 3.89731 10.203 4.07169 10.0151 4.09798C7.02668 4.52041 4.66427 6.80081 4.13594 9.77199C4.10736 9.9396 3.96228 10.0569 3.79843 10.0569Z" fill="black"/>
<path d="M3.79843 10.0569C3.77811 10.0569 3.75784 10.0553 3.73752 10.0516C3.55041 10.0185 3.42564 9.83964 3.45867 9.6525C3.74134 8.0613 4.50793 6.62344 5.67596 5.49374C6.84699 4.36181 8.31419 3.64327 9.91887 3.41703C10.1068 3.39145 10.2812 3.5215 10.3074 3.70941C10.3338 3.89731 10.203 4.07169 10.0151 4.09798C7.02668 4.52041 4.66427 6.80081 4.13594 9.77199C4.10736 9.9396 3.96228 10.0569 3.79843 10.0569Z" fill="url(#paint4_linear_332_1159)"/>
<path d="M10.0158 18.5968C10.0309 18.5991 10.0459 18.5998 10.0602 18.5998C10.2308 18.5998 10.3789 18.4735 10.4014 18.2992C10.4255 18.1105 10.2924 17.9377 10.1038 17.9136C7.11608 17.5303 4.66281 15.1912 4.13665 12.2261C4.10357 12.0389 3.92468 11.9141 3.73752 11.9472C3.55041 11.9803 3.42564 12.1592 3.45867 12.3463C3.74354 13.954 4.52223 15.4039 5.70904 16.5381C6.8996 17.6761 8.38935 18.3879 10.0158 18.5968Z" fill="black"/>
<path d="M10.0158 18.5968C10.0309 18.5991 10.0459 18.5998 10.0602 18.5998C10.2308 18.5998 10.3789 18.4735 10.4014 18.2992C10.4255 18.1105 10.2924 17.9377 10.1038 17.9136C7.11608 17.5303 4.66281 15.1912 4.13665 12.2261C4.10357 12.0389 3.92468 11.9141 3.73752 11.9472C3.55041 11.9803 3.42564 12.1592 3.45867 12.3463C3.74354 13.954 4.52223 15.4039 5.70904 16.5381C6.8996 17.6761 8.38935 18.3879 10.0158 18.5968Z" fill="url(#paint5_linear_332_1159)"/>
<path d="M12.1356 18.5719C11.9688 18.5719 11.8222 18.4501 11.7959 18.2803C11.7666 18.0923 11.8951 17.9165 12.083 17.8871C15.0572 17.4234 17.3858 15.1167 17.8773 12.147C17.9081 11.9591 18.0862 11.8328 18.2734 11.8636C18.4613 11.8945 18.5875 12.0718 18.5568 12.2597C18.0163 15.5233 15.4578 18.0578 12.189 18.5674C12.1709 18.5704 12.1529 18.5719 12.1356 18.5719Z" fill="black"/>
<path d="M12.1356 18.5719C11.9688 18.5719 11.8222 18.4501 11.7959 18.2803C11.7666 18.0923 11.8951 17.9165 12.083 17.8871C15.0572 17.4234 17.3858 15.1167 17.8773 12.147C17.9081 11.9591 18.0862 11.8328 18.2734 11.8636C18.4613 11.8945 18.5875 12.0718 18.5568 12.2597C18.0163 15.5233 15.4578 18.0578 12.189 18.5674C12.1709 18.5704 12.1529 18.5719 12.1356 18.5719Z" fill="url(#paint6_linear_332_1159)"/>
<path d="M17.856 9.72737C17.8868 9.89347 18.0311 10.0092 18.1942 10.0092C18.2146 10.0092 18.2356 10.0077 18.2574 10.0025C18.4438 9.96863 18.5678 9.789 18.5333 9.60183C17.9462 6.41949 15.4042 3.94139 12.2083 3.43478C12.0197 3.40472 11.8438 3.53323 11.8145 3.72114C11.7852 3.90905 11.913 4.08493 12.1009 4.11499C15.0089 4.57575 17.3216 6.83138 17.856 9.72737Z" fill="black"/>
<path d="M17.856 9.72737C17.8868 9.89347 18.0311 10.0092 18.1942 10.0092C18.2146 10.0092 18.2356 10.0077 18.2574 10.0025C18.4438 9.96863 18.5678 9.789 18.5333 9.60183C17.9462 6.41949 15.4042 3.94139 12.2083 3.43478C12.0197 3.40472 11.8438 3.53323 11.8145 3.72114C11.7852 3.90905 11.913 4.08493 12.1009 4.11499C15.0089 4.57575 17.3216 6.83138 17.856 9.72737Z" fill="url(#paint7_linear_332_1159)"/>
<path d="M10.2701 12.7787C10.3004 12.7873 10.3322 12.7917 10.3642 12.7917C10.3725 12.7917 10.3808 12.7917 10.389 12.791C10.483 12.7842 10.5702 12.7383 10.6303 12.6654L12.9965 9.7702C13.1167 9.62365 13.0949 9.40643 12.9476 9.28617C12.8002 9.16589 12.5838 9.18769 12.4636 9.33501L10.3274 11.9484L9.42696 11.1254C9.28641 10.9969 9.06922 11.0066 8.94068 11.1472C8.81218 11.2877 8.82194 11.5049 8.96249 11.6335L10.132 12.7015C10.172 12.7382 10.2193 12.7643 10.2701 12.7787Z" fill="black"/>
<path d="M10.2701 12.7787C10.3004 12.7873 10.3322 12.7917 10.3642 12.7917C10.3725 12.7917 10.3808 12.7917 10.389 12.791C10.483 12.7842 10.5702 12.7383 10.6303 12.6654L12.9965 9.7702C13.1167 9.62365 13.0949 9.40643 12.9476 9.28617C12.8002 9.16589 12.5838 9.18769 12.4636 9.33501L10.3274 11.9484L9.42696 11.1254C9.28641 10.9969 9.06922 11.0066 8.94068 11.1472C8.81218 11.2877 8.82194 11.5049 8.96249 11.6335L10.132 12.7015C10.172 12.7382 10.2193 12.7643 10.2701 12.7787Z" fill="url(#paint8_linear_332_1159)"/>
<path fill-rule="evenodd" clip-rule="evenodd" d="M15.5714 11.3442C15.4036 13.5985 13.5984 15.4039 11.3442 15.5721V21.6558C11.3442 21.8459 11.1902 22 11 22C10.8098 22 10.6557 21.8459 10.6557 21.6558V15.5721C8.40159 15.4039 6.59638 13.5985 6.42858 11.3442H0.34425C0.154068 11.3442 0 11.1902 0 11C0 10.8098 0.154068 10.6558 0.34425 10.6558H6.42866C6.5971 8.40222 8.40211 6.59748 10.6557 6.42937V0.34425C10.6557 0.154088 10.8098 0 11 0C11.1902 0 11.3442 0.154088 11.3442 0.34425V6.42937C13.5978 6.59748 15.4029 8.40222 15.5713 10.6558H21.6557C21.8459 10.6558 21.9999 10.8098 21.9999 11C21.9999 11.1902 21.8459 11.3442 21.6557 11.3442H15.5714ZM11 14.8957C8.85182 14.8957 7.10431 13.1481 7.10431 11C7.10431 8.85297 8.84992 7.10617 10.9965 7.10433H11.0034C13.15 7.10617 14.8956 8.85297 14.8956 11C14.8956 13.1481 13.1481 14.8957 11 14.8957Z" fill="black"/>
<path fill-rule="evenodd" clip-rule="evenodd" d="M15.5714 11.3442C15.4036 13.5985 13.5984 15.4039 11.3442 15.5721V21.6558C11.3442 21.8459 11.1902 22 11 22C10.8098 22 10.6557 21.8459 10.6557 21.6558V15.5721C8.40159 15.4039 6.59638 13.5985 6.42858 11.3442H0.34425C0.154068 11.3442 0 11.1902 0 11C0 10.8098 0.154068 10.6558 0.34425 10.6558H6.42866C6.5971 8.40222 8.40211 6.59748 10.6557 6.42937V0.34425C10.6557 0.154088 10.8098 0 11 0C11.1902 0 11.3442 0.154088 11.3442 0.34425V6.42937C13.5978 6.59748 15.4029 8.40222 15.5713 10.6558H21.6557C21.8459 10.6558 21.9999 10.8098 21.9999 11C21.9999 11.1902 21.8459 11.3442 21.6557 11.3442H15.5714ZM11 14.8957C8.85182 14.8957 7.10431 13.1481 7.10431 11C7.10431 8.85297 8.84992 7.10617 10.9965 7.10433H11.0034C13.15 7.10617 14.8956 8.85297 14.8956 11C14.8956 13.1481 13.1481 14.8957 11 14.8957Z" fill="url(#paint9_linear_332_1159)"/>
<defs>
<linearGradient id="paint0_linear_332_1159" x1="0.395091" y1="4.33109e-06" x2="8.94794" y2="0.218605" gradientUnits="userSpaceOnUse">
<stop stop-color="#11AE88"/>
<stop offset="1" stop-color="#2A84EE"/>
</linearGradient>
<linearGradient id="paint1_linear_332_1159" x1="17.1112" y1="4.33109e-06" x2="25.664" y2="0.218605" gradientUnits="userSpaceOnUse">
<stop stop-color="#11AE88"/>
<stop offset="1" stop-color="#2A84EE"/>
</linearGradient>
<linearGradient id="paint2_linear_332_1159" x1="0.395091" y1="16.7167" x2="8.94794" y2="16.9353" gradientUnits="userSpaceOnUse">
<stop stop-color="#11AE88"/>
<stop offset="1" stop-color="#2A84EE"/>
</linearGradient>
<linearGradient id="paint3_linear_332_1159" x1="17.1112" y1="16.7167" x2="25.664" y2="16.9353" gradientUnits="userSpaceOnUse">
<stop stop-color="#11AE88"/>
<stop offset="1" stop-color="#2A84EE"/>
</linearGradient>
<linearGradient id="paint4_linear_332_1159" x1="3.85361" y1="3.41382" x2="15.3811" y2="3.71797" gradientUnits="userSpaceOnUse">
<stop stop-color="#11AE88"/>
<stop offset="1" stop-color="#2A84EE"/>
</linearGradient>
<linearGradient id="paint5_linear_332_1159" x1="3.85906" y1="11.9419" x2="15.5434" y2="12.2537" gradientUnits="userSpaceOnUse">
<stop stop-color="#11AE88"/>
<stop offset="1" stop-color="#2A84EE"/>
</linearGradient>
<linearGradient id="paint6_linear_332_1159" x1="12.1869" y1="11.859" x2="23.5671" y2="12.1523" gradientUnits="userSpaceOnUse">
<stop stop-color="#11AE88"/>
<stop offset="1" stop-color="#2A84EE"/>
</linearGradient>
<linearGradient id="paint7_linear_332_1159" x1="12.203" y1="3.43043" x2="23.5143" y2="3.72612" gradientUnits="userSpaceOnUse">
<stop stop-color="#11AE88"/>
<stop offset="1" stop-color="#2A84EE"/>
</linearGradient>
<linearGradient id="paint8_linear_332_1159" x1="9.09686" y1="9.2085" x2="16.1955" y2="9.42237" gradientUnits="userSpaceOnUse">
<stop stop-color="#11AE88"/>
<stop offset="1" stop-color="#2A84EE"/>
</linearGradient>
<linearGradient id="paint9_linear_332_1159" x1="1.28404" y1="1.87281e-05" x2="38.2679" y2="0.945296" gradientUnits="userSpaceOnUse">
<stop stop-color="#11AE88"/>
<stop offset="1" stop-color="#2A84EE"/>
</linearGradient>
</defs>
</svg>
