<svg width="33" height="20" viewBox="0 0 33 20" fill="none" xmlns="http://www.w3.org/2000/svg">
<path d="M27.2694 16.425H5.02515V1.72791H27.2694V16.425ZM5.81958 15.6306H26.475V2.52234H5.81958V15.6306Z" fill="black"/>
<path d="M27.2694 16.425H5.02515V1.72791H27.2694V16.425ZM5.81958 15.6306H26.475V2.52234H5.81958V15.6306Z" fill="url(#paint0_linear_332_1173)"/>
<path d="M7.80494 9.67249H7.0105V12.8502H7.80494V9.67249Z" fill="black"/>
<path d="M7.80494 9.67249H7.0105V12.8502H7.80494V9.67249Z" fill="url(#paint1_linear_332_1173)"/>
<path d="M7.80494 9.67249H7.0105V12.8502H7.80494V9.67249Z" fill="black"/>
<path d="M7.80494 9.67249H7.0105V12.8502H7.80494V9.67249Z" fill="url(#paint2_linear_332_1173)"/>
<path d="M9.79029 6.09717H8.99585V12.8499H9.79029V6.09717Z" fill="black"/>
<path d="M9.79029 6.09717H8.99585V12.8499H9.79029V6.09717Z" fill="url(#paint3_linear_332_1173)"/>
<path d="M11.7778 7.68604H10.9834V12.8499H11.7778V7.68604Z" fill="black"/>
<path d="M11.7778 7.68604H10.9834V12.8499H11.7778V7.68604Z" fill="url(#paint4_linear_332_1173)"/>
<path d="M13.7654 8.48047H12.9709V12.8499H13.7654V8.48047Z" fill="black"/>
<path d="M13.7654 8.48047H12.9709V12.8499H13.7654V8.48047Z" fill="url(#paint5_linear_332_1173)"/>
<path d="M15.7483 6.49463H14.9539V12.8501H15.7483V6.49463Z" fill="black"/>
<path d="M15.7483 6.49463H14.9539V12.8501H15.7483V6.49463Z" fill="url(#paint6_linear_332_1173)"/>
<path d="M24.8858 9.27492C24.8858 7.08625 23.1023 5.30273 20.9136 5.30273H20.5164V5.3226C18.5104 5.5212 16.9414 7.21733 16.9414 9.27492C16.9414 11.4636 18.7249 13.2471 20.9136 13.2471C22.9712 13.2471 24.6673 11.6781 24.8659 9.67214H24.8858V9.27492ZM21.3108 6.12498C21.3267 6.12895 21.3426 6.12895 21.3585 6.13292C21.5094 6.15278 21.6604 6.18456 21.8034 6.22825C21.8153 6.23223 21.8272 6.23223 21.8391 6.2362C21.9901 6.28386 22.1331 6.33947 22.2721 6.407C22.2999 6.41892 22.3237 6.43084 22.3515 6.44672C22.4866 6.51425 22.6137 6.59369 22.7368 6.67711C22.7607 6.693 22.7805 6.70889 22.8004 6.72478C22.9235 6.81614 23.0467 6.91544 23.1539 7.02666C23.2651 7.13788 23.3644 7.25705 23.4558 7.38019C23.4717 7.40005 23.4876 7.42388 23.5035 7.44374C23.5908 7.56688 23.6663 7.69399 23.7338 7.82904C23.7458 7.85288 23.7577 7.88068 23.7696 7.90849C23.8371 8.04752 23.8967 8.19051 23.9404 8.34146C23.9444 8.35337 23.9444 8.36132 23.9483 8.37323C23.992 8.5202 24.0238 8.67115 24.0437 8.82606C24.0476 8.84195 24.0476 8.85784 24.0516 8.87373H21.3108V6.12498ZM20.9136 12.4527C19.1619 12.4527 17.7358 11.0267 17.7358 9.27492C17.7358 7.65824 18.9513 6.31961 20.5164 6.12498V9.67214H24.0635C23.8689 11.2372 22.5303 12.4527 20.9136 12.4527Z" fill="black"/>
<path d="M24.8858 9.27492C24.8858 7.08625 23.1023 5.30273 20.9136 5.30273H20.5164V5.3226C18.5104 5.5212 16.9414 7.21733 16.9414 9.27492C16.9414 11.4636 18.7249 13.2471 20.9136 13.2471C22.9712 13.2471 24.6673 11.6781 24.8659 9.67214H24.8858V9.27492ZM21.3108 6.12498C21.3267 6.12895 21.3426 6.12895 21.3585 6.13292C21.5094 6.15278 21.6604 6.18456 21.8034 6.22825C21.8153 6.23223 21.8272 6.23223 21.8391 6.2362C21.9901 6.28386 22.1331 6.33947 22.2721 6.407C22.2999 6.41892 22.3237 6.43084 22.3515 6.44672C22.4866 6.51425 22.6137 6.59369 22.7368 6.67711C22.7607 6.693 22.7805 6.70889 22.8004 6.72478C22.9235 6.81614 23.0467 6.91544 23.1539 7.02666C23.2651 7.13788 23.3644 7.25705 23.4558 7.38019C23.4717 7.40005 23.4876 7.42388 23.5035 7.44374C23.5908 7.56688 23.6663 7.69399 23.7338 7.82904C23.7458 7.85288 23.7577 7.88068 23.7696 7.90849C23.8371 8.04752 23.8967 8.19051 23.9404 8.34146C23.9444 8.35337 23.9444 8.36132 23.9483 8.37323C23.992 8.5202 24.0238 8.67115 24.0437 8.82606C24.0476 8.84195 24.0476 8.85784 24.0516 8.87373H21.3108V6.12498ZM20.9136 12.4527C19.1619 12.4527 17.7358 11.0267 17.7358 9.27492C17.7358 7.65824 18.9513 6.31961 20.5164 6.12498V9.67214H24.0635C23.8689 11.2372 22.5303 12.4527 20.9136 12.4527Z" fill="url(#paint7_linear_332_1173)"/>
<path d="M32.2105 19.2053H0V19.9998H32.2105V19.2053Z" fill="black"/>
<path d="M32.2105 19.2053H0V19.9998H32.2105V19.2053Z" fill="url(#paint8_linear_332_1173)"/>
<path d="M0.794437 18.6137V17.8748H3.57497H12.711V18.6137H19.4637V17.8748H28.997H31.3803V18.6137H32.1747V17.0804H28.997V1.19166C28.997 0.536245 28.4607 0 27.8053 0H4.76662C4.11121 0 3.57497 0.536245 3.57497 1.19166V17.0804H0V18.6137H0.794437ZM4.3694 1.19166C4.3694 0.973186 4.54815 0.794437 4.76662 0.794437H27.8053C28.0238 0.794437 28.2025 0.973186 28.2025 1.19166V17.0804H19.0665H18.6693V17.8748H13.5054V17.0804H13.1082H4.3694V1.19166Z" fill="black"/>
<path d="M0.794437 18.6137V17.8748H3.57497H12.711V18.6137H19.4637V17.8748H28.997H31.3803V18.6137H32.1747V17.0804H28.997V1.19166C28.997 0.536245 28.4607 0 27.8053 0H4.76662C4.11121 0 3.57497 0.536245 3.57497 1.19166V17.0804H0V18.6137H0.794437ZM4.3694 1.19166C4.3694 0.973186 4.54815 0.794437 4.76662 0.794437H27.8053C28.0238 0.794437 28.2025 0.973186 28.2025 1.19166V17.0804H19.0665H18.6693V17.8748H13.5054V17.0804H13.1082H4.3694V1.19166Z" fill="url(#paint9_linear_332_1173)"/>
<defs>
<linearGradient id="paint0_linear_332_1173" x1="6.32345" y1="1.72792" x2="43.6865" y2="3.17328" gradientUnits="userSpaceOnUse">
<stop stop-color="#11AE88"/>
<stop offset="1" stop-color="#2A84EE"/>
</linearGradient>
<linearGradient id="paint1_linear_332_1173" x1="7.05687" y1="9.67249" x2="8.3932" y2="9.68103" gradientUnits="userSpaceOnUse">
<stop stop-color="#11AE88"/>
<stop offset="1" stop-color="#2A84EE"/>
</linearGradient>
<linearGradient id="paint2_linear_332_1173" x1="7.05687" y1="9.67249" x2="8.3932" y2="9.68103" gradientUnits="userSpaceOnUse">
<stop stop-color="#11AE88"/>
<stop offset="1" stop-color="#2A84EE"/>
</linearGradient>
<linearGradient id="paint3_linear_332_1173" x1="9.04222" y1="6.09717" x2="10.3786" y2="6.10119" gradientUnits="userSpaceOnUse">
<stop stop-color="#11AE88"/>
<stop offset="1" stop-color="#2A84EE"/>
</linearGradient>
<linearGradient id="paint4_linear_332_1173" x1="11.0298" y1="7.68604" x2="12.3661" y2="7.69129" gradientUnits="userSpaceOnUse">
<stop stop-color="#11AE88"/>
<stop offset="1" stop-color="#2A84EE"/>
</linearGradient>
<linearGradient id="paint5_linear_332_1173" x1="13.0173" y1="8.48047" x2="14.3537" y2="8.48668" gradientUnits="userSpaceOnUse">
<stop stop-color="#11AE88"/>
<stop offset="1" stop-color="#2A84EE"/>
</linearGradient>
<linearGradient id="paint6_linear_332_1173" x1="15.0002" y1="6.49463" x2="16.3366" y2="6.4989" gradientUnits="userSpaceOnUse">
<stop stop-color="#11AE88"/>
<stop offset="1" stop-color="#2A84EE"/>
</linearGradient>
<linearGradient id="paint7_linear_332_1173" x1="17.4051" y1="5.30274" x2="30.7603" y2="5.64409" gradientUnits="userSpaceOnUse">
<stop stop-color="#11AE88"/>
<stop offset="1" stop-color="#2A84EE"/>
</linearGradient>
<linearGradient id="paint8_linear_332_1173" x1="1.87999" y1="19.2053" x2="28.0064" y2="46.2801" gradientUnits="userSpaceOnUse">
<stop stop-color="#11AE88"/>
<stop offset="1" stop-color="#2A84EE"/>
</linearGradient>
<linearGradient id="paint9_linear_332_1173" x1="1.8779" y1="1.58453e-05" x2="55.8964" y2="2.38658" gradientUnits="userSpaceOnUse">
<stop stop-color="#11AE88"/>
<stop offset="1" stop-color="#2A84EE"/>
</linearGradient>
</defs>
</svg>
