<svg width="260" height="26" viewBox="0 0 260 26" fill="none" xmlns="http://www.w3.org/2000/svg">
<path d="M51.7122 21.6432C51.2015 21.6432 50.8184 21.5646 50.5631 21.4074C50.3077 21.2503 50.1407 21.0342 50.0622 20.7592C50.0032 20.4842 49.9738 20.1797 49.9738 19.8457V2.84402C49.9738 2.52972 50.0032 2.24488 50.0622 1.98951C50.1407 1.7145 50.3077 1.49842 50.5631 1.34127C50.8184 1.16447 51.2211 1.07608 51.7712 1.07608C52.1837 1.07608 52.4882 1.10554 52.6846 1.16447C52.9007 1.20376 53.0677 1.27252 53.1855 1.37073C53.3034 1.44931 53.4212 1.55735 53.5391 1.69486L60.7287 11.7427H60.051L67.2701 1.66539C67.4076 1.50824 67.5452 1.39038 67.6827 1.3118C67.8202 1.23323 67.997 1.1743 68.213 1.13501C68.4291 1.09572 68.714 1.07608 69.0676 1.07608C69.5979 1.07608 69.9908 1.16447 70.2462 1.34127C70.5015 1.49842 70.6587 1.7145 70.7176 1.98951C70.7962 2.26453 70.8355 2.56901 70.8355 2.90295V19.9047C70.8355 20.1993 70.7962 20.4842 70.7176 20.7592C70.6587 21.0342 70.5015 21.2503 70.2462 21.4074C69.9908 21.5646 69.5881 21.6432 69.0381 21.6432C68.5077 21.6432 68.1148 21.5548 67.8595 21.378C67.6041 21.2208 67.4371 21.0047 67.3585 20.7297C67.2996 20.4547 67.2701 20.16 67.2701 19.8457V7.20495L61.9074 14.9544C61.8484 15.033 61.76 15.141 61.6422 15.2786C61.5243 15.3964 61.3672 15.5045 61.1707 15.6027C60.9743 15.7009 60.7091 15.75 60.3752 15.75C60.0609 15.75 59.8055 15.7009 59.609 15.6027C59.4126 15.5045 59.2555 15.3964 59.1376 15.2786C59.0394 15.1607 58.9412 15.0428 58.8429 14.925L53.5096 7.20495V19.9047C53.5096 20.1993 53.4704 20.4842 53.3918 20.7592C53.3328 21.0342 53.1757 21.2503 52.9203 21.4074C52.665 21.5646 52.2623 21.6432 51.7122 21.6432Z" fill="#212121"/>
<path d="M78.329 21.6432C77.779 21.6432 77.3763 21.5646 77.1209 21.4074C76.8655 21.2503 76.7084 21.0342 76.6494 20.7592C76.5905 20.4645 76.5611 20.16 76.5611 19.8457V2.84402C76.5611 2.52972 76.5905 2.24488 76.6494 1.98951C76.728 1.7145 76.895 1.49842 77.1504 1.34127C77.4057 1.16447 77.8084 1.07608 78.3585 1.07608H84.6052C85.4695 1.07608 86.3142 1.22341 87.1392 1.51806C87.9643 1.81272 88.7009 2.25471 89.3492 2.84402C90.0171 3.43333 90.5376 4.16016 90.9109 5.02448C91.3037 5.88881 91.5002 6.90047 91.5002 8.05945C91.5002 9.1988 91.3037 10.2006 90.9109 11.065C90.5376 11.9096 90.0171 12.6266 89.3492 13.216C88.6813 13.8053 87.9348 14.2473 87.1098 14.5419C86.3044 14.8366 85.4597 14.9839 84.5757 14.9839H80.1264V19.8752C80.1264 20.1895 80.0871 20.4842 80.0085 20.7592C79.9496 21.0342 79.7925 21.2503 79.5371 21.4074C79.3014 21.5646 78.8987 21.6432 78.329 21.6432ZM80.1264 11.3891H84.6052C85.2142 11.3891 85.7642 11.2712 86.2553 11.0355C86.766 10.7801 87.1785 10.4069 87.4928 9.91579C87.8071 9.40506 87.9643 8.76663 87.9643 8.00052C87.9643 7.31299 87.817 6.72367 87.5223 6.23258C87.2473 5.72184 86.8544 5.32896 86.3437 5.05395C85.8526 4.77894 85.2633 4.64143 84.5757 4.64143H80.1264V11.3891Z" fill="#212121"/>
<path d="M112.616 19.168C112.812 19.5413 112.911 19.8752 112.911 20.1699C112.93 20.4449 112.852 20.6904 112.675 20.9065C112.498 21.1029 112.204 21.3092 111.791 21.5253C111.162 21.82 110.671 21.8985 110.318 21.761C109.984 21.6235 109.669 21.2405 109.375 20.6119L102.804 6.7335L96.2626 20.6119C95.9679 21.2208 95.6438 21.5842 95.2902 21.7021C94.9366 21.8396 94.4455 21.7708 93.8169 21.4958C93.424 21.2994 93.1294 21.0931 92.9329 20.877C92.7562 20.661 92.6776 20.4056 92.6972 20.1109C92.7365 19.7966 92.8642 19.4234 93.0803 18.9912L101.183 2.10738C101.341 1.79308 101.566 1.54753 101.861 1.37073C102.175 1.1743 102.499 1.07608 102.833 1.07608C103.069 1.07608 103.285 1.11536 103.482 1.19394C103.678 1.27251 103.855 1.39038 104.012 1.54753C104.189 1.70468 104.336 1.90112 104.454 2.13684L112.616 19.168ZM97.5591 16.3099L98.9734 13.2749H106.664L108.078 16.3099H97.5591Z" fill="#212121"/>
<path d="M123.549 21.9378C122.665 21.9378 121.86 21.8298 121.133 21.6137C120.426 21.3976 119.797 21.1226 119.247 20.7886C118.717 20.4547 118.265 20.1109 117.892 19.7573C117.519 19.4038 117.244 19.0796 117.067 18.785C116.812 18.4314 116.645 18.1171 116.566 17.8421C116.487 17.5671 116.507 17.3019 116.625 17.0465C116.763 16.7715 117.008 16.4866 117.362 16.192C117.715 15.8777 118.039 15.7205 118.334 15.7205C118.648 15.7009 118.943 15.7893 119.218 15.9857C119.513 16.1822 119.797 16.4572 120.072 16.8108C120.544 17.4394 121.074 17.8912 121.664 18.1662C122.253 18.4216 122.842 18.5493 123.432 18.5493C124.198 18.5493 124.866 18.451 125.435 18.2546C126.005 18.0385 126.447 17.7242 126.761 17.3117C127.095 16.8992 127.262 16.3688 127.262 15.7205C127.262 15.1902 127.095 14.758 126.761 14.424C126.447 14.0705 126.025 13.7758 125.494 13.5401C124.964 13.2847 124.365 13.0588 123.697 12.8624C123.049 12.6463 122.39 12.4106 121.723 12.1552C121.251 11.998 120.78 11.8114 120.308 11.5953C119.837 11.3596 119.395 11.0944 118.982 10.7998C118.589 10.5051 118.236 10.1613 117.921 9.76847C117.627 9.35595 117.391 8.88449 117.214 8.35411C117.038 7.82373 116.949 7.20495 116.949 6.49777C116.949 5.37807 117.224 4.39588 117.774 3.5512C118.324 2.68687 119.09 2.00916 120.072 1.51806C121.055 1.00732 122.174 0.751953 123.432 0.751953C124.237 0.751953 124.954 0.830529 125.583 0.987679C126.231 1.12519 126.781 1.3118 127.233 1.54753C127.704 1.76361 128.087 1.98951 128.382 2.22524C128.696 2.44132 128.922 2.62794 129.06 2.78509C129.511 3.2369 129.757 3.61995 129.796 3.93425C129.855 4.22891 129.678 4.63161 129.266 5.14235C128.853 5.67273 128.451 5.96739 128.058 6.02632C127.684 6.06561 127.262 5.90845 126.791 5.55487C126.476 5.22092 126.162 4.95573 125.848 4.75929C125.533 4.54321 125.18 4.38606 124.787 4.28784C124.414 4.18962 123.952 4.14051 123.402 4.14051C123.009 4.14051 122.626 4.19944 122.253 4.31731C121.899 4.41553 121.595 4.57268 121.34 4.78876C121.084 4.9852 120.878 5.23074 120.721 5.5254C120.583 5.82006 120.514 6.154 120.514 6.52724C120.514 7.03798 120.652 7.46032 120.927 7.79426C121.222 8.10856 121.615 8.37375 122.106 8.58984C122.597 8.78627 123.147 8.97289 123.756 9.14969C124.365 9.32648 124.983 9.5131 125.612 9.70953C126.26 9.92562 126.899 10.181 127.527 10.4756C128.156 10.7703 128.716 11.1435 129.207 11.5953C129.698 12.0275 130.091 12.5775 130.385 13.2454C130.68 13.8937 130.827 14.6892 130.827 15.6321C130.827 16.7126 130.621 17.6555 130.209 18.4609C129.796 19.2663 129.236 19.9243 128.529 20.4351C127.822 20.9458 127.036 21.319 126.172 21.5548C125.308 21.8101 124.433 21.9378 123.549 21.9378Z" fill="#212121"/>
<path d="M142.107 21.9378C141.223 21.9378 140.418 21.8298 139.691 21.6137C138.984 21.3976 138.355 21.1226 137.805 20.7886C137.275 20.4547 136.823 20.1109 136.45 19.7573C136.076 19.4038 135.801 19.0796 135.625 18.785C135.369 18.4314 135.202 18.1171 135.124 17.8421C135.045 17.5671 135.065 17.3019 135.183 17.0465C135.32 16.7715 135.566 16.4866 135.919 16.192C136.273 15.8777 136.597 15.7205 136.892 15.7205C137.206 15.7009 137.501 15.7893 137.776 15.9857C138.07 16.1822 138.355 16.4572 138.63 16.8108C139.102 17.4394 139.632 17.8912 140.221 18.1662C140.811 18.4216 141.4 18.5493 141.989 18.5493C142.755 18.5493 143.423 18.451 143.993 18.2546C144.563 18.0385 145.005 17.7242 145.319 17.3117C145.653 16.8992 145.82 16.3688 145.82 15.7205C145.82 15.1902 145.653 14.758 145.319 14.424C145.005 14.0705 144.582 13.7758 144.052 13.5401C143.521 13.2847 142.922 13.0588 142.254 12.8624C141.606 12.6463 140.948 12.4106 140.28 12.1552C139.809 11.998 139.337 11.8114 138.866 11.5953C138.394 11.3596 137.952 11.0944 137.54 10.7998C137.147 10.5051 136.793 10.1613 136.479 9.76847C136.184 9.35595 135.949 8.88449 135.772 8.35411C135.595 7.82373 135.507 7.20495 135.507 6.49777C135.507 5.37807 135.782 4.39588 136.332 3.5512C136.882 2.68687 137.648 2.00916 138.63 1.51806C139.612 1.00732 140.732 0.751953 141.989 0.751953C142.795 0.751953 143.512 0.830529 144.14 0.987679C144.788 1.12519 145.339 1.3118 145.79 1.54753C146.262 1.76361 146.645 1.98951 146.939 2.22524C147.254 2.44132 147.48 2.62794 147.617 2.78509C148.069 3.2369 148.315 3.61995 148.354 3.93425C148.413 4.22891 148.236 4.63161 147.823 5.14235C147.411 5.67273 147.008 5.96739 146.615 6.02632C146.242 6.06561 145.82 5.90845 145.348 5.55487C145.034 5.22092 144.72 4.95573 144.405 4.75929C144.091 4.54321 143.738 4.38606 143.345 4.28784C142.971 4.18962 142.51 4.14051 141.96 4.14051C141.567 4.14051 141.184 4.19944 140.811 4.31731C140.457 4.41553 140.153 4.57268 139.897 4.78876C139.642 4.9852 139.436 5.23074 139.278 5.5254C139.141 5.82006 139.072 6.154 139.072 6.52724C139.072 7.03798 139.21 7.46032 139.485 7.79426C139.779 8.10856 140.172 8.37375 140.663 8.58984C141.154 8.78627 141.704 8.97289 142.313 9.14969C142.922 9.32648 143.541 9.5131 144.17 9.70953C144.818 9.92562 145.456 10.181 146.085 10.4756C146.714 10.7703 147.273 11.1435 147.765 11.5953C148.256 12.0275 148.648 12.5775 148.943 13.2454C149.238 13.8937 149.385 14.6892 149.385 15.6321C149.385 16.7126 149.179 17.6555 148.766 18.4609C148.354 19.2663 147.794 19.9243 147.087 20.4351C146.38 20.9458 145.594 21.319 144.73 21.5548C143.865 21.8101 142.991 21.9378 142.107 21.9378Z" fill="#212121"/>
<path d="M155.98 21.6726C155.43 21.6726 155.027 21.5842 154.772 21.4074C154.516 21.2503 154.359 21.0342 154.3 20.7592C154.241 20.4842 154.212 20.1797 154.212 19.8457V2.84402C154.212 2.52972 154.241 2.23506 154.3 1.96005C154.379 1.68503 154.536 1.46895 154.772 1.3118C155.027 1.15465 155.439 1.07608 156.009 1.07608C156.559 1.07608 156.952 1.15465 157.188 1.3118C157.443 1.46895 157.6 1.68503 157.659 1.96005C157.738 2.23506 157.777 2.53954 157.777 2.87349V19.8752C157.777 20.2092 157.738 20.5136 157.659 20.7886C157.6 21.044 157.443 21.2503 157.188 21.4074C156.932 21.5842 156.53 21.6726 155.98 21.6726Z" fill="#212121"/>
<path d="M169.612 21.9378C168.728 21.9378 167.922 21.8298 167.195 21.6137C166.488 21.3976 165.86 21.1226 165.31 20.7886C164.779 20.4547 164.327 20.1109 163.954 19.7573C163.581 19.4038 163.306 19.0796 163.129 18.785C162.874 18.4314 162.707 18.1171 162.628 17.8421C162.55 17.5671 162.569 17.3019 162.687 17.0465C162.825 16.7715 163.07 16.4866 163.424 16.192C163.777 15.8777 164.101 15.7205 164.396 15.7205C164.71 15.7009 165.005 15.7893 165.28 15.9857C165.575 16.1822 165.86 16.4572 166.135 16.8108C166.606 17.4394 167.136 17.8912 167.726 18.1662C168.315 18.4216 168.904 18.5493 169.494 18.5493C170.26 18.5493 170.928 18.451 171.497 18.2546C172.067 18.0385 172.509 17.7242 172.823 17.3117C173.157 16.8992 173.324 16.3688 173.324 15.7205C173.324 15.1902 173.157 14.758 172.823 14.424C172.509 14.0705 172.087 13.7758 171.556 13.5401C171.026 13.2847 170.427 13.0588 169.759 12.8624C169.111 12.6463 168.453 12.4106 167.785 12.1552C167.313 11.998 166.842 11.8114 166.37 11.5953C165.899 11.3596 165.457 11.0944 165.044 10.7998C164.651 10.5051 164.298 10.1613 163.984 9.76847C163.689 9.35595 163.453 8.88449 163.276 8.35411C163.1 7.82373 163.011 7.20495 163.011 6.49777C163.011 5.37807 163.286 4.39588 163.836 3.5512C164.386 2.68687 165.152 2.00916 166.135 1.51806C167.117 1.00732 168.236 0.751953 169.494 0.751953C170.299 0.751953 171.016 0.830529 171.645 0.987679C172.293 1.12519 172.843 1.3118 173.295 1.54753C173.766 1.76361 174.149 1.98951 174.444 2.22524C174.758 2.44132 174.984 2.62794 175.122 2.78509C175.573 3.2369 175.819 3.61995 175.858 3.93425C175.917 4.22891 175.74 4.63161 175.328 5.14235C174.915 5.67273 174.513 5.96739 174.12 6.02632C173.747 6.06561 173.324 5.90845 172.853 5.55487C172.538 5.22092 172.224 4.95573 171.91 4.75929C171.596 4.54321 171.242 4.38606 170.849 4.28784C170.476 4.18962 170.014 4.14051 169.464 4.14051C169.071 4.14051 168.688 4.19944 168.315 4.31731C167.961 4.41553 167.657 4.57268 167.402 4.78876C167.146 4.9852 166.94 5.23074 166.783 5.5254C166.645 5.82006 166.577 6.154 166.577 6.52724C166.577 7.03798 166.714 7.46032 166.989 7.79426C167.284 8.10856 167.677 8.37375 168.168 8.58984C168.659 8.78627 169.209 8.97289 169.818 9.14969C170.427 9.32648 171.046 9.5131 171.674 9.70953C172.322 9.92562 172.961 10.181 173.589 10.4756C174.218 10.7703 174.778 11.1435 175.269 11.5953C175.76 12.0275 176.153 12.5775 176.448 13.2454C176.742 13.8937 176.89 14.6892 176.89 15.6321C176.89 16.7126 176.683 17.6555 176.271 18.4609C175.858 19.2663 175.298 19.9243 174.591 20.4351C173.884 20.9458 173.098 21.319 172.234 21.5548C171.37 21.8101 170.495 21.9378 169.612 21.9378Z" fill="#212121"/>
<path d="M195.63 1.04661C195.924 1.04661 196.18 1.07608 196.396 1.13501C196.632 1.19394 196.818 1.34127 196.956 1.57699C197.093 1.79308 197.162 2.14666 197.162 2.63776C197.162 3.12886 197.093 3.49227 196.956 3.72799C196.818 3.94407 196.632 4.08158 196.396 4.14051C196.16 4.1798 195.895 4.19944 195.6 4.19944H190.179V19.9047C190.179 20.2386 190.139 20.5431 190.061 20.8181C190.002 21.0735 189.845 21.2797 189.589 21.4369C189.354 21.594 188.951 21.6726 188.381 21.6726C187.851 21.6726 187.458 21.5842 187.203 21.4074C186.947 21.2503 186.79 21.044 186.731 20.7886C186.672 20.5136 186.643 20.2092 186.643 19.8752V4.19944H181.162C180.887 4.19944 180.632 4.16998 180.396 4.11105C180.16 4.05211 179.964 3.91461 179.807 3.69853C179.669 3.48244 179.6 3.12886 179.6 2.63776C179.6 2.14666 179.669 1.79308 179.807 1.57699C179.944 1.34127 180.131 1.19394 180.367 1.13501C180.622 1.07608 180.887 1.04661 181.162 1.04661H195.63Z" fill="#212121"/>
<path d="M215.761 19.168C215.958 19.5413 216.056 19.8752 216.056 20.1699C216.075 20.4449 215.997 20.6904 215.82 20.9065C215.643 21.1029 215.349 21.3092 214.936 21.5253C214.307 21.82 213.816 21.8985 213.463 21.761C213.129 21.6235 212.814 21.2405 212.52 20.6119L205.949 6.7335L199.408 20.6119C199.113 21.2208 198.789 21.5842 198.435 21.7021C198.082 21.8396 197.591 21.7708 196.962 21.4958C196.569 21.2994 196.274 21.0931 196.078 20.877C195.901 20.661 195.823 20.4056 195.842 20.1109C195.882 19.7966 196.009 19.4234 196.225 18.9912L204.328 2.10738C204.486 1.79308 204.711 1.54753 205.006 1.37073C205.32 1.1743 205.645 1.07608 205.978 1.07608C206.214 1.07608 206.43 1.11536 206.627 1.19394C206.823 1.27251 207 1.39038 207.157 1.54753C207.334 1.70468 207.481 1.90112 207.599 2.13684L215.761 19.168ZM200.704 16.3099L202.118 13.2749H209.809L211.223 16.3099H200.704Z" fill="#212121"/>
<path d="M222.009 21.6432C221.479 21.6432 221.086 21.5548 220.831 21.378C220.595 21.2208 220.438 21.0047 220.359 20.7297C220.3 20.4547 220.271 20.16 220.271 19.8457V2.75562C220.271 2.46097 220.31 2.18595 220.389 1.93058C220.467 1.67521 220.634 1.46895 220.89 1.3118C221.165 1.15465 221.567 1.07608 222.098 1.07608C222.687 1.07608 223.09 1.14483 223.306 1.28234C223.542 1.4002 223.758 1.57699 223.954 1.81272L233.796 15.5732V2.75562C233.796 2.46097 233.835 2.18595 233.914 1.93058C233.992 1.67521 234.159 1.46895 234.414 1.3118C234.67 1.15465 235.063 1.07608 235.593 1.07608C236.143 1.07608 236.536 1.16447 236.772 1.34127C237.027 1.49842 237.184 1.7145 237.243 1.98951C237.322 2.26453 237.361 2.56901 237.361 2.90295V19.8752C237.361 20.1895 237.312 20.4842 237.214 20.7592C237.135 21.0146 236.958 21.2208 236.683 21.378C236.428 21.5548 236.025 21.6432 235.475 21.6432C235.043 21.6432 234.699 21.6039 234.444 21.5253C234.208 21.4467 233.992 21.2797 233.796 21.0244L223.807 7.29335V19.8752C223.807 20.1895 223.768 20.4842 223.689 20.7592C223.63 21.0146 223.473 21.2208 223.218 21.378C222.962 21.5548 222.559 21.6432 222.009 21.6432Z" fill="#212121"/>
<path d="M258.468 1.04661C258.762 1.04661 259.018 1.07608 259.234 1.13501C259.47 1.19394 259.656 1.34127 259.794 1.57699C259.931 1.79308 260 2.14666 260 2.63776C260 3.12886 259.931 3.49227 259.794 3.72799C259.656 3.94407 259.47 4.08158 259.234 4.14051C258.998 4.1798 258.733 4.19944 258.438 4.19944H253.017V19.9047C253.017 20.2386 252.977 20.5431 252.899 20.8181C252.84 21.0735 252.683 21.2797 252.427 21.4369C252.192 21.594 251.789 21.6726 251.219 21.6726C250.689 21.6726 250.296 21.5842 250.041 21.4074C249.785 21.2503 249.628 21.044 249.569 20.7886C249.51 20.5136 249.481 20.2092 249.481 19.8752V4.19944H244C243.725 4.19944 243.47 4.16998 243.234 4.11105C242.998 4.05211 242.802 3.91461 242.645 3.69853C242.507 3.48244 242.438 3.12886 242.438 2.63776C242.438 2.14666 242.507 1.79308 242.645 1.57699C242.782 1.34127 242.969 1.19394 243.204 1.13501C243.46 1.07608 243.725 1.04661 244 1.04661H258.468Z" fill="#212121"/>
<path d="M36.9447 16.0055C35.5934 17.0589 33.8799 17.5956 32.1368 17.5118C30.7681 17.3116 29.4637 16.8224 28.3184 16.0802C27.8849 16.546 27.4212 16.9857 26.9299 17.3961C27.2856 17.603 27.6501 17.8018 28.0148 17.9921V17.9917C29.5175 18.8662 31.2442 19.3273 33.0046 19.3243C34.7783 19.2013 36.4755 18.5888 37.8904 17.5617C38.8709 16.8996 37.9338 15.3353 36.9447 16.0055Z" fill="#11AE88"/>
<path d="M24.1441 13.0378C23.676 13.5254 23.1545 13.9596 22.5895 14.332C21.5356 13.5449 20.508 12.7493 19.4803 11.9533C16.9596 9.99428 14.1405 7.83468 10.7941 7.76442L10.7944 7.76481C9.32016 7.67541 7.86445 8.12632 6.70152 9.03285C6.50195 9.20384 6.31689 9.39083 6.14829 9.59228C5.79306 10.0073 5.49743 10.4695 5.27003 10.9653C4.9889 11.6102 4.77129 12.2809 4.62034 12.9679C4.5678 13.1866 4.52389 13.3966 4.47998 13.6062C4.40392 13.9912 4.32785 14.3757 4.25179 14.7606C3.60171 18.1188 3.11868 21.5293 2.54775 24.9045C2.34583 26.1112 0.510073 25.5955 0.712024 24.3974L1.8891 17.4016C2.12631 16.0286 2.30197 14.6119 2.59171 13.2303C2.71483 12.6358 2.86382 12.0413 3.04849 11.4814L3.16259 11.1402H3.1622C3.34256 10.6057 3.57506 10.0904 3.85619 9.60132C4.12163 9.1348 4.43647 8.69795 4.79601 8.2982C6.05771 6.90494 7.80922 6.04726 9.68761 5.90235C12.9109 5.5877 15.9056 7.03916 18.4703 8.84937C20.4025 10.2133 22.2469 11.6649 24.1441 13.0378Z" fill="#11AE88"/>
<path d="M1.61491 7.29482C0.741142 6.45434 -0.569511 7.73194 0.269107 8.58934C0.810923 9.13565 1.36137 9.69023 1.91169 10.2703H1.91208C2.14379 9.66696 2.43634 9.08729 2.78585 8.53872L1.61491 7.29482Z" fill="#2A84EE"/>
<path d="M33.8037 2.20036C32.4807 5.58352 30.9546 8.88441 29.2343 12.0853C28.858 12.7443 28.4457 13.3819 27.9997 13.9961C27.6859 14.4234 27.3498 14.8339 26.9931 15.2262C26.5495 15.7177 26.0696 16.1757 25.5576 16.596C25.116 16.9263 24.6509 17.2238 24.1655 17.486L23.6665 17.7652C21.0665 19.0365 18.1155 19.4077 15.2801 18.8208C11.8484 18.0951 8.66334 16.4959 6.03601 14.1792L6.07978 13.961C6.19976 13.3425 6.3635 12.7334 6.56985 12.1379C10.3693 15.4095 14.8073 17.9482 19.9641 17.0412C20.8141 16.8951 21.6391 16.631 22.4153 16.256C22.9335 16.0094 23.4287 15.7177 23.8949 15.3835C24.4373 14.9893 24.9438 14.5484 25.4093 14.0658C25.7763 13.6845 26.1213 13.2826 26.4422 12.8619C26.8681 12.3046 27.2601 11.7219 27.6154 11.117C29.3318 7.92162 30.8548 4.62651 32.1761 1.24964C32.649 0.132592 34.2947 1.09229 33.8042 2.20039L33.8037 2.20036Z" fill="#2A84EE"/>
</svg>
