<svg width="14" height="13" viewBox="0 0 14 13" fill="none" xmlns="http://www.w3.org/2000/svg">
<path d="M14 0H7.1445V2.11345H11.7683V10.8865H7.1445V13H14V0ZM0 5.56491H5.66743L4.25459 4.2269L5.63532 2.9193L9.42431 6.4924L5.65138 10.0655L4.27064 8.7579L5.68349 7.41988H0.0321093V5.56491H0Z" fill="#FF010B"/>
<path d="M14 0H7.1445V2.11345H11.7683V10.8865H7.1445V13H14V0ZM0 5.56491H5.66743L4.25459 4.2269L5.63532 2.9193L9.42431 6.4924L5.65138 10.0655L4.27064 8.7579L5.68349 7.41988H0.0321093V5.56491H0Z" fill="url(#paint0_linear_332_712)"/>
<defs>
<linearGradient id="paint0_linear_332_712" x1="13.1829" y1="1.10666e-05" x2="-10.3499" y2="0.647759" gradientUnits="userSpaceOnUse">
<stop stop-color="#11AE88"/>
<stop offset="1" stop-color="#2A84EE"/>
</linearGradient>
</defs>
</svg>
