<svg width="189" height="18" viewBox="0 0 189 18" fill="none" xmlns="http://www.w3.org/2000/svg">
<path d="M38.1634 15.0335C37.7958 15.0335 37.5202 14.977 37.3364 14.8639C37.1527 14.7508 37.0325 14.5953 36.976 14.3974C36.9336 14.1995 36.9124 13.9804 36.9124 13.7401V1.50547C36.9124 1.2793 36.9336 1.07433 36.976 0.890562C37.0325 0.692659 37.1527 0.537165 37.3364 0.424078C37.5202 0.296855 37.81 0.233243 38.2058 0.233243C38.5026 0.233243 38.7217 0.254447 38.8631 0.296854C39.0186 0.325126 39.1388 0.374602 39.2236 0.445282C39.3084 0.501825 39.3932 0.579573 39.478 0.678524L44.6518 7.90904H44.1641L49.359 0.65732C49.458 0.544232 49.5569 0.459417 49.6559 0.402873C49.7548 0.346329 49.882 0.303922 50.0375 0.27565C50.193 0.247379 50.398 0.233243 50.6525 0.233243C51.0341 0.233243 51.3168 0.296855 51.5006 0.424078C51.6844 0.537165 51.7975 0.692659 51.8399 0.890562C51.8964 1.08846 51.9247 1.30757 51.9247 1.54788V13.7825C51.9247 13.9945 51.8964 14.1995 51.8399 14.3974C51.7975 14.5953 51.6844 14.7508 51.5006 14.8639C51.3168 14.977 51.0271 15.0335 50.6313 15.0335C50.2496 15.0335 49.9669 14.9699 49.7831 14.8427C49.5993 14.7296 49.4792 14.5741 49.4226 14.3762C49.3802 14.1783 49.359 13.9663 49.359 13.7401V4.64365L45.4999 10.2203C45.4575 10.2768 45.3939 10.3546 45.3091 10.4535C45.2243 10.5383 45.1112 10.6161 44.9698 10.6867C44.8285 10.7574 44.6376 10.7928 44.3973 10.7928C44.1711 10.7928 43.9874 10.7574 43.846 10.6867C43.7047 10.6161 43.5916 10.5383 43.5068 10.4535C43.4361 10.3687 43.3654 10.2839 43.2947 10.1991L39.4568 4.64365V13.7825C39.4568 13.9945 39.4285 14.1995 39.372 14.3974C39.3296 14.5953 39.2165 14.7508 39.0327 14.8639C38.849 14.977 38.5592 15.0335 38.1634 15.0335Z" fill="#212121"/>
<path d="M57.3171 15.0335C56.9213 15.0335 56.6315 14.977 56.4477 14.8639C56.264 14.7508 56.1509 14.5953 56.1085 14.3974C56.0661 14.1854 56.0449 13.9663 56.0449 13.7401V1.50547C56.0449 1.2793 56.0661 1.07433 56.1085 0.890562C56.165 0.692659 56.2852 0.537165 56.4689 0.424078C56.6527 0.296855 56.9425 0.233243 57.3383 0.233243H61.8335C62.4555 0.233243 63.0633 0.339262 63.657 0.551301C64.2508 0.763339 64.7809 1.0814 65.2473 1.50547C65.728 1.92955 66.1026 2.45258 66.3711 3.07456C66.6539 3.69654 66.7952 4.42454 66.7952 5.25856C66.7952 6.07844 66.6539 6.79937 66.3711 7.42135C66.1026 8.02919 65.728 8.54516 65.2473 8.96923C64.7667 9.39331 64.2296 9.71137 63.6358 9.92341C63.0563 10.1354 62.4484 10.2415 61.8123 10.2415H58.6105V13.7613C58.6105 13.9875 58.5823 14.1995 58.5257 14.3974C58.4833 14.5953 58.3702 14.7508 58.1865 14.8639C58.0168 14.977 57.727 15.0335 57.3171 15.0335ZM58.6105 7.65459H61.8335C62.2717 7.65459 62.6675 7.56978 63.0209 7.40015C63.3885 7.21638 63.6853 6.9478 63.9115 6.5944C64.1377 6.22687 64.2508 5.76745 64.2508 5.21615C64.2508 4.72139 64.1447 4.29732 63.9327 3.94392C63.7348 3.57639 63.4521 3.29367 63.0845 3.09576C62.7311 2.89786 62.3071 2.79891 61.8123 2.79891H58.6105V7.65459Z" fill="#212121"/>
<path d="M81.9904 13.2524C82.1318 13.521 82.2025 13.7613 82.2025 13.9733C82.2166 14.1712 82.1601 14.3479 82.0328 14.5034C81.9056 14.6448 81.6936 14.7932 81.3967 14.9487C80.9444 15.1608 80.591 15.2173 80.3365 15.1184C80.0962 15.0194 79.8701 14.7438 79.658 14.2914L74.9296 4.30438L70.2223 14.2914C70.0103 14.7296 69.777 14.9911 69.5226 15.0759C69.2681 15.1749 68.9147 15.1254 68.4624 14.9275C68.1797 14.7862 67.9676 14.6377 67.8263 14.4822C67.699 14.3267 67.6425 14.143 67.6566 13.9309C67.6849 13.7048 67.7768 13.4362 67.9323 13.1252L73.7633 0.975378C73.8764 0.749204 74.039 0.572505 74.251 0.445282C74.4772 0.303923 74.7104 0.233243 74.9508 0.233243C75.1204 0.233243 75.2759 0.261515 75.4172 0.318058C75.5586 0.374601 75.6858 0.459417 75.7989 0.572504C75.9261 0.685592 76.0322 0.826951 76.117 0.996581L81.9904 13.2524ZM71.1553 11.1956L72.173 9.01164H77.7073L78.725 11.1956H71.1553Z" fill="#212121"/>
<path d="M89.8582 15.2456C89.2221 15.2456 88.6425 15.1678 88.1195 15.0123C87.6106 14.8568 87.1583 14.6589 86.7625 14.4186C86.3808 14.1783 86.0557 13.9309 85.7871 13.6765C85.5185 13.422 85.3206 13.1888 85.1934 12.9768C85.0096 12.7223 84.8895 12.4961 84.8329 12.2982C84.7764 12.1003 84.7905 11.9095 84.8753 11.7257C84.9743 11.5278 85.151 11.3229 85.4054 11.1108C85.6599 10.8846 85.8931 10.7716 86.1051 10.7716C86.3313 10.7574 86.5434 10.821 86.7413 10.9624C86.9533 11.1038 87.1583 11.3017 87.3562 11.5561C87.6954 12.0085 88.0771 12.3336 88.5012 12.5315C88.9253 12.7152 89.3493 12.8071 89.7734 12.8071C90.3247 12.8071 90.8053 12.7365 91.2153 12.5951C91.6252 12.4396 91.9433 12.2134 92.1694 11.9166C92.4098 11.6197 92.5299 11.238 92.5299 10.7716C92.5299 10.3899 92.4098 10.0789 92.1694 9.83859C91.9433 9.58414 91.6394 9.37211 91.2577 9.20248C90.876 9.01871 90.4449 8.85615 89.9642 8.71479C89.4978 8.55929 89.0242 8.38966 88.5436 8.20589C88.2043 8.09281 87.8651 7.95852 87.5258 7.80302C87.1865 7.63339 86.8685 7.44255 86.5716 7.23052C86.2889 7.01848 86.0345 6.7711 85.8083 6.48838C85.5962 6.19153 85.4266 5.85227 85.2994 5.4706C85.1722 5.08893 85.1086 4.64365 85.1086 4.13475C85.1086 3.32901 85.3065 2.62221 85.7023 2.01437C86.0981 1.39239 86.6494 0.904698 87.3562 0.551301C88.063 0.183767 88.8687 0 89.7734 0C90.353 0 90.8689 0.0565437 91.3213 0.169631C91.7878 0.268582 92.1836 0.402873 92.5087 0.572504C92.848 0.727999 93.1236 0.890562 93.3357 1.06019C93.5618 1.21569 93.7244 1.34998 93.8234 1.46307C94.1485 1.78819 94.3252 2.06384 94.3534 2.29002C94.3959 2.50206 94.2686 2.79184 93.9718 3.15938C93.6749 3.54104 93.3851 3.75308 93.1024 3.79549C92.8338 3.82376 92.5299 3.71068 92.1907 3.45623C91.9645 3.21592 91.7383 3.02508 91.5121 2.88373C91.286 2.72823 91.0315 2.61514 90.7488 2.54446C90.4802 2.47378 90.148 2.43844 89.7522 2.43844C89.4695 2.43844 89.1938 2.48085 88.9253 2.56567C88.6708 2.63635 88.4517 2.74943 88.2679 2.90493C88.0842 3.04629 87.9357 3.22299 87.8227 3.43503C87.7237 3.64706 87.6742 3.88737 87.6742 4.15596C87.6742 4.52349 87.7732 4.82741 87.9711 5.06772C88.1831 5.2939 88.4658 5.48473 88.8192 5.64023C89.1726 5.78159 89.5684 5.91588 90.0067 6.0431C90.4449 6.17032 90.8902 6.30461 91.3425 6.44597C91.809 6.60147 92.2684 6.78524 92.7207 6.99727C93.1731 7.20931 93.576 7.47789 93.9294 7.80302C94.2828 8.11401 94.5655 8.50982 94.7775 8.99044C94.9896 9.45692 95.0956 10.0294 95.0956 10.7079C95.0956 11.4854 94.9472 12.1639 94.6503 12.7435C94.3534 13.3231 93.9506 13.7966 93.4417 14.1642C92.9328 14.5317 92.3673 14.8003 91.7454 14.9699C91.1234 15.1537 90.4943 15.2456 89.8582 15.2456Z" fill="#212121"/>
<path d="M103.213 15.2456C102.576 15.2456 101.997 15.1678 101.474 15.0123C100.965 14.8568 100.513 14.6589 100.117 14.4186C99.7351 14.1783 99.41 13.9309 99.1414 13.6765C98.8728 13.422 98.6749 13.1888 98.5477 12.9768C98.3639 12.7223 98.2437 12.4961 98.1872 12.2982C98.1307 12.1003 98.1448 11.9095 98.2296 11.7257C98.3286 11.5278 98.5053 11.3229 98.7597 11.1108C99.0142 10.8846 99.2474 10.7716 99.4594 10.7716C99.6856 10.7574 99.8976 10.821 100.096 10.9624C100.308 11.1038 100.513 11.3017 100.71 11.5561C101.05 12.0085 101.431 12.3336 101.855 12.5315C102.28 12.7152 102.704 12.8071 103.128 12.8071C103.679 12.8071 104.16 12.7365 104.57 12.5951C104.98 12.4396 105.298 12.2134 105.524 11.9166C105.764 11.6197 105.884 11.238 105.884 10.7716C105.884 10.3899 105.764 10.0789 105.524 9.83859C105.298 9.58414 104.994 9.37211 104.612 9.20248C104.23 9.01871 103.799 8.85615 103.319 8.71479C102.852 8.55929 102.379 8.38966 101.898 8.20589C101.559 8.09281 101.219 7.95852 100.88 7.80302C100.541 7.63339 100.223 7.44255 99.9259 7.23052C99.6432 7.01848 99.3888 6.7711 99.1626 6.48838C98.9505 6.19153 98.7809 5.85227 98.6537 5.4706C98.5265 5.08893 98.4629 4.64365 98.4629 4.13475C98.4629 3.32901 98.6608 2.62221 99.0566 2.01437C99.4524 1.39239 100.004 0.904698 100.71 0.551301C101.417 0.183767 102.223 0 103.128 0C103.707 0 104.223 0.0565437 104.676 0.169631C105.142 0.268582 105.538 0.402873 105.863 0.572504C106.202 0.727999 106.478 0.890562 106.69 1.06019C106.916 1.21569 107.079 1.34998 107.178 1.46307C107.503 1.78819 107.679 2.06384 107.708 2.29002C107.75 2.50206 107.623 2.79184 107.326 3.15938C107.029 3.54104 106.739 3.75308 106.457 3.79549C106.188 3.82376 105.884 3.71068 105.545 3.45623C105.319 3.21592 105.093 3.02508 104.866 2.88373C104.64 2.72823 104.386 2.61514 104.103 2.54446C103.834 2.47378 103.502 2.43844 103.106 2.43844C102.824 2.43844 102.548 2.48085 102.28 2.56567C102.025 2.63635 101.806 2.74943 101.622 2.90493C101.438 3.04629 101.29 3.22299 101.177 3.43503C101.078 3.64706 101.029 3.88737 101.029 4.15596C101.029 4.52349 101.127 4.82741 101.325 5.06772C101.537 5.2939 101.82 5.48473 102.174 5.64023C102.527 5.78159 102.923 5.91588 103.361 6.0431C103.799 6.17032 104.244 6.30461 104.697 6.44597C105.163 6.60147 105.623 6.78524 106.075 6.99727C106.527 7.20931 106.93 7.47789 107.284 7.80302C107.637 8.11401 107.92 8.50982 108.132 8.99044C108.344 9.45692 108.45 10.0294 108.45 10.7079C108.45 11.4854 108.301 12.1639 108.005 12.7435C107.708 13.3231 107.305 13.7966 106.796 14.1642C106.287 14.5317 105.722 14.8003 105.1 14.9699C104.478 15.1537 103.849 15.2456 103.213 15.2456Z" fill="#212121"/>
<path d="M113.195 15.0547C112.8 15.0547 112.51 14.9911 112.326 14.8639C112.142 14.7508 112.029 14.5953 111.987 14.3974C111.944 14.1995 111.923 13.9804 111.923 13.7401V1.50547C111.923 1.2793 111.944 1.06726 111.987 0.869358C112.043 0.671456 112.156 0.515961 112.326 0.402873C112.51 0.289787 112.807 0.233243 113.217 0.233243C113.612 0.233243 113.895 0.289787 114.065 0.402873C114.249 0.515961 114.362 0.671456 114.404 0.869358C114.461 1.06726 114.489 1.28637 114.489 1.52668V13.7613C114.489 14.0016 114.461 14.2207 114.404 14.4186C114.362 14.6024 114.249 14.7508 114.065 14.8639C113.881 14.9911 113.591 15.0547 113.195 15.0547Z" fill="#212121"/>
<path d="M123.005 15.2456C122.369 15.2456 121.789 15.1678 121.266 15.0123C120.757 14.8568 120.305 14.6589 119.909 14.4186C119.528 14.1783 119.202 13.9309 118.934 13.6765C118.665 13.422 118.467 13.1888 118.34 12.9768C118.156 12.7223 118.036 12.4961 117.98 12.2982C117.923 12.1003 117.937 11.9095 118.022 11.7257C118.121 11.5278 118.298 11.3229 118.552 11.1108C118.807 10.8846 119.04 10.7716 119.252 10.7716C119.478 10.7574 119.69 10.821 119.888 10.9624C120.1 11.1038 120.305 11.3017 120.503 11.5561C120.842 12.0085 121.224 12.3336 121.648 12.5315C122.072 12.7152 122.496 12.8071 122.92 12.8071C123.471 12.8071 123.952 12.7365 124.362 12.5951C124.772 12.4396 125.09 12.2134 125.316 11.9166C125.557 11.6197 125.677 11.238 125.677 10.7716C125.677 10.3899 125.557 10.0789 125.316 9.83859C125.09 9.58414 124.786 9.37211 124.404 9.20248C124.023 9.01871 123.592 8.85615 123.111 8.71479C122.645 8.55929 122.171 8.38966 121.69 8.20589C121.351 8.09281 121.012 7.95852 120.673 7.80302C120.333 7.63339 120.015 7.44255 119.718 7.23052C119.436 7.01848 119.181 6.7711 118.955 6.48838C118.743 6.19153 118.573 5.85227 118.446 5.4706C118.319 5.08893 118.255 4.64365 118.255 4.13475C118.255 3.32901 118.453 2.62221 118.849 2.01437C119.245 1.39239 119.796 0.904698 120.503 0.551301C121.21 0.183767 122.015 0 122.92 0C123.5 0 124.016 0.0565437 124.468 0.169631C124.935 0.268582 125.33 0.402873 125.655 0.572504C125.995 0.727999 126.27 0.890562 126.482 1.06019C126.709 1.21569 126.871 1.34998 126.97 1.46307C127.295 1.78819 127.472 2.06384 127.5 2.29002C127.543 2.50206 127.415 2.79184 127.119 3.15938C126.822 3.54104 126.532 3.75308 126.249 3.79549C125.981 3.82376 125.677 3.71068 125.337 3.45623C125.111 3.21592 124.885 3.02508 124.659 2.88373C124.433 2.72823 124.178 2.61514 123.896 2.54446C123.627 2.47378 123.295 2.43844 122.899 2.43844C122.616 2.43844 122.341 2.48085 122.072 2.56567C121.818 2.63635 121.598 2.74943 121.415 2.90493C121.231 3.04629 121.083 3.22299 120.969 3.43503C120.87 3.64706 120.821 3.88737 120.821 4.15596C120.821 4.52349 120.92 4.82741 121.118 5.06772C121.33 5.2939 121.613 5.48473 121.966 5.64023C122.319 5.78159 122.715 5.91588 123.153 6.0431C123.592 6.17032 124.037 6.30461 124.489 6.44597C124.956 6.60147 125.415 6.78524 125.868 6.99727C126.32 7.20931 126.723 7.47789 127.076 7.80302C127.43 8.11401 127.712 8.50982 127.924 8.99044C128.136 9.45692 128.242 10.0294 128.242 10.7079C128.242 11.4854 128.094 12.1639 127.797 12.7435C127.5 13.3231 127.097 13.7966 126.588 14.1642C126.08 14.5317 125.514 14.8003 124.892 14.9699C124.27 15.1537 123.641 15.2456 123.005 15.2456Z" fill="#212121"/>
<path d="M141.728 0.212038C141.94 0.212038 142.124 0.233242 142.279 0.27565C142.449 0.318058 142.583 0.424078 142.682 0.593708C142.781 0.749204 142.831 1.00365 142.831 1.35705C142.831 1.71045 142.781 1.97196 142.682 2.14159C142.583 2.29709 142.449 2.39604 142.279 2.43844C142.11 2.46672 141.919 2.48085 141.707 2.48085H137.805V13.7825C137.805 14.0228 137.777 14.2419 137.72 14.4398C137.678 14.6236 137.565 14.772 137.381 14.8851C137.212 14.9982 136.922 15.0547 136.512 15.0547C136.13 15.0547 135.847 14.9911 135.664 14.8639C135.48 14.7508 135.367 14.6024 135.324 14.4186C135.282 14.2207 135.261 14.0016 135.261 13.7613V2.48085H131.317C131.119 2.48085 130.935 2.45965 130.766 2.41724C130.596 2.37483 130.455 2.27588 130.342 2.12039C130.243 1.96489 130.193 1.71045 130.193 1.35705C130.193 1.00365 130.243 0.749204 130.342 0.593708C130.44 0.424078 130.575 0.318058 130.744 0.27565C130.928 0.233242 131.119 0.212038 131.317 0.212038H141.728Z" fill="#212121"/>
<path d="M156.215 13.2524C156.356 13.521 156.427 13.7613 156.427 13.9733C156.441 14.1712 156.384 14.3479 156.257 14.5034C156.13 14.6448 155.918 14.7932 155.621 14.9487C155.169 15.1608 154.815 15.2173 154.561 15.1184C154.321 15.0194 154.094 14.7438 153.882 14.2914L149.154 4.30438L144.447 14.2914C144.235 14.7296 144.001 14.9911 143.747 15.0759C143.492 15.1749 143.139 15.1254 142.687 14.9275C142.404 14.7862 142.192 14.6377 142.051 14.4822C141.923 14.3267 141.867 14.143 141.881 13.9309C141.909 13.7048 142.001 13.4362 142.157 13.1252L147.988 0.975378C148.101 0.749204 148.263 0.572505 148.475 0.445282C148.701 0.303923 148.935 0.233243 149.175 0.233243C149.345 0.233243 149.5 0.261515 149.642 0.318058C149.783 0.374601 149.91 0.459417 150.023 0.572504C150.15 0.685592 150.256 0.826951 150.341 0.996581L156.215 13.2524ZM145.38 11.1956L146.397 9.01164H151.932L152.949 11.1956H145.38Z" fill="#212121"/>
<path d="M160.711 15.0335C160.329 15.0335 160.047 14.9699 159.863 14.8427C159.693 14.7296 159.58 14.5741 159.524 14.3762C159.481 14.1783 159.46 13.9663 159.46 13.7401V1.44186C159.46 1.22982 159.488 1.03192 159.545 0.848155C159.601 0.664388 159.722 0.515961 159.905 0.402873C160.103 0.289787 160.393 0.233243 160.775 0.233243C161.199 0.233243 161.489 0.282719 161.644 0.38167C161.814 0.466485 161.969 0.593708 162.111 0.763339L169.193 10.6655V1.44186C169.193 1.22982 169.221 1.03192 169.277 0.848155C169.334 0.664388 169.454 0.515961 169.638 0.402873C169.822 0.289787 170.104 0.233243 170.486 0.233243C170.882 0.233243 171.165 0.296855 171.334 0.424078C171.518 0.537165 171.631 0.692659 171.674 0.890562C171.73 1.08846 171.758 1.30757 171.758 1.54788V13.7613C171.758 13.9875 171.723 14.1995 171.652 14.3974C171.596 14.5812 171.469 14.7296 171.271 14.8427C171.087 14.9699 170.797 15.0335 170.401 15.0335C170.09 15.0335 169.843 15.0053 169.659 14.9487C169.49 14.8922 169.334 14.772 169.193 14.5883L162.005 4.70726V13.7613C162.005 13.9875 161.976 14.1995 161.92 14.3974C161.877 14.5812 161.764 14.7296 161.58 14.8427C161.397 14.9699 161.107 15.0335 160.711 15.0335Z" fill="#212121"/>
<path d="M186.947 0.212038C187.159 0.212038 187.343 0.233242 187.498 0.27565C187.668 0.318058 187.802 0.424078 187.901 0.593708C188 0.749204 188.049 1.00365 188.049 1.35705C188.049 1.71045 188 1.97196 187.901 2.14159C187.802 2.29709 187.668 2.39604 187.498 2.43844C187.329 2.46672 187.138 2.48085 186.926 2.48085H183.024V13.7825C183.024 14.0228 182.996 14.2419 182.939 14.4398C182.897 14.6236 182.784 14.772 182.6 14.8851C182.43 14.9982 182.141 15.0547 181.731 15.0547C181.349 15.0547 181.066 14.9911 180.883 14.8639C180.699 14.7508 180.586 14.6024 180.543 14.4186C180.501 14.2207 180.48 14.0016 180.48 13.7613V2.48085H176.536C176.338 2.48085 176.154 2.45965 175.985 2.41724C175.815 2.37483 175.674 2.27588 175.56 2.12039C175.461 1.96489 175.412 1.71045 175.412 1.35705C175.412 1.00365 175.461 0.749204 175.56 0.593708C175.659 0.424078 175.794 0.318058 175.963 0.27565C176.147 0.233242 176.338 0.212038 176.536 0.212038H186.947Z" fill="#212121"/>
<path d="M27.5339 10.9765C26.5615 11.7345 25.3284 12.1208 24.0741 12.0605C23.0891 11.9164 22.1504 11.5644 21.3263 11.0302C21.0144 11.3655 20.6807 11.6819 20.3271 11.9772C20.5831 12.1261 20.8454 12.2692 21.1078 12.4061V12.4058C22.1892 13.0351 23.4318 13.3669 24.6986 13.3648C25.9749 13.2763 27.1962 12.8355 28.2144 12.0963C28.92 11.6199 28.2457 10.4943 27.5339 10.9765Z" fill="#11AE88"/>
<path d="M18.3241 8.84108C17.9872 9.19196 17.6119 9.50436 17.2054 9.77235C16.447 9.206 15.7075 8.63346 14.9679 8.06063C13.154 6.6509 11.1254 5.09683 8.71721 5.04627L8.7175 5.04656C7.65658 4.98222 6.60904 5.3067 5.77218 5.95905C5.62857 6.08209 5.4954 6.21666 5.37407 6.36162C5.11845 6.66025 4.90571 6.99286 4.74206 7.34963C4.53976 7.81372 4.38317 8.29635 4.27454 8.79078C4.23673 8.9481 4.20513 9.09925 4.17354 9.2501C4.1188 9.5271 4.06406 9.80381 4.00933 10.0808C3.54153 12.4974 3.19393 14.9516 2.78309 17.3805C2.63778 18.2488 1.31675 17.8777 1.46208 17.0155L2.30911 11.9813C2.47981 10.9933 2.60622 9.9738 2.81472 8.97961C2.90332 8.55175 3.01053 8.12393 3.14342 7.72105L3.22553 7.47551H3.22525C3.35504 7.09092 3.52235 6.72009 3.72465 6.36812C3.91566 6.03241 4.14222 5.71805 4.40096 5.43039C5.30889 4.42778 6.5693 3.81059 7.921 3.7063C10.2405 3.47988 12.3956 4.52437 14.2411 5.82701C15.6315 6.80855 16.9588 7.85308 18.3241 8.84108Z" fill="#11AE88"/>
<path d="M2.11133 4.7084C1.48255 4.10358 0.539393 5.02296 1.14287 5.63996C1.53277 6.03309 1.92887 6.43216 2.32489 6.84959H2.32517C2.49191 6.41542 2.70244 5.99829 2.95395 5.60353L2.11133 4.7084Z" fill="#2A84EE"/>
<path d="M25.2749 1.04229C24.3229 3.47685 23.2247 5.85221 21.9867 8.1556C21.7159 8.62984 21.4192 9.08866 21.0983 9.53066C20.8725 9.83813 20.6306 10.1335 20.3739 10.4158C20.0547 10.7695 19.7093 11.0991 19.3409 11.4015C19.0231 11.6392 18.6885 11.8533 18.3392 12.042L17.98 12.2429C16.109 13.1578 13.9855 13.4249 11.9451 13.0025C9.47565 12.4803 7.18363 11.3295 5.29297 9.66237L5.32447 9.50541C5.4108 9.06032 5.52864 8.62199 5.67713 8.19342C8.41127 10.5478 11.6049 12.3746 15.3158 11.7219C15.9275 11.6168 16.5211 11.4268 17.0797 11.1569C17.4526 10.9794 17.8089 10.7695 18.1444 10.529C18.5347 10.2454 18.8992 9.9281 19.2342 9.58082C19.4983 9.30642 19.7466 9.01717 19.9775 8.71448C20.284 8.3134 20.5661 7.89407 20.8217 7.45882C22.0569 5.15937 23.1529 2.78818 24.1037 0.358142C24.444 -0.445699 25.6283 0.244909 25.2753 1.04231L25.2749 1.04229Z" fill="#2A84EE"/>
</svg>
