<svg width="61" height="60" viewBox="0 0 61 60" fill="none" xmlns="http://www.w3.org/2000/svg">
<mask id="mask0_332_1409" style="mask-type:luminance" maskUnits="userSpaceOnUse" x="4" y="3" width="54" height="54">
<path d="M4.25586 30.2153C4.25586 44.9207 16.1767 56.8416 30.8821 56.8416C45.5875 56.8416 57.5083 44.9207 57.5083 30.2153C57.5083 15.51 45.5875 3.58907 30.8821 3.58907C16.1767 3.58907 4.25586 15.51 4.25586 30.2153Z" fill="white"/>
</mask>
<g mask="url(#mask0_332_1409)">
<path d="M4.25513 30.2151C4.25513 44.9204 16.176 56.8413 30.8814 56.8413C45.5867 56.8413 57.5076 44.9204 57.5076 30.2151C57.5076 15.5097 45.5867 3.58883 30.8814 3.58883C16.176 3.58883 4.25513 15.5097 4.25513 30.2151Z" fill="url(#paint0_linear_332_1409)"/>
</g>
<mask id="mask1_332_1409" style="mask-type:luminance" maskUnits="userSpaceOnUse" x="0" y="0" width="61" height="60">
<path d="M0.662109 0.000705719H60.9067V60H0.662109V0.000705719Z" fill="white"/>
</mask>
<g mask="url(#mask1_332_1409)">
<path d="M22.2742 32.1616L25.4332 40.9054C25.4332 40.9054 25.8281 41.7231 26.2512 41.7231C26.6743 41.7231 32.9642 35.1794 32.9642 35.1794L39.9592 21.6688L22.387 29.9049L22.2742 32.1616Z" fill="#C8DAEA"/>
</g>
<mask id="mask2_332_1409" style="mask-type:luminance" maskUnits="userSpaceOnUse" x="0" y="0" width="61" height="60">
<path d="M0.662109 0.000705719H60.9067V60H0.662109V0.000705719Z" fill="white"/>
</mask>
<g mask="url(#mask2_332_1409)">
<path d="M26.4638 34.4034L25.8573 40.8483C25.8573 40.8483 25.6034 42.8227 27.5779 40.8483C29.5523 38.8739 31.442 37.3508 31.442 37.3508" fill="#A9C6D8"/>
</g>
<mask id="mask3_332_1409" style="mask-type:luminance" maskUnits="userSpaceOnUse" x="0" y="0" width="61" height="60">
<path d="M0.662109 0.000705719H60.9067V60H0.662109V0.000705719Z" fill="white"/>
</mask>
<g mask="url(#mask3_332_1409)">
<path d="M22.333 32.4726L15.8355 30.3554C15.8355 30.3554 15.06 30.0406 15.3091 29.326C15.3605 29.1787 15.4641 29.0534 15.7744 28.837C17.2144 27.8336 42.4241 18.7723 42.4241 18.7723C42.4241 18.7723 43.136 18.5327 43.5568 18.692C43.7491 18.7649 43.8718 18.8472 43.9752 19.1478C44.0128 19.2572 44.0345 19.4899 44.0316 19.7214C44.0293 19.8884 44.009 20.0429 43.9941 20.2855C43.8407 22.7631 39.2465 41.2521 39.2465 41.2521C39.2465 41.2521 38.9717 42.3341 37.9867 42.3708C37.6275 42.3844 37.1916 42.3115 36.6703 41.8631C34.7377 40.2006 28.057 35.7109 26.581 34.7237C26.4975 34.6682 26.4741 34.5958 26.4598 34.5251C26.4391 34.4213 26.5501 34.2918 26.5501 34.2918C26.5501 34.2918 38.1826 23.9516 38.4922 22.8667C38.5161 22.7825 38.4261 22.741 38.304 22.7773C37.5314 23.0616 24.1379 31.5188 22.66 32.453C22.5735 32.5076 22.3312 32.4724 22.3312 32.4724" fill="white"/>
</g>
<defs>
<linearGradient id="paint0_linear_332_1409" x1="30.8814" y1="56.8411" x2="30.8814" y2="3.5886" gradientUnits="userSpaceOnUse">
<stop stop-color="#1D93D2"/>
<stop offset="1" stop-color="#38B0E3"/>
</linearGradient>
</defs>
</svg>
