<svg width="26" height="26" viewBox="0 0 26 26" fill="none" xmlns="http://www.w3.org/2000/svg">
<path fill-rule="evenodd" clip-rule="evenodd" d="M13 26C20.1797 26 26 20.1797 26 13C26 5.8203 20.1797 0 13 0C5.8203 0 0 5.8203 0 13C0 20.1797 5.8203 26 13 26ZM13 23.6364C18.8743 23.6364 23.6364 18.8743 23.6364 13C23.6364 7.1257 18.8743 2.36364 13 2.36364C7.1257 2.36364 2.36364 7.1257 2.36364 13C2.36364 18.8743 7.1257 23.6364 13 23.6364ZM11.8602 14.3672L9.35316 11.8602L7.68182 13.5315L11.8602 17.7099L13.1137 16.4564L19.0351 10.535L17.3637 8.86364L11.8602 14.3672Z" fill="black"/>
<path fill-rule="evenodd" clip-rule="evenodd" d="M13 26C20.1797 26 26 20.1797 26 13C26 5.8203 20.1797 0 13 0C5.8203 0 0 5.8203 0 13C0 20.1797 5.8203 26 13 26ZM13 23.6364C18.8743 23.6364 23.6364 18.8743 23.6364 13C23.6364 7.1257 18.8743 2.36364 13 2.36364C7.1257 2.36364 2.36364 7.1257 2.36364 13C2.36364 18.8743 7.1257 23.6364 13 23.6364ZM11.8602 14.3672L9.35316 11.8602L7.68182 13.5315L11.8602 17.7099L13.1137 16.4564L19.0351 10.535L17.3637 8.86364L11.8602 14.3672Z" fill="#2A84EE"/>
</svg>
