<svg width="53" height="54" viewBox="0 0 53 54" fill="none" xmlns="http://www.w3.org/2000/svg">
<circle cx="26.2147" cy="26.9598" r="22.4694" fill="white"/>
<path d="M26.2142 0.745117C11.7362 0.745117 0 12.4813 0 26.9594C0 41.4374 11.7362 53.1736 26.2142 53.1736C40.6923 53.1736 52.4285 41.4374 52.4285 26.9594C52.4285 12.4813 40.6923 0.745117 26.2142 0.745117ZM40.3027 36.9073C39.1839 37.6069 34.6379 37.8153 33.5373 37.0157C32.9336 36.5773 32.3816 36.0287 31.8575 35.5062C31.4906 35.1411 31.0743 34.9639 30.7591 34.5675C30.5019 34.2432 30.3253 33.8605 30.0544 33.5402C29.5972 33.0029 28.8936 32.5458 28.337 33.2023C27.4988 34.1899 28.4688 36.1292 27.3512 36.8669C26.9764 37.1145 26.5981 37.1861 26.1296 37.1509L25.0921 37.198C24.4827 37.2099 23.5173 37.2156 22.8239 37.0907C22.0504 36.951 21.4115 36.5285 20.7119 36.2184C19.3841 35.6295 18.1194 34.827 17.1568 33.7157C14.5371 30.6888 11.0184 26.5261 9.65145 22.7206C9.37034 21.9386 8.62753 20.3899 9.33172 19.7192C10.2892 19.0235 14.9886 18.8276 15.7217 19.9032C16.0193 20.3405 16.2073 20.9799 16.418 21.4757C16.6803 22.0936 16.8223 22.6757 17.2323 23.2226C17.5952 23.7076 17.8627 24.1954 18.1433 24.7269C18.4584 25.3238 18.756 25.8963 19.1393 26.4454C19.3994 26.8191 20.0872 27.5625 20.5216 27.6176C21.5825 27.7533 21.5166 25.1756 21.4376 24.5464C21.3621 23.9398 21.3428 23.2964 21.3627 22.6814C21.3797 22.1566 21.4268 21.4172 21.1162 20.989C20.6096 20.2905 19.4812 20.813 19.3932 19.8742C19.5795 19.6079 19.5403 19.3717 20.7846 18.9616C21.7647 18.6396 22.398 18.6499 23.0442 18.7015C24.3618 18.8072 25.7588 18.4505 27.0309 18.8776C28.2462 19.287 28.0582 21.014 28.0173 22.0487C27.9622 23.4611 28.0213 24.84 28.0173 26.2739C28.0156 26.9264 27.9895 27.5619 28.7857 27.5085C29.5319 27.4591 29.608 26.831 29.9641 26.3131C30.4593 25.5907 30.9142 24.8581 31.4185 24.1386C32.0983 23.1658 32.3038 22.0726 32.9439 21.0759C33.1727 20.7198 33.3698 19.9611 33.7224 19.6795C33.9894 19.4654 34.4965 19.5772 34.8196 19.5772H35.588C36.1758 19.5772 36.7755 19.5727 37.3797 19.5937C38.2497 19.6238 39.2243 19.4239 40.0869 19.546C43.8095 20.0713 35.408 28.0293 35.8452 29.4502C36.1474 30.4315 38.064 31.5281 38.7557 32.3317C39.674 33.4022 42.501 35.5301 40.3027 36.9073Z" fill="#4C75A3"/>
</svg>
