<svg width="70" height="70" viewBox="0 0 70 70" fill="none" xmlns="http://www.w3.org/2000/svg">
<circle cx="35" cy="35" r="30" fill="white"/>
<path d="M35 0C15.6696 0 0 15.6696 0 35C0 54.3304 15.6696 70 35 70C54.3304 70 70 54.3304 70 35C70 15.6696 54.3304 0 35 0ZM53.8102 48.2819C52.3165 49.2161 46.2469 49.4944 44.7774 48.4268C43.9714 47.8414 43.2344 47.109 42.5345 46.4114C42.0447 45.9239 41.4889 45.6873 41.0681 45.158C40.7246 44.7251 40.4888 44.214 40.1272 43.7864C39.5168 43.0691 38.5773 42.4587 37.8343 43.3352C36.7151 44.6538 38.0102 47.2432 36.518 48.2281C36.0175 48.5587 35.5126 48.6542 34.887 48.6072L33.5017 48.6702C32.6881 48.6861 31.3992 48.6937 30.4734 48.5269C29.4406 48.3403 28.5876 47.7762 27.6535 47.3622C25.8807 46.5759 24.1922 45.5045 22.907 44.0207C19.4092 39.9793 14.7112 34.4215 12.8862 29.3406C12.5108 28.2965 11.5191 26.2288 12.4593 25.3333C13.7376 24.4045 20.012 24.1429 20.9909 25.579C21.3882 26.1628 21.6392 27.0166 21.9205 27.6785C22.2708 28.5035 22.4604 29.2807 23.0078 30.0108C23.4923 30.6584 23.8494 31.3097 24.224 32.0194C24.6448 32.8163 25.0421 33.5806 25.5539 34.3138C25.9012 34.8127 26.8194 35.8052 27.3995 35.8788C28.8159 36.06 28.7279 32.6184 28.6225 31.7783C28.5217 30.9685 28.4959 30.1094 28.5224 29.2882C28.5452 28.5876 28.6081 27.6004 28.1933 27.0287C27.517 26.0961 26.0104 26.7936 25.8929 25.5403C26.1416 25.1847 26.0893 24.8693 27.7505 24.3218C29.0592 23.8919 29.9047 23.9055 30.7675 23.9745C32.5266 24.1156 34.3919 23.6394 36.0903 24.2096C37.713 24.7563 37.462 27.0621 37.4074 28.4436C37.3338 30.3293 37.4127 32.1703 37.4074 34.0848C37.4051 34.956 37.3702 35.8045 38.4333 35.7332C39.4296 35.6672 39.5312 34.8286 40.0066 34.1371C40.6678 33.1727 41.2751 32.1945 41.9484 31.2339C42.856 29.935 43.1305 28.4754 43.985 27.1447C44.2906 26.6693 44.5537 25.6563 45.0246 25.2802C45.381 24.9944 46.0581 25.1437 46.4895 25.1437H47.5154C48.3001 25.1437 49.1008 25.1377 49.9076 25.1657C51.0692 25.2059 52.3703 24.939 53.5221 25.102C58.4923 25.8034 47.275 36.4285 47.8589 38.3256C48.2622 39.6358 50.8213 41.1 51.7448 42.1729C52.9709 43.6021 56.7453 46.4432 53.8102 48.2819Z" fill="#4C75A3"/>
</svg>
