<svg width="53" height="54" viewBox="0 0 53 54" fill="none" xmlns="http://www.w3.org/2000/svg">
<path fill-rule="evenodd" clip-rule="evenodd" d="M26.4057 53.1736C40.8834 53.1736 52.6199 41.4371 52.6199 26.9594C52.6199 12.4816 40.8834 0.745117 26.4057 0.745117C11.9279 0.745117 0.191406 12.4816 0.191406 26.9594C0.191406 41.4371 11.9279 53.1736 26.4057 53.1736Z" fill="#FF0002"/>
<path fill-rule="evenodd" clip-rule="evenodd" d="M22.797 31.5244L22.7959 21.6342L32.2396 26.5963L22.797 31.5244ZM43.5325 19.9204C43.5325 19.9204 43.1906 17.4949 42.1431 16.4267C40.8139 15.0242 39.324 15.0176 38.6413 14.9362C33.7502 14.5798 26.4135 14.5798 26.4135 14.5798H26.3982C26.3982 14.5798 19.0615 14.5798 14.1704 14.9362C13.4866 15.0176 11.9978 15.0242 10.6675 16.4267C9.62 17.4949 9.27921 19.9204 9.27921 19.9204C9.27921 19.9204 8.92969 22.7694 8.92969 25.6173V28.2881C8.92969 31.1372 9.27921 33.9851 9.27921 33.9851C9.27921 33.9851 9.62 36.4106 10.6675 37.4787C11.9978 38.8812 13.7444 38.8372 14.5221 38.9835C17.3182 39.2541 26.4058 39.3377 26.4058 39.3377C26.4058 39.3377 33.7502 39.3267 38.6413 38.9703C39.324 38.8878 40.8139 38.8812 42.1431 37.4787C43.1906 36.4106 43.5325 33.9851 43.5325 33.9851C43.5325 33.9851 43.882 31.1372 43.882 28.2881V25.6173C43.882 22.7694 43.5325 19.9204 43.5325 19.9204Z" fill="white"/>
</svg>
