<svg width="71" height="70" viewBox="0 0 71 70" fill="none" xmlns="http://www.w3.org/2000/svg">
<path fill-rule="evenodd" clip-rule="evenodd" d="M35.5 70C54.83 70 70.5 54.33 70.5 35C70.5 15.67 54.83 0 35.5 0C16.17 0 0.5 15.67 0.5 35C0.5 54.33 16.17 70 35.5 70Z" fill="#FF0002"/>
<path fill-rule="evenodd" clip-rule="evenodd" d="M30.6819 41.0953L30.6804 27.8904L43.2892 34.5156L30.6819 41.0953ZM58.3669 25.6022C58.3669 25.6022 57.9104 22.3638 56.5119 20.9377C54.7371 19.0651 52.7479 19.0563 51.8365 18.9477C45.306 18.4718 35.5104 18.4718 35.5104 18.4718H35.49C35.49 18.4718 25.6944 18.4718 19.164 18.9477C18.251 19.0563 16.2633 19.0651 14.4871 20.9377C13.0885 22.3638 12.6335 25.6022 12.6335 25.6022C12.6335 25.6022 12.1669 29.4061 12.1669 33.2085V36.7745C12.1669 40.5784 12.6335 44.3808 12.6335 44.3808C12.6335 44.3808 13.0885 47.6192 14.4871 49.0453C16.2633 50.9179 18.5952 50.8591 19.6335 51.0544C23.3669 51.4157 35.5002 51.5274 35.5002 51.5274C35.5002 51.5274 45.306 51.5127 51.8365 51.0368C52.7479 50.9267 54.7371 50.9179 56.5119 49.0453C57.9104 47.6192 58.3669 44.3808 58.3669 44.3808C58.3669 44.3808 58.8335 40.5784 58.8335 36.7745V33.2085C58.8335 29.4061 58.3669 25.6022 58.3669 25.6022Z" fill="white"/>
</svg>
