<svg height="auto" viewBox="0 0 2000 1000" xmlns="http://www.w3.org/2000/svg"><path d="M0 988.823c21-4.858 63-7.885 105-24.29 42-16.406 63-42.342 105-57.739 42-15.396 63-12.543 105-19.245 42-6.702 63 14.785 105-14.264 42-29.05 63-94.52 105-130.983 42-36.464 63-29.641 105-51.336 42-21.694 63-68.42 105-57.137 42 11.284 63 89.226 105 113.558 42 24.332 63 27.618 105 8.103 42-19.516 63-53.494 105-105.68 42-52.187 63-132.466 105-155.253 42-22.786 63 51.224 105 41.32 42-9.905 63-108.79 105-90.842 42 17.948 63 218.713 105 180.583 42-38.13 63-348.942 105-371.234 42-22.292 63 238.74 105 259.772 42 21.032 63-105.384 105-154.612 42-49.228 63-30.14 105-91.527 42-61.388 84-172.329 105-215.411l5 947.394H0Z" fill="#444cf71a"/><path d="M0 988.823c21-4.858 63-7.885 105-24.29 42-16.406 63-42.342 105-57.739 42-15.396 63-12.543 105-19.245 42-6.702 63 14.785 105-14.264 42-29.05 63-94.52 105-130.983 42-36.464 63-29.641 105-51.336 42-21.694 63-68.42 105-57.137 42 11.284 63 89.226 105 113.558 42 24.332 63 27.618 105 8.103 42-19.516 63-53.494 105-105.68 42-52.187 63-132.466 105-155.253 42-22.786 63 51.224 105 41.32 42-9.905 63-108.79 105-90.842 42 17.948 63 218.713 105 180.583 42-38.13 63-348.942 105-371.234 42-22.292 63 238.74 105 259.772 42 21.032 63-105.384 105-154.612 42-49.228 63-30.14 105-91.527 42-61.388 84-172.329 105-215.411" fill="none" stroke="#444cf7" stroke-width="4"/><g fill="#444cf7"><circle cy="988.823" r="8"/><circle cx="105" cy="964.532" r="8"/><circle cx="210" cy="906.794" r="8"/><circle cx="315" cy="887.549" r="8"/><circle cx="420" cy="873.285" r="8"/><circle cx="525" cy="742.302" r="8"/><circle cx="630" cy="690.966" r="8"/><circle cx="735" cy="633.829" r="8"/><circle cx="840" cy="747.387" r="8"/><circle cx="945" cy="755.49" r="8"/><circle cx="1050" cy="649.809" r="8"/><circle cx="1155" cy="494.557" r="8"/><circle cx="1260" cy="535.877" r="8"/><circle cx="1365" cy="445.035" r="8"/><circle cx="1470" cy="625.618" r="8"/><circle cx="1575" cy="254.384" r="8"/><circle cx="1680" cy="514.156" r="8"/><circle cx="1785" cy="359.544" r="8"/><circle cx="1890" cy="268.017" r="8"/><circle cx="1995" cy="52.606" r="8"/></g></svg>