<svg height="auto" viewBox="0 0 2000 1000" xmlns="http://www.w3.org/2000/svg"><path d="M0 989.738c21-4.797 63-12.683 105-23.985s63-16.315 105-32.525c42-16.21 63-34.675 105-48.524 42-13.85 63 6.922 105-20.722 42-27.643 63-110.406 105-117.498 42-7.091 63 70.136 105 82.04 42 11.905 63-6.098 105-22.515 42-16.418 63-41.506 105-59.571 42-18.065 63 20.818 105-30.756 42-51.573 63-218.438 105-227.111 42-8.673 63 174.257 105 183.746 42 9.489 63-130.601 105-136.303 42-5.7 63 127.739 105 107.797 42-19.942 63-147.564 105-207.505 42-59.94 63-36.402 105-92.2 42-55.8 63-168.774 105-186.793 42-18.018 63 115.54 105 96.7 42-18.841 63-212.97 105-190.9 42 22.069 84 240.995 105 301.244l5 635.643H0Z" fill="#444cf71a"/><path d="M0 989.738c21-4.797 63-12.683 105-23.985s63-16.315 105-32.525c42-16.21 63-34.675 105-48.524 42-13.85 63 6.922 105-20.722 42-27.643 63-110.406 105-117.498 42-7.091 63 70.136 105 82.04 42 11.905 63-6.098 105-22.515 42-16.418 63-41.506 105-59.571 42-18.065 63 20.818 105-30.756 42-51.573 63-218.438 105-227.111 42-8.673 63 174.257 105 183.746 42 9.489 63-130.601 105-136.303 42-5.7 63 127.739 105 107.797 42-19.942 63-147.564 105-207.505 42-59.94 63-36.402 105-92.2 42-55.8 63-168.774 105-186.793 42-18.018 63 115.54 105 96.7 42-18.841 63-212.97 105-190.9 42 22.069 84 240.995 105 301.244" fill="none" stroke="#444cf7" stroke-width="4"/><g fill="#444cf7"><circle cy="989.738" r="8"/><circle cx="105" cy="965.753" r="8"/><circle cx="210" cy="933.228" r="8"/><circle cx="315" cy="884.704" r="8"/><circle cx="420" cy="863.982" r="8"/><circle cx="525" cy="746.484" r="8"/><circle cx="630" cy="828.524" r="8"/><circle cx="735" cy="806.009" r="8"/><circle cx="840" cy="746.438" r="8"/><circle cx="945" cy="715.682" r="8"/><circle cx="1050" cy="488.571" r="8"/><circle cx="1155" cy="672.317" r="8"/><circle cx="1260" cy="536.014" r="8"/><circle cx="1365" cy="643.811" r="8"/><circle cx="1470" cy="436.306" r="8"/><circle cx="1575" cy="344.105" r="8"/><circle cx="1680" cy="157.313" r="8"/><circle cx="1785" cy="254.012" r="8"/><circle cx="1890" cy="63.113" r="8"/><circle cx="1995" cy="364.357" r="8"/></g></svg>