<svg height="auto" viewBox="0 0 2000 1000" xmlns="http://www.w3.org/2000/svg"><path d="M0 991.47c21-8.506 63-33.264 105-42.534 42-9.27 63 16.625 105-3.816s63-69.194 105-98.39c42-29.197 63-46.34 105-47.59 42-1.252 63 54.05 105 41.335 42-12.715 63-67.436 105-104.908 42-37.473 63-82.602 105-82.455 42 .148 63 82.806 105 83.192 42 .387 63-53.23 105-81.26 42-28.031 63-36.31 105-58.894 42-22.585 63-21.88 105-54.031 42-32.15 63-82.46 105-106.722s63 17.53 105-14.59c42-32.119 63-121.29 105-146.008 42-24.718 63-2.086 105 22.421 42 24.508 63 59.647 105 100.116 42 40.47 63 91.618 105 102.23 42 10.61 63 35.354 105-49.172 42-84.525 84-298.765 105-373.456l5 923.062H0Z" fill="#444cf71a"/><path d="M0 991.47c21-8.506 63-33.264 105-42.534 42-9.27 63 16.625 105-3.816s63-69.194 105-98.39c42-29.197 63-46.34 105-47.59 42-1.252 63 54.05 105 41.335 42-12.715 63-67.436 105-104.908 42-37.473 63-82.602 105-82.455 42 .148 63 82.806 105 83.192 42 .387 63-53.23 105-81.26 42-28.031 63-36.31 105-58.894 42-22.585 63-21.88 105-54.031 42-32.15 63-82.46 105-106.722s63 17.53 105-14.59c42-32.119 63-121.29 105-146.008 42-24.718 63-2.086 105 22.421 42 24.508 63 59.647 105 100.116 42 40.47 63 91.618 105 102.23 42 10.61 63 35.354 105-49.172 42-84.525 84-298.765 105-373.456" fill="none" stroke="#444cf7" stroke-width="4"/><g fill="#444cf7"><circle cy="991.47" r="8"/><circle cx="105" cy="948.936" r="8"/><circle cx="210" cy="945.12" r="8"/><circle cx="315" cy="846.729" r="8"/><circle cx="420" cy="799.139" r="8"/><circle cx="525" cy="840.475" r="8"/><circle cx="630" cy="735.567" r="8"/><circle cx="735" cy="653.112" r="8"/><circle cx="840" cy="736.304" r="8"/><circle cx="945" cy="655.044" r="8"/><circle cx="1050" cy="596.15" r="8"/><circle cx="1155" cy="542.119" r="8"/><circle cx="1260" cy="435.397" r="8"/><circle cx="1365" cy="420.808" r="8"/><circle cx="1470" cy="274.799" r="8"/><circle cx="1575" cy="297.22" r="8"/><circle cx="1680" cy="397.336" r="8"/><circle cx="1785" cy="499.565" r="8"/><circle cx="1890" cy="450.394" r="8"/><circle cx="1995" cy="76.938" r="8"/></g></svg>