<svg height="auto" viewBox="0 0 2000 1000" xmlns="http://www.w3.org/2000/svg"><path d="M0 996.822c21-7.486 63-22.613 105-37.431 42-14.819 63-17.79 105-36.662 42-18.871 63-39.334 105-57.695 42-18.36 63-17.32 105-34.11 42-16.789 63-24.047 105-49.836 42-25.788 63-48.72 105-79.106 42-30.385 63-55.822 105-72.821 42-17 63-2.855 105-12.175s63-21.015 105-34.423c42-13.407 63-7.826 105-32.615s63-88.348 105-91.329c42-2.981 63 93.962 105 76.424 42-17.538 63-152.398 105-164.112 42-11.714 63 80.673 105 105.543 42 24.87 63 5.781 105 18.806 42 13.025 63 99.464 105 46.318 42-53.147 63-278.98 105-312.049 42-33.07 63 140.405 105 146.702 42 6.297 84-92.174 105-115.217l5 738.966H0Z" fill="#444cf71a"/><path d="M0 996.822c21-7.486 63-22.613 105-37.431 42-14.819 63-17.79 105-36.662 42-18.871 63-39.334 105-57.695 42-18.36 63-17.32 105-34.11 42-16.789 63-24.047 105-49.836 42-25.788 63-48.72 105-79.106 42-30.385 63-55.822 105-72.821 42-17 63-2.855 105-12.175s63-21.015 105-34.423c42-13.407 63-7.826 105-32.615s63-88.348 105-91.329c42-2.981 63 93.962 105 76.424 42-17.538 63-152.398 105-164.112 42-11.714 63 80.673 105 105.543 42 24.87 63 5.781 105 18.806 42 13.025 63 99.464 105 46.318 42-53.147 63-278.98 105-312.049 42-33.07 63 140.405 105 146.702 42 6.297 84-92.174 105-115.217" fill="none" stroke="#444cf7" stroke-width="4"/><g fill="#444cf7"><circle cy="996.822" r="8"/><circle cx="105" cy="959.391" r="8"/><circle cx="210" cy="922.729" r="8"/><circle cx="315" cy="865.034" r="8"/><circle cx="420" cy="830.925" r="8"/><circle cx="525" cy="781.088" r="8"/><circle cx="630" cy="701.982" r="8"/><circle cx="735" cy="629.161" r="8"/><circle cx="840" cy="616.986" r="8"/><circle cx="945" cy="582.563" r="8"/><circle cx="1050" cy="549.948" r="8"/><circle cx="1155" cy="458.619" r="8"/><circle cx="1260" cy="535.043" r="8"/><circle cx="1365" cy="370.931" r="8"/><circle cx="1470" cy="476.474" r="8"/><circle cx="1575" cy="495.28" r="8"/><circle cx="1680" cy="541.598" r="8"/><circle cx="1785" cy="229.549" r="8"/><circle cx="1890" cy="376.251" r="8"/><circle cx="1995" cy="261.034" r="8"/></g></svg>