<svg height="auto" viewBox="0 0 2000 1000" xmlns="http://www.w3.org/2000/svg"><path d="M0 992.442c21-7.594 63-19.82 105-37.971 42-18.152 63-33.014 105-52.788 42-19.773 63-40.74 105-46.079 42-5.337 63 30.41 105 19.39 42-11.019 63-66.759 105-74.485 42-7.726 63 45.165 105 35.855 42-9.31 63-62.413 105-82.407s63 24.351 105-17.562c42-41.912 63-149.49 105-192.002s63-19.328 105-20.557c42-1.23 63 42.823 105 14.408 42-28.414 63-121.117 105-156.481 42-35.365 63-3.205 105-20.34 42-17.136 63-89.163 105-65.34 42 23.825 63 129.25 105 184.46 42 55.21 63 132.489 105 91.591 42-40.898 63-234.753 105-296.08s63-35.626 105-10.553c42 25.072 84 108.731 105 135.914l5 598.585H0Z" fill="#444cf71a"/><path d="M0 992.442c21-7.594 63-19.82 105-37.971 42-18.152 63-33.014 105-52.788 42-19.773 63-40.74 105-46.079 42-5.337 63 30.41 105 19.39 42-11.019 63-66.759 105-74.485 42-7.726 63 45.165 105 35.855 42-9.31 63-62.413 105-82.407s63 24.351 105-17.562c42-41.912 63-149.49 105-192.002s63-19.328 105-20.557c42-1.23 63 42.823 105 14.408 42-28.414 63-121.117 105-156.481 42-35.365 63-3.205 105-20.34 42-17.136 63-89.163 105-65.34 42 23.825 63 129.25 105 184.46 42 55.21 63 132.489 105 91.591 42-40.898 63-234.753 105-296.08s63-35.626 105-10.553c42 25.072 84 108.731 105 135.914" fill="none" stroke="#444cf7" stroke-width="4"/><g fill="#444cf7"><circle cy="992.442" r="8"/><circle cx="105" cy="954.471" r="8"/><circle cx="210" cy="901.683" r="8"/><circle cx="315" cy="855.604" r="8"/><circle cx="420" cy="874.994" r="8"/><circle cx="525" cy="800.509" r="8"/><circle cx="630" cy="836.364" r="8"/><circle cx="735" cy="753.957" r="8"/><circle cx="840" cy="736.395" r="8"/><circle cx="945" cy="544.393" r="8"/><circle cx="1050" cy="523.836" r="8"/><circle cx="1155" cy="538.244" r="8"/><circle cx="1260" cy="381.763" r="8"/><circle cx="1365" cy="361.422" r="8"/><circle cx="1470" cy="296.084" r="8"/><circle cx="1575" cy="480.543" r="8"/><circle cx="1680" cy="572.134" r="8"/><circle cx="1785" cy="276.054" r="8"/><circle cx="1890" cy="265.501" r="8"/><circle cx="1995" cy="401.415" r="8"/></g></svg>