<svg height="auto" viewBox="0 0 2000 1000" xmlns="http://www.w3.org/2000/svg"><path d="M0 997.975c21-5.163 63-5.092 105-25.815 42-20.723 63-57.236 105-77.802 42-20.566 63-24.93 105-25.028 42-.099 63 25.79 105 24.535 42-1.255 63 .224 105-30.81 42-31.033 63-80.18 105-124.36 42-44.18 63-96.987 105-96.542 42 .445 63 118.263 105 98.766s63-166.211 105-196.253c42-30.04 63 60.267 105 46.047 42-14.22 63-112.755 105-117.147 42-4.393 63 120.261 105 95.184 42-25.077 63-196.914 105-220.57 42-23.656 63 114.59 105 102.291 42-12.298 63-167.945 105-163.781 42 4.163 63 195.17 105 184.6 42-10.569 63-242.639 105-237.447 42 5.192 63 302.817 105 263.408 42-39.41 84-368.363 105-460.453l5 963.202H0Z" fill="#444cf71a"/><path d="M0 997.975c21-5.163 63-5.092 105-25.815 42-20.723 63-57.236 105-77.802 42-20.566 63-24.93 105-25.028 42-.099 63 25.79 105 24.535 42-1.255 63 .224 105-30.81 42-31.033 63-80.18 105-124.36 42-44.18 63-96.987 105-96.542 42 .445 63 118.263 105 98.766s63-166.211 105-196.253c42-30.04 63 60.267 105 46.047 42-14.22 63-112.755 105-117.147 42-4.393 63 120.261 105 95.184 42-25.077 63-196.914 105-220.57 42-23.656 63 114.59 105 102.291 42-12.298 63-167.945 105-163.781 42 4.163 63 195.17 105 184.6 42-10.569 63-242.639 105-237.447 42 5.192 63 302.817 105 263.408 42-39.41 84-368.363 105-460.453" fill="none" stroke="#444cf7" stroke-width="4"/><g fill="#444cf7"><circle cy="997.975" r="8"/><circle cx="105" cy="972.16" r="8"/><circle cx="210" cy="894.358" r="8"/><circle cx="315" cy="869.33" r="8"/><circle cx="420" cy="893.865" r="8"/><circle cx="525" cy="863.056" r="8"/><circle cx="630" cy="738.695" r="8"/><circle cx="735" cy="642.153" r="8"/><circle cx="840" cy="740.919" r="8"/><circle cx="945" cy="544.666" r="8"/><circle cx="1050" cy="590.713" r="8"/><circle cx="1155" cy="473.566" r="8"/><circle cx="1260" cy="568.75" r="8"/><circle cx="1365" cy="348.18" r="8"/><circle cx="1470" cy="450.471" r="8"/><circle cx="1575" cy="286.69" r="8"/><circle cx="1680" cy="471.29" r="8"/><circle cx="1785" cy="233.843" r="8"/><circle cx="1890" cy="497.251" r="8"/><circle cx="1995" cy="36.798" r="8"/></g></svg>